<svg width="20" height="26" viewBox="0 0 20 26" fill="none" xmlns="http://www.w3.org/2000/svg">
<g clip-path="url(#clip0_1_671)">
<path d="M1.42332 20.2504H4.25332C5.0402 20.2504 5.67957 19.611 5.67957 18.8241V15.9572C5.67957 15.1704 5.0402 14.5304 4.25332 14.5304H2.9952V11.8316H9.96582V14.5304H8.58457C7.7977 14.5304 7.1577 15.1704 7.1577 15.9572V18.8241C7.1577 19.611 7.7977 20.2504 8.58457 20.2504H11.4139C12.2008 20.2504 12.8408 19.611 12.8408 18.8241V15.9572C12.8408 15.1704 12.2008 14.5304 11.4139 14.5304H10.2783V11.8316H17.0039V14.5304H15.7452C14.9583 14.5304 14.3189 15.1704 14.3189 15.9572V18.8241C14.3189 19.611 14.9583 20.2504 15.7452 20.2504H18.5752C19.3621 20.2504 20.0014 19.611 20.0014 18.8241V15.9572C20.0014 15.1704 19.3621 14.5304 18.5752 14.5304H17.3158V11.5191H10.2783V8.80535C12.5539 8.6616 14.3614 6.8041 14.3614 4.53535C14.3614 2.17285 12.4033 0.250977 9.99645 0.250977C7.58957 0.250977 5.63082 2.17223 5.63082 4.53473C5.63082 6.8866 7.57332 8.80098 9.96644 8.81723V11.5185H2.6827V14.5297H1.42332C0.636445 14.5297 -0.00292969 15.1697 -0.00292969 15.9566V18.8235C-0.00292969 19.6104 0.63707 20.2504 1.42332 20.2504ZM12.5289 15.9572V18.8241C12.5289 19.4379 12.0289 19.9379 11.4146 19.9379H8.5852C7.97082 19.9379 7.47082 19.4379 7.47082 18.8241V15.9572C7.47082 15.3429 7.97082 14.8429 8.5852 14.8429H11.4146C12.0289 14.8422 12.5289 15.3422 12.5289 15.9572ZM19.6896 15.9572V18.8241C19.6896 19.4379 19.1896 19.9379 18.5758 19.9379H15.7458C15.1321 19.9379 14.6321 19.4379 14.6321 18.8241V15.9572C14.6321 15.3429 15.1321 14.8429 15.7458 14.8429H18.5758C19.1896 14.8422 19.6896 15.3422 19.6896 15.9572ZM5.94332 4.53473C5.94332 2.3441 7.76145 0.562852 9.99645 0.562852C12.2308 0.562852 14.0489 2.34473 14.0489 4.53473C14.0489 6.72473 12.2308 8.50598 9.99645 8.50598C7.76145 8.5066 5.94332 6.72473 5.94332 4.53473ZM0.30957 15.9572C0.30957 15.3429 0.80957 14.8429 1.42332 14.8429H4.25332C4.86707 14.8429 5.36707 15.3429 5.36707 15.9572V18.8241C5.36707 19.4379 4.86707 19.9379 4.25332 19.9379H1.42332C0.80957 19.9379 0.30957 19.4379 0.30957 18.8241V15.9572Z" fill="black"/>
<path d="M11.5331 6.85586L11.3987 6.35836C11.2168 6.46148 10.8537 6.61898 10.435 6.61898C10.0087 6.61898 9.61371 6.46898 9.32121 6.16086C9.10809 5.92398 8.94996 5.58461 8.88684 5.12648H11.1218V4.73961H8.83121C8.83121 4.68398 8.83121 4.64461 8.83121 4.59711C8.83121 4.48648 8.83934 4.36836 8.84684 4.26586H11.1212V3.87086H8.91871C8.99809 3.45273 9.15559 3.09711 9.39246 2.86836C9.66121 2.58398 10.0087 2.43398 10.435 2.43398C10.7906 2.43398 11.1225 2.53648 11.3193 2.65461L11.4775 2.13398C11.2562 2.01523 10.8931 1.88086 10.4268 1.88086C9.77934 1.88086 9.26559 2.11773 8.86309 2.53648C8.54746 2.86023 8.30996 3.31836 8.21559 3.87086H7.69434V4.26586H8.16059C8.15246 4.37586 8.14496 4.49461 8.14496 4.62148C8.14496 4.66086 8.14496 4.70023 8.14496 4.73961H7.69434V5.12648H8.18434C8.25559 5.69461 8.45309 6.15273 8.75309 6.48461C9.14809 6.94273 9.71621 7.18773 10.3562 7.18773C10.8775 7.18773 11.2881 7.02148 11.5331 6.85586Z" fill="black"/>
</g>
<defs>
<clipPath id="clip0_1_671">
<rect width="20" height="25" fill="white" transform="translate(0 0.25)"/>
</clipPath>
</defs>
</svg>
