<svg width="20" height="20" viewBox="0 0 20 20" fill="none" xmlns="http://www.w3.org/2000/svg">
<path d="M17.7875 15.9765H17.1185V16.5668H17.7875V15.9765ZM18.3136 9.48767H16.5185V11.2766H18.3136V9.48767ZM16.328 9.10753H18.5034C18.6084 9.10753 18.6945 9.19398 18.6945 9.2976V11.4666C18.6945 11.5699 18.6084 11.6567 18.5034 11.6567H16.328C16.2222 11.6567 16.1368 11.5699 16.1368 11.4666V9.2976C16.1368 9.19402 16.2222 9.10753 16.328 9.10753ZM17.7875 12.6734H17.1185V13.265H17.7875V12.6734ZM16.9273 12.2949H17.9787C18.0837 12.2949 18.1692 12.3794 18.1692 12.4844V13.4555C18.1692 13.5601 18.0837 13.6452 17.9787 13.6452H16.9273C16.8229 13.6452 16.7368 13.5601 16.7368 13.4555V12.4844C16.7368 12.3794 16.8229 12.2949 16.9273 12.2949ZM17.7875 14.3261H17.1185V14.9167H17.7875V14.3261ZM16.9273 13.9466H17.9787C18.0837 13.9466 18.1692 14.0311 18.1692 14.1364V15.1068C18.1692 15.2118 18.0837 15.2969 17.9787 15.2969H16.9273C16.8229 15.2969 16.7368 15.2117 16.7368 15.1068V14.1364C16.7368 14.0311 16.8229 13.9466 16.9273 13.9466ZM15.3862 7.0958H1.88234V17.8536H15.3862V7.0958ZM1.69183 6.71566H15.5774C15.6817 6.71566 15.7678 6.80049 15.7678 6.90573V18.044C15.7678 18.1473 15.6817 18.2338 15.5774 18.2338H1.69183C1.58732 18.2338 1.50067 18.1473 1.50067 18.044V6.90573C1.50067 6.80049 1.58732 6.71566 1.69183 6.71566ZM6.87118 5.7517H0.38103V19.2013H19.0616V5.7517H10.9233C10.7372 5.7517 10.5852 5.69827 10.4732 5.60956C10.41 5.55775 10.3599 5.49528 10.3258 5.42402C10.2936 5.35281 10.2764 5.27507 10.2764 5.19414C10.2764 5.03773 10.3404 4.86321 10.4751 4.69547C10.9271 4.24541 11.5625 3.411 11.9854 2.89029C12.2265 2.59044 12.4651 2.29221 12.5771 2.20188C12.6182 2.16558 12.6759 2.14682 12.7354 2.15784C12.7752 2.16396 12.8157 2.16692 12.8544 2.16692C12.8923 2.16692 12.9323 2.16108 12.9747 2.15173C13.1418 2.11612 13.2772 2.01541 13.3619 1.88392C13.4474 1.75149 13.481 1.58634 13.445 1.42025C13.4089 1.25477 13.3076 1.11878 13.1746 1.0346C13.0423 0.94941 12.8765 0.915423 12.7094 0.952003C12.6373 0.972743 12.6081 0.98279 12.5392 1.01516C12.4715 1.04396 12.4139 1.08641 12.3689 1.1379C12.3241 1.18971 12.2897 1.25254 12.2683 1.32343L12.262 1.34288C12.2442 1.39145 12.2329 1.44423 12.2278 1.49799C12.2228 1.54915 12.2246 1.60323 12.2336 1.65828C12.2386 1.68324 12.2386 1.70977 12.231 1.7363C12.2126 1.81015 12.1342 1.95878 12.0209 2.13459C11.9304 2.27548 11.8108 2.44222 11.6771 2.60766L11.6651 2.62289C11.122 3.22546 10.7126 3.72154 10.3853 4.11659C9.69736 4.94873 9.34719 5.37161 8.92002 5.37161C8.48455 5.37258 8.10793 4.92673 7.34458 4.02329C7.025 3.64575 6.63258 3.1824 6.13699 2.63095L6.12302 2.61507C5.99201 2.45316 5.87494 2.28966 5.7831 2.15006C5.67373 1.98333 5.59652 1.83952 5.57047 1.76215C5.55909 1.72848 5.55714 1.69126 5.56674 1.65431C5.58056 1.5863 5.58315 1.5643 5.58757 1.49402C5.58757 1.3253 5.51866 1.17083 5.4073 1.06012C5.29513 0.948721 5.1414 0.880099 4.97118 0.880099C4.80019 0.880099 4.64577 0.948762 4.53505 1.06012C4.42305 1.17083 4.35398 1.3253 4.35398 1.49402L4.35787 1.55976L4.37103 1.64038C4.378 1.67663 4.39003 1.71293 4.40534 1.74692C4.41981 1.77993 4.43949 1.81299 4.46287 1.84402L4.46595 1.84855C4.52428 1.92917 4.60088 1.99556 4.68749 2.04024C4.77236 2.08363 4.86857 2.10826 4.97114 2.10826L5.01667 2.10696C5.06479 2.10048 5.11535 2.11182 5.15711 2.14419C5.25968 2.22027 5.4154 2.41585 5.61422 2.66486L5.74199 2.82353L7.31873 4.6964C7.45415 4.86475 7.51739 5.03862 7.51739 5.1947C7.51739 5.27661 7.49964 5.35431 7.46683 5.42459C7.43333 5.49646 7.38326 5.56026 7.31873 5.6111C7.20786 5.69892 7.05599 5.7517 6.87118 5.7517ZM0.191163 5.37157H6.87118C6.96739 5.37157 7.03828 5.34985 7.08252 5.31489C7.10026 5.30063 7.11355 5.2835 7.12315 5.26535C7.13129 5.24465 7.13567 5.22164 7.13567 5.19474C7.13567 5.11964 7.10087 5.02995 7.025 4.93536C6.4554 4.26023 5.86793 3.59029 5.31607 2.90127C5.17109 2.71703 5.05013 2.56581 4.97426 2.48844H4.97114C4.80651 2.48844 4.6514 2.44829 4.51358 2.37736C4.37298 2.30485 4.25137 2.19961 4.1597 2.07237C4.12101 2.02185 4.0869 1.96486 4.05842 1.90207C4.03242 1.84406 4.01095 1.77997 3.99762 1.71297L3.99632 1.70552C3.98935 1.67412 3.98299 1.64042 3.97991 1.60157L3.97295 1.49406C3.97295 1.21977 4.0856 0.971123 4.26538 0.791424C4.44516 0.611036 4.69515 0.5 4.97118 0.5C5.2464 0.5 5.49638 0.611036 5.67681 0.791424C5.85659 0.971123 5.9686 1.21981 5.9686 1.49406C5.9686 1.53517 5.96552 1.57856 5.95916 1.62389L5.94956 1.68635C5.97621 1.74368 6.03066 1.83401 6.1022 1.94314C6.18706 2.07395 6.29644 2.22582 6.41934 2.37736C6.91611 2.93072 7.31306 3.3986 7.63458 3.78008C8.32073 4.59184 8.65866 4.99236 8.92002 4.99236C9.16806 4.99301 9.47885 4.6174 10.0916 3.87657C10.4251 3.47277 10.8429 2.96734 11.379 2.37254C11.5043 2.21711 11.6165 2.0607 11.7018 1.9286C11.7766 1.81303 11.8291 1.72237 11.8519 1.67246C11.8429 1.60319 11.8429 1.53388 11.8486 1.46586C11.8556 1.38006 11.8753 1.29491 11.9044 1.21365C11.9418 1.09095 12.0025 0.982141 12.081 0.890793C12.162 0.798189 12.2633 0.723692 12.3797 0.671597C12.4196 0.651221 12.4595 0.633073 12.4975 0.618814L12.5089 0.615897C12.5487 0.601962 12.5892 0.589688 12.6291 0.580938C12.898 0.523293 13.1652 0.578669 13.3803 0.715631C13.5949 0.852269 13.7582 1.07179 13.8171 1.3396C13.8753 1.60708 13.819 1.87355 13.6823 2.08821C13.545 2.30157 13.3247 2.46446 13.0557 2.5234C12.9936 2.53636 12.9284 2.54414 12.8619 2.54576L12.7646 2.54252C12.6747 2.63901 12.4778 2.88219 12.281 3.12763C11.7886 3.7341 11.2734 4.33311 10.7714 4.93281C10.6935 5.02963 10.6581 5.11964 10.6581 5.19414C10.6581 5.22164 10.6626 5.24465 10.6714 5.26438C10.6815 5.2835 10.6942 5.30063 10.7126 5.31457C10.7556 5.34985 10.8271 5.37157 10.9234 5.37157H19.2528C19.3572 5.37157 19.444 5.45672 19.444 5.56163V19.3897C19.444 19.4946 19.3572 19.5798 19.2528 19.5798H0.191163C0.0855151 19.5798 0 19.4946 0 19.3897V5.56163C0 5.45672 0.0855151 5.37157 0.191163 5.37157ZM6.03827 9.43489C6.12051 9.37012 6.24013 9.38405 6.3047 9.466C6.36859 9.54759 6.35461 9.66676 6.27233 9.72988L4.5103 11.1159C4.42933 11.1808 4.3097 11.1668 4.24501 11.0848C4.17983 11.003 4.1938 10.8841 4.27604 10.8193L6.03827 9.43489ZM6.26164 10.3852C6.34387 10.3217 6.46354 10.3353 6.52872 10.4179C6.59325 10.4995 6.57879 10.6186 6.49655 10.6814L4.73501 12.0677C4.65338 12.1327 4.53376 12.1185 4.46858 12.0369C4.4034 11.955 4.41738 11.8361 4.49961 11.771L6.26164 10.3852ZM16.9273 15.5964H17.9787C18.0837 15.5964 18.1692 15.6816 18.1692 15.7865V16.7569C18.1692 16.8605 18.0837 16.9466 17.9787 16.9466H16.9273C16.8229 16.9466 16.7368 16.8605 16.7368 16.7569V15.7865C16.7368 15.6816 16.8229 15.5964 16.9273 15.5964Z" fill="black"/>
</svg>
