<svg width="47" height="45" viewBox="0 0 47 45" fill="none" xmlns="http://www.w3.org/2000/svg">
<ellipse cx="23.5" cy="22.5" rx="23.5" ry="22.5" fill="#FFF6F2"/>
<g clip-path="url(#clip0_16_4)">
<path d="M29.6 15.8C29.6 14.6529 29.2598 13.5315 28.6225 12.5777C27.9852 11.6239 27.0794 10.8805 26.0196 10.4415C24.9598 10.0025 23.7936 9.88765 22.6685 10.1114C21.5434 10.3352 20.5099 10.8876 19.6988 11.6988C18.8876 12.5099 18.3352 13.5434 18.1114 14.6685C17.8877 15.7936 18.0025 16.9598 18.4415 18.0196C18.8805 19.0794 19.6239 19.9852 20.5777 20.6225C21.5315 21.2598 22.6529 21.6 23.8 21.6C25.3383 21.6 26.8135 20.9889 27.9012 19.9012C28.9889 18.8135 29.6 17.3383 29.6 15.8ZM23.8 20.8C22.8111 20.8 21.8444 20.5068 21.0222 19.9574C20.1999 19.4079 19.559 18.6271 19.1806 17.7134C18.8022 16.7998 18.7032 15.7945 18.8961 14.8246C19.089 13.8546 19.5652 12.9637 20.2645 12.2645C20.9637 11.5652 21.8546 11.089 22.8246 10.8961C23.7945 10.7032 24.7998 10.8022 25.7134 11.1806C26.6271 11.559 27.4079 12.1999 27.9574 13.0222C28.5068 13.8444 28.8 14.8111 28.8 15.8C28.8 16.4566 28.6707 17.1068 28.4194 17.7134C28.1681 18.32 27.7998 18.8712 27.3355 19.3355C26.8712 19.7998 26.32 20.1681 25.7134 20.4194C25.1068 20.6707 24.4566 20.8 23.8 20.8Z" fill="#FF4F01"/>
<path d="M31.9741 25.8C31.9394 25.7053 31.8788 25.6221 31.7993 25.5599C31.7198 25.4977 31.6245 25.459 31.5241 25.448L30.5241 25.296L30.0761 24.344C30.0393 24.2462 29.9735 24.162 29.8876 24.1025C29.8017 24.0431 29.6996 24.0112 29.5951 24.0112C29.4906 24.0112 29.3886 24.0431 29.3027 24.1025C29.2168 24.162 29.151 24.2462 29.1141 24.344L28.6661 25.296L27.6661 25.448C27.5676 25.4607 27.4744 25.5003 27.3968 25.5624C27.3192 25.6244 27.2602 25.7067 27.2261 25.8C27.1965 25.8981 27.1949 26.0025 27.2214 26.1014C27.2479 26.2003 27.3015 26.2899 27.3761 26.36L28.1061 27.106L27.9321 28.166C27.9154 28.2479 27.9169 28.3325 27.9366 28.4138C27.9563 28.495 27.9937 28.5709 28.0461 28.636C28.1294 28.726 28.2413 28.7844 28.3627 28.8011C28.4841 28.8179 28.6076 28.7921 28.7121 28.728L29.6001 28.232L30.4841 28.718C30.573 28.7692 30.6736 28.7968 30.7761 28.798C30.8475 28.7984 30.9182 28.7831 30.9831 28.7534C31.048 28.7237 31.1057 28.6803 31.1521 28.626C31.2046 28.5609 31.242 28.485 31.2617 28.4038C31.2814 28.3225 31.2829 28.2379 31.2661 28.156L31.0921 27.096L31.8241 26.348C31.8967 26.279 31.9489 26.1915 31.9754 26.0949C32.0018 25.9983 32.0014 25.8964 31.9741 25.8ZM30.2381 26.836L30.3901 27.762L29.6001 27.32L28.8101 27.754L28.9621 26.83L28.3001 26.154L29.2121 26.014L29.6001 25.2L29.9881 26.024L30.9001 26.164L30.2381 26.836Z" fill="#FF4F01"/>
<path d="M19.4 21.6H20.644C20.2321 21.3749 19.8453 21.1067 19.49 20.8H19.4C15.876 20.8 13 23.73 13 27.332V28.8H13.8V27.332C13.8 24.172 16.316 21.6 19.4 21.6Z" fill="#FF4F01"/>
<path d="M34.5998 34.256V27.332C34.5998 23.73 31.7258 20.8 28.1998 20.8H28.0998C27.7445 21.1067 27.3577 21.3749 26.9458 21.6H28.1998C31.2918 21.6 33.7998 24.172 33.7998 27.332V34.256C33.8012 34.3261 33.7887 34.3958 33.763 34.4611C33.7374 34.5264 33.6992 34.586 33.6505 34.6365C33.6019 34.6871 33.5437 34.7275 33.4795 34.7555C33.4152 34.7836 33.346 34.7987 33.2758 34.8H24.7398C24.6651 35.0921 24.5287 35.3649 24.3398 35.6H33.2778C33.6311 35.5963 33.9686 35.4528 34.2163 35.2009C34.4641 34.949 34.602 34.6093 34.5998 34.256Z" fill="#FF4F01"/>
<path d="M23.27 22.376C23.0013 22.3557 22.7341 22.319 22.47 22.266L21.814 26.666C22.1103 26.974 22.3314 27.3464 22.46 27.754L23.27 22.376Z" fill="#FF4F01"/>
<path d="M26.2582 31.236C26.3097 31.1925 26.3493 31.1367 26.3735 31.0737C26.3976 31.0108 26.4054 30.9428 26.3962 30.876L25.1862 22.252C24.9223 22.3084 24.6551 22.3485 24.3862 22.372L25.5642 30.772C25.6323 31.1675 25.583 31.5743 25.4222 31.942L26.2582 31.236Z" fill="#FF4F01"/>
<path d="M23.4662 29.868H21.7782C21.8516 29.5762 21.8912 29.2769 21.8962 28.976C21.8442 28.488 21.7242 27.346 20.8322 26.936C20.5953 26.8242 20.3312 26.7826 20.0714 26.8163C19.8115 26.85 19.5668 26.9575 19.3662 27.126C18.8302 27.572 18.8602 28.192 18.8762 28.526C18.8762 28.578 18.8762 28.926 18.8762 28.926C18.6331 29.4057 18.3661 29.873 18.0762 30.326L17.9942 30.462V30C17.9942 29.8939 17.9521 29.7922 17.877 29.7171C17.802 29.6421 17.7003 29.6 17.5942 29.6H15.6002C15.4941 29.6 15.3924 29.6421 15.3174 29.7171C15.2423 29.7922 15.2002 29.8939 15.2002 30V35.2C15.2002 35.3061 15.2423 35.4078 15.3174 35.4828C15.3924 35.5578 15.4941 35.6 15.6002 35.6H17.6002C17.6867 35.5994 17.7706 35.5709 17.8395 35.5186C17.9083 35.4663 17.9584 35.3931 17.9822 35.31C18.0262 35.31 18.2162 35.31 18.2582 35.31C18.4102 35.4195 18.5791 35.5032 18.7582 35.558C18.8278 35.5776 18.8998 35.5877 18.9722 35.588H22.6742C22.8625 35.5887 23.0487 35.5495 23.2207 35.4729C23.3927 35.3962 23.5464 35.284 23.6717 35.1435C23.7971 35.003 23.8912 34.8376 23.9478 34.658C24.0044 34.4785 24.0223 34.289 24.0002 34.102C24.2194 33.859 24.3406 33.5433 24.3402 33.216C24.34 33.1321 24.332 33.0484 24.3162 32.966C24.4923 32.7365 24.5879 32.4553 24.5882 32.166C24.5883 32.0705 24.5783 31.9753 24.5582 31.882C24.7167 31.6581 24.8013 31.3903 24.8002 31.116C24.8002 30.4 24.2262 29.868 23.4662 29.868ZM17.2002 34.8H16.0002V30.4H17.2002V34.8ZM23.4662 31.642H23.3342C23.4692 31.6579 23.5929 31.7254 23.6792 31.8304C23.7655 31.9355 23.8078 32.0699 23.7972 32.2054C23.7866 32.341 23.7239 32.4671 23.6223 32.5575C23.5207 32.6478 23.3881 32.6953 23.2522 32.69H23.0282C23.1625 32.7006 23.2877 32.7622 23.3781 32.8621C23.4685 32.962 23.5173 33.0927 23.5145 33.2274C23.5117 33.3621 23.4575 33.4906 23.363 33.5867C23.2685 33.6827 23.1408 33.739 23.0062 33.744H22.6982C22.8326 33.7548 22.9577 33.8165 23.048 33.9166C23.1384 34.0167 23.187 34.1475 23.1839 34.2823C23.1808 34.4171 23.1263 34.5456 23.0315 34.6415C22.9368 34.7374 22.8089 34.7933 22.6742 34.798H18.9802C18.7942 34.746 18.6582 34.598 18.4802 34.528C18.4396 34.5146 18.3969 34.5085 18.3542 34.51C18.2363 34.5174 18.1181 34.5174 18.0002 34.51V31.47C18.0002 31.47 18.5262 31.148 18.5422 31.112C18.6102 30.962 19.6822 29.332 19.6822 29.01V28.678C19.6822 28.35 19.5962 27.978 19.8822 27.742C19.9664 27.6688 20.0704 27.6222 20.1811 27.608C20.2918 27.5937 20.4042 27.6125 20.5042 27.662C20.9582 27.862 21.0602 28.624 21.1042 29.062C21.1282 29.294 20.7962 30.582 20.7322 30.662H23.4662C23.7622 30.662 24.0002 30.816 24.0002 31.108C24.0007 31.1783 23.9873 31.2479 23.9606 31.313C23.934 31.378 23.8947 31.4371 23.845 31.4868C23.7953 31.5365 23.7362 31.5758 23.6712 31.6024C23.6061 31.6291 23.5365 31.6425 23.4662 31.642Z" fill="#FF4F01"/>
<path d="M11.4 33C11.6209 33 11.8 32.8209 11.8 32.6C11.8 32.3791 11.6209 32.2 11.4 32.2C11.1791 32.2 11 32.3791 11 32.6C11 32.8209 11.1791 33 11.4 33Z" fill="#FF4F01"/>
<path d="M11.4 31.4H14C14.1061 31.4 14.2078 31.3578 14.2828 31.2828C14.3579 31.2078 14.4 31.1061 14.4 31C14.4 30.8939 14.3579 30.7921 14.2828 30.7171C14.2078 30.6421 14.1061 30.6 14 30.6H11.4C11.2939 30.6 11.1922 30.6421 11.1172 30.7171C11.0421 30.7921 11 30.8939 11 31C11 31.1061 11.0421 31.2078 11.1172 31.2828C11.1922 31.3578 11.2939 31.4 11.4 31.4Z" fill="#FF4F01"/>
<path d="M11.4 34.6H14C14.1061 34.6 14.2078 34.5578 14.2828 34.4828C14.3579 34.4078 14.4 34.3061 14.4 34.2C14.4 34.0939 14.3579 33.9922 14.2828 33.9171C14.2078 33.8421 14.1061 33.8 14 33.8H11.4C11.2939 33.8 11.1922 33.8421 11.1172 33.9171C11.0421 33.9922 11 34.0939 11 34.2C11 34.3061 11.0421 34.4078 11.1172 34.4828C11.1922 34.5578 11.2939 34.6 11.4 34.6Z" fill="#FF4F01"/>
<path d="M14.0001 32.2H13.0001C12.894 32.2 12.7923 32.2422 12.7173 32.3172C12.6422 32.3922 12.6001 32.4939 12.6001 32.6C12.6001 32.7061 12.6422 32.8078 12.7173 32.8829C12.7923 32.9579 12.894 33 13.0001 33H14.0001C14.1062 33 14.2079 32.9579 14.2829 32.8829C14.358 32.8078 14.4001 32.7061 14.4001 32.6C14.4001 32.4939 14.358 32.3922 14.2829 32.3172C14.2079 32.2422 14.1062 32.2 14.0001 32.2Z" fill="#FF4F01"/>
</g>
<defs>
<clipPath id="clip0_16_4">
<rect width="25.6" height="32" fill="white" transform="translate(11 10)"/>
</clipPath>
</defs>
</svg>
