<svg width="20" height="25" viewBox="0 0 20 25" fill="none" xmlns="http://www.w3.org/2000/svg">
<path d="M16.9754 2.73096H2.42545C2.31831 2.73096 2.23145 2.81782 2.23145 2.92496V12.625V14.08C2.23145 14.1871 2.31831 14.274 2.42545 14.274H8.53645V15.0041L8.08593 15.9051L7.68012 16.311H6.30545C6.25486 16.311 6.20617 16.3308 6.16999 16.3661L5.17574 17.3361C5.11928 17.3912 5.10175 17.4751 5.1315 17.5481C5.16124 17.6212 5.23229 17.669 5.3112 17.669H14.0654C14.1444 17.669 14.2159 17.6209 14.2456 17.5478C14.3017 17.4098 14.3017 17.4098 13.2308 16.366C13.1946 16.3308 13.146 16.311 13.0954 16.311H11.7208L11.315 15.9051L10.8644 15.0041V14.274H16.9754C17.0826 14.274 17.1694 14.1871 17.1694 14.08V12.625V2.92496C17.1694 2.81782 17.0826 2.73096 16.9754 2.73096ZM2.61945 3.11896H16.7814V12.431H2.61945V3.11896ZM10.8415 15.826H8.55937L8.85037 15.244H10.5505L10.8415 15.826ZM11.6404 16.699H13.0165C13.2246 16.902 13.4403 17.1141 13.6081 17.281H5.78786L6.38445 16.699H7.76045C7.81188 16.699 7.86123 16.6785 7.89761 16.6421L8.32577 16.214H11.0751L11.5033 16.6421C11.5397 16.6785 11.589 16.699 11.6404 16.699ZM10.4764 14.856H8.92445V14.274H10.4764V14.856ZM16.7814 13.886H10.6704H8.73045H2.61945V12.819H16.7814V13.886Z" fill="black"/>
<path d="M12.6097 7.0959H10.6478L9.88376 4.80352C9.85733 4.72432 9.78326 4.6709 9.69971 4.6709C9.61616 4.6709 9.54208 4.72432 9.51566 4.80352L8.75159 7.0959H6.78971C6.70502 7.0959 6.63009 7.15084 6.60471 7.23155C6.57923 7.31235 6.60907 7.40025 6.6785 7.44885L8.26394 8.55867L7.57566 10.6235C7.54923 10.703 7.5766 10.7903 7.64367 10.8404C7.71092 10.8906 7.80243 10.892 7.87092 10.8438L9.69971 9.56371L11.5285 10.8438C11.5619 10.8672 11.6008 10.8789 11.6397 10.8789C11.6805 10.8789 11.7214 10.866 11.7557 10.8404C11.8228 10.7903 11.8502 10.703 11.8238 10.6235L11.1355 8.55867L12.7209 7.44885C12.7904 7.40025 12.8202 7.31235 12.7947 7.23155C12.7693 7.15084 12.6944 7.0959 12.6097 7.0959ZM10.7945 8.32374C10.7241 8.373 10.6945 8.46261 10.7216 8.54408L11.27 10.1893L9.81092 9.16795C9.77757 9.14455 9.73864 9.1329 9.69971 9.1329C9.66078 9.1329 9.62184 9.14455 9.5885 9.16795L8.12943 10.1893L8.6778 8.54408C8.70489 8.46261 8.67534 8.373 8.60495 8.32374L7.40515 7.4839H8.89141C8.97496 7.4839 9.04903 7.43047 9.07546 7.35128L9.69971 5.47844L10.324 7.35128C10.3504 7.43047 10.4245 7.4839 10.508 7.4839H11.9943L10.7945 8.32374Z" fill="black"/>
</svg>
