<svg width="52" height="65" viewBox="0 0 52 65" fill="none" xmlns="http://www.w3.org/2000/svg">
<path d="M33.176 23.14H9.88002C8.32002 23.14 7.02002 24.44 7.02002 26C7.02002 27.56 8.32002 28.86 9.88002 28.86H33.228C34.788 28.86 36.088 27.56 36.088 26C36.036 24.388 34.788 23.14 33.176 23.14Z" fill="#FF4F01"/>
<path d="M42.276 6.76001H9.88002C8.32002 6.76001 7.02002 8.06001 7.02002 9.62001C7.02002 11.18 8.32002 12.48 9.88002 12.48H42.328C43.888 12.48 45.188 11.18 45.188 9.62001C45.136 8.06001 43.888 6.76001 42.276 6.76001Z" fill="#FF4F01"/>
<path d="M42.276 39.468H9.88002C8.32002 39.468 7.02002 40.768 7.02002 42.328C7.02002 43.888 8.32002 45.188 9.88002 45.188H42.328C43.888 45.188 45.188 43.888 45.188 42.328C45.136 40.768 43.888 39.468 42.276 39.468Z" fill="#FF4F01"/>
</svg>
