<svg width="1024" height="757" viewBox="0 0 1024 757" fill="none" xmlns="http://www.w3.org/2000/svg">
<path d="M0 55H1024V660.595C1024 660.595 937.5 554.668 893.75 660.595C850 766.523 783 809.927 763.5 660.595C744 511.263 522.5 803.727 485 646.644C447.5 489.561 347 515.914 245.5 660.595C144 805.277 0 660.595 0 660.595V55Z" fill="#FF4F01"/>
<path d="M0 0H1024V635.789C1024 635.789 937.5 524.58 893.75 635.789C850 746.998 783 792.566 763.5 635.789C744 479.012 522.5 786.056 485 621.142C447.5 456.227 347 483.894 245.5 635.789C144 787.684 0 635.789 0 635.789V0Z" fill="white"/>
</svg>
