<svg width="528" height="474" viewBox="0 0 528 474" fill="none" xmlns="http://www.w3.org/2000/svg">
<g clip-path="url(#clip0_2_287)">
<path opacity="0.43" d="M203.067 124.385L287.958 173.456C289.368 174.271 290.968 174.7 292.596 174.7C294.224 174.701 295.823 174.272 297.234 173.459C298.644 172.645 299.815 171.474 300.629 170.064C301.443 168.654 301.872 167.055 301.872 165.426V77.9478C301.876 72.966 300.579 68.0694 298.109 63.7429C295.639 59.4164 292.083 55.81 287.791 53.2807L201.33 2.33024C199.922 1.50607 198.321 1.06784 196.689 1.05973C195.058 1.05162 193.453 1.47393 192.036 2.28405C190.62 3.09418 189.442 4.26347 188.622 5.67401C187.802 7.08455 187.368 8.68645 187.364 10.3181V97.1355C187.364 102.655 188.814 108.078 191.57 112.861C194.326 117.643 198.291 121.617 203.067 124.385V124.385Z" fill="url(#paint0_linear_2_287)"/>
<path opacity="0.43" d="M196.255 127.009L281.146 176.08C282.556 176.895 284.155 177.324 285.783 177.324C287.412 177.325 289.011 176.896 290.421 176.083C291.831 175.269 293.002 174.098 293.817 172.688C294.631 171.278 295.059 169.679 295.059 168.05V80.5823C295.063 75.6012 293.767 70.7054 291.298 66.3792C288.829 62.0529 285.274 58.446 280.983 55.9153L194.518 4.96481C193.109 4.1378 191.507 3.69742 189.873 3.6882C188.239 3.67898 186.632 4.10124 185.214 4.9123C183.796 5.72335 182.617 6.89445 181.796 8.3072C180.976 9.71995 180.543 11.3243 180.542 12.958V99.7701C180.544 105.289 181.997 110.711 184.755 115.491C187.513 120.272 191.478 124.244 196.255 127.009V127.009Z" fill="url(#paint1_linear_2_287)"/>
<path opacity="0.22" d="M411.073 247.379C411.073 249.928 410.391 252.431 409.1 254.629C407.808 256.827 405.953 258.639 403.725 259.88L236.174 352.948L216.797 363.303C213.555 364.998 209.776 365.352 206.276 364.289C202.775 363.225 199.832 360.83 198.08 357.618C196.328 354.406 195.908 350.635 196.909 347.116C197.911 343.597 200.254 340.612 203.435 338.804L390.222 235.092C392.36 233.906 394.77 233.298 397.215 233.33C399.66 233.361 402.054 234.031 404.161 235.272C406.268 236.514 408.013 238.284 409.226 240.407C410.438 242.53 411.075 244.933 411.073 247.379Z" fill="url(#paint2_linear_2_287)"/>
<path opacity="0.22" d="M441.041 202.731L363.366 246.024L362.5 246.507C385.949 256.642 403.594 279.734 403.594 308.857C403.594 321.621 400.202 334.156 393.764 345.177C387.326 356.198 378.074 365.31 366.956 371.58L208.226 461.147L188.886 471.533C185.637 473.305 181.817 473.714 178.266 472.669C174.715 471.624 171.725 469.212 169.953 465.962C168.181 462.713 167.773 458.893 168.817 455.342C169.862 451.791 172.275 448.801 175.524 447.029L240.661 410.816C255.288 399.674 240.692 382.963 225.073 389.66L159.223 426.046C155.668 427.926 151.522 428.352 147.659 427.233C143.797 426.114 140.52 423.539 138.519 420.051C136.519 416.562 135.952 412.433 136.938 408.534C137.924 404.636 140.385 401.273 143.803 399.154L149.818 394.541L151.015 393.617C152.364 392.818 153.483 391.683 154.261 390.322C155.039 388.96 155.45 387.42 155.454 385.852C155.458 384.284 155.054 382.742 154.282 381.377C153.51 380.012 152.397 378.871 151.051 378.066L148.858 376.77C145.305 374.658 141.268 373.5 137.136 373.408C133.005 373.316 128.919 374.293 125.277 376.245L84.865 397.763C82.9476 398.736 80.8004 399.164 78.6566 399.002C76.5128 398.84 74.4543 398.094 72.7047 396.845C71.1857 395.709 69.9754 394.21 69.1841 392.486C68.3929 390.762 68.0459 388.867 68.1748 386.974C68.3036 385.082 68.9043 383.252 69.922 381.651C70.9397 380.05 72.342 378.729 74.001 377.809L151.676 334.516L152.542 334.033C129.087 323.899 111.469 300.817 111.469 271.683C111.47 258.924 114.861 246.395 121.295 235.377C127.729 224.359 136.975 215.248 148.086 208.977L306.768 119.378L326.114 108.986C329.364 107.215 333.184 106.807 336.735 107.853C340.286 108.899 343.276 111.312 345.047 114.562C346.818 117.813 347.226 121.633 346.18 125.184C345.134 128.735 342.721 131.724 339.471 133.496L274.339 169.683C259.707 180.825 274.302 197.535 289.921 190.839L355.772 154.478C359.332 152.518 363.52 152.034 367.434 153.131C371.348 154.227 374.675 156.816 376.699 160.34C378.724 163.865 379.283 168.043 378.258 171.976C377.233 175.909 374.705 179.283 371.218 181.371L365.203 185.984L364.012 186.908C362.662 187.706 361.543 188.841 360.765 190.202C359.987 191.562 359.575 193.102 359.572 194.67C359.568 196.238 359.972 197.779 360.744 199.144C361.516 200.508 362.629 201.649 363.975 202.453L366.163 203.755C369.716 205.867 373.753 207.025 377.885 207.117C382.016 207.209 386.101 206.231 389.744 204.279L430.156 182.761C432.077 181.789 434.229 181.361 436.376 181.525C438.524 181.689 440.585 182.438 442.337 183.69C443.857 184.827 445.069 186.325 445.861 188.05C446.653 189.775 447 191.67 446.871 193.564C446.742 195.457 446.141 197.288 445.123 198.889C444.104 200.491 442.701 201.812 441.041 202.731V202.731Z" fill="url(#paint3_linear_2_287)"/>
<path opacity="0.22" d="M89.8457 309.518C89.8465 306.969 90.528 304.466 91.8197 302.269C93.1114 300.071 94.9665 298.258 97.1933 297.017L264.756 203.949L284.132 193.594C287.375 191.899 291.153 191.545 294.654 192.608C298.154 193.672 301.097 196.067 302.849 199.279C304.601 202.491 305.021 206.262 304.02 209.781C303.018 213.3 300.675 216.285 297.495 218.093L110.697 321.805C108.559 322.993 106.148 323.602 103.703 323.571C101.257 323.54 98.8623 322.871 96.7552 321.629C94.6481 320.387 92.902 318.617 91.69 316.493C90.478 314.368 89.8423 311.964 89.8457 309.518V309.518Z" fill="url(#paint4_linear_2_287)"/>
<path opacity="0.06" d="M158.99 310.259C159.074 294.697 137.293 281.964 110.339 281.818C83.386 281.672 61.4678 294.169 61.3836 309.731C61.2994 325.293 83.0811 338.027 110.034 338.173C136.988 338.319 158.906 325.822 158.99 310.259Z" fill="#16205C"/>
<path opacity="0.06" d="M483.048 241.322C483.132 225.76 461.35 213.026 434.397 212.88C407.444 212.735 385.525 225.232 385.441 240.794C385.357 256.356 407.139 269.09 434.092 269.236C461.045 269.382 482.963 256.884 483.048 241.322Z" fill="#16205C"/>
<path opacity="0.06" d="M366.527 424.67C366.611 409.108 344.829 396.374 317.876 396.228C290.923 396.082 269.004 408.58 268.92 424.142C268.836 439.704 290.618 452.438 317.571 452.584C344.524 452.729 366.442 440.232 366.527 424.67Z" fill="#16205C"/>
<path d="M375.416 345.338C375.422 357.413 371.847 369.218 365.143 379.26C358.439 389.302 348.907 397.131 337.752 401.755C326.598 406.378 314.323 407.59 302.48 405.236C290.637 402.883 279.759 397.069 271.22 388.532C262.682 379.994 256.867 369.116 254.513 357.273C252.158 345.43 253.369 333.155 257.992 322.001C262.614 310.846 270.442 301.313 280.484 294.608C290.525 287.903 302.33 284.327 314.405 284.332C322.429 284.289 330.381 285.837 337.803 288.888C345.224 291.938 351.967 296.43 357.641 302.104C363.315 307.777 367.807 314.52 370.858 321.941C373.91 329.362 375.459 337.314 375.416 345.338V345.338Z" fill="url(#paint5_linear_2_287)"/>
<path opacity="0.12" d="M283.933 306.915C288.714 307.193 293.411 308.264 298.103 309.093C306.293 310.531 314.592 311.261 322.907 311.277C325.715 311.277 328.68 311.156 331.047 309.65C336.154 306.401 335.823 298.954 334.721 293.013C334.374 291.16 333.944 289.197 332.621 287.88C330.926 286.226 328.307 286.085 325.94 286.053C314.247 285.896 302.381 285.959 291.128 289.139C283.093 291.412 273.882 295.679 268.561 302.391C259.759 313.423 277.252 306.527 283.933 306.915Z" fill="#16205C"/>
<path opacity="0.06" d="M375.421 347.642C374.863 362.537 368.871 376.712 358.576 387.491C348.281 398.271 334.396 404.908 319.543 406.15L316.73 406.318C316.73 406.318 316.73 406.318 316.688 406.318C315.948 406.35 315.202 406.36 314.457 406.36C300.818 406.383 287.569 401.815 276.843 393.392C311.25 398.745 331.315 371.26 345.595 357.588C355.11 348.487 367.906 347.374 375.421 347.642Z" fill="#16205C"/>
<path d="M365.922 378.045C361.521 384.977 355.766 390.95 349.003 395.606C342.239 400.262 334.606 403.506 326.56 405.142C324.938 403.153 324.665 399.159 324.723 396.803C324.765 394.824 325.106 392.804 324.576 390.899C324.345 390.075 323.957 389.324 323.81 388.458C323.253 385.388 325.841 382.737 328.197 380.706L327.814 383.268C330.259 381.555 332.902 380.145 335.686 379.069C337.786 378.25 339.995 377.636 342.042 376.67C344.979 375.293 347.557 373.254 349.573 370.714L352.087 372.766C352.449 373.116 352.893 373.368 353.379 373.5C354.575 373.726 355.578 372.383 355.562 371.154C355.546 369.926 354.901 368.829 354.433 367.696C353.966 366.562 353.693 365.192 354.381 364.179C355.562 364.788 356.438 365.843 357.273 366.861L362.059 372.629C363.518 374.307 364.811 376.12 365.922 378.045V378.045Z" fill="url(#paint6_linear_2_287)"/>
<path d="M359.094 325.678C358.458 325.129 357.741 324.681 356.968 324.35C356.182 324.108 355.361 323.998 354.539 324.025C351.944 324.006 349.354 324.263 346.813 324.791C344.215 323.337 343.858 318.598 340.882 318.609C340.259 318.653 339.651 318.821 339.093 319.102L333.414 321.516C332.979 321.7 332.485 321.952 332.391 322.414C332.244 323.112 333.068 323.579 333.75 323.783C336.81 324.705 340.004 325.103 343.197 324.959C344.184 326.439 345.769 327.394 347.002 328.675C348.235 329.955 349.138 331.908 348.314 333.487C349.734 333.356 351.158 333.708 352.352 334.488C353.547 335.267 354.443 336.428 354.895 337.781L352.161 338.405C354.869 337.88 357.667 338.206 360.406 338.531L361.981 338.72C363.046 338.781 364.092 339.036 365.067 339.471C365.591 339.754 366.116 340.142 366.641 340.42C368.851 341.538 371.737 340.594 373.847 341.89C373.847 341.89 373.149 337.906 372.855 337.361C371.822 335.653 370.467 334.161 368.866 332.968C365.733 330.464 362.29 328.171 359.094 325.678Z" fill="url(#paint7_linear_2_287)"/>
<path d="M320.671 316.714C320.801 316.673 320.94 316.673 321.07 316.714L323.169 317.344C323.467 316.996 323.618 316.546 323.59 316.089C323.563 315.631 323.359 315.203 323.022 314.893C322.667 314.601 322.243 314.406 321.79 314.328C321.338 314.25 320.872 314.291 320.44 314.447C319.578 314.764 318.808 315.291 318.199 315.979C317.293 316.868 316.59 317.942 316.137 319.128C315.809 320.193 315.618 321.295 315.57 322.408L315.166 327.037C315.132 327.192 315.131 327.353 315.163 327.508C315.194 327.663 315.258 327.811 315.349 327.94C315.48 328.038 315.63 328.107 315.789 328.142C315.949 328.176 316.114 328.175 316.273 328.139C316.955 328.087 317.758 327.956 318.063 327.342C318.246 326.98 318.21 326.497 318.509 326.224C318.902 325.851 319.558 326.129 319.999 326.413L321.254 327.19C321.49 327.378 321.786 327.475 322.088 327.462C322.791 327.342 322.744 326.287 322.356 325.689C321.967 325.09 321.401 324.429 321.668 323.768C321.836 323.343 322.288 323.122 322.655 322.854C322.997 322.599 323.284 322.276 323.498 321.906C323.712 321.537 323.848 321.127 323.899 320.703C324.277 317.391 320.818 320.991 319.879 320.787C318.519 320.493 319.537 317.144 320.671 316.714Z" fill="url(#paint8_linear_2_287)"/>
<path d="M309.975 322.246L306.034 319.868C305.278 319.411 304.459 318.908 304.123 318.094C304.022 317.742 303.882 317.402 303.703 317.081C303.475 316.825 303.17 316.651 302.833 316.585C302.497 316.519 302.148 316.564 301.84 316.714C301.223 317.027 300.685 317.476 300.266 318.026L293.259 326.014C292.424 326.777 291.775 327.722 291.363 328.776C290.951 329.83 290.786 330.964 290.882 332.091C290.772 335.072 290.908 338.589 293.369 340.273C299.006 337.166 306.301 338.568 311.959 335.503C312.127 334.099 312.039 332.677 311.702 331.304C311.641 330.867 311.457 330.455 311.172 330.118C310.833 329.858 310.451 329.659 310.043 329.53C308.915 329.005 307.377 327.578 307.456 326.213C307.487 325.741 310.001 322.246 309.975 322.246Z" fill="url(#paint9_linear_2_287)"/>
<path d="M333.913 345.338C335.415 344.466 336.852 343.486 338.211 342.404C338.473 342.719 338.295 343.197 338.075 343.548C336.815 345.574 334.6 347.033 333.944 349.322C333.75 349.993 333.629 350.807 333.005 351.122C332.773 351.221 332.522 351.27 332.27 351.263C330.213 351.332 330.517 349.626 331.042 348.193C331.567 346.76 332.664 346.041 333.913 345.338Z" fill="url(#paint10_linear_2_287)"/>
<path d="M311.613 347.626C309.991 347.967 308.369 348.571 306.716 348.408C305.96 348.335 305.194 348.104 304.449 348.261C303.924 348.366 303.441 348.655 302.927 348.571C302.412 348.487 302.108 348.151 301.657 348.046C300.528 347.81 299.442 349.227 298.376 348.791C297.894 348.592 297.568 348.046 297.054 347.999L295.059 351.395C295.443 352.161 296.513 352.287 297.342 352.056C298.172 351.825 298.917 351.342 299.788 351.258C301.216 351.122 302.496 352.108 303.903 352.418C306.684 353.032 309.576 350.943 312.326 351.678C312.499 351.754 312.686 351.794 312.875 351.794C313.064 351.794 313.25 351.754 313.423 351.678C313.576 351.548 313.705 351.394 313.806 351.221C314.049 350.965 314.346 350.768 314.677 350.646C315.007 350.523 315.361 350.477 315.711 350.513C316.415 350.513 317.108 350.697 317.811 350.676C317.902 350.698 317.999 350.693 318.087 350.661C318.176 350.629 318.253 350.572 318.309 350.496C318.366 350.42 318.398 350.33 318.403 350.236C318.407 350.141 318.384 350.048 318.336 349.967C317.632 347.437 313.696 347.191 311.613 347.626Z" fill="url(#paint11_linear_2_287)"/>
<path d="M323.453 347.437C323.051 347.392 322.644 347.435 322.261 347.563C322.072 347.631 321.909 347.758 321.797 347.925C321.684 348.093 321.628 348.291 321.637 348.492C321.694 348.902 322.104 349.196 322.162 349.6C322.155 349.795 322.167 349.99 322.198 350.182C322.246 350.285 322.319 350.373 322.411 350.439C322.503 350.504 322.611 350.544 322.723 350.555C322.944 350.586 323.169 350.586 323.39 350.555C323.5 350.529 323.614 350.532 323.723 350.563C323.831 350.594 323.93 350.653 324.009 350.733C324.145 350.922 324.061 351.179 324.009 351.405C323.956 351.631 324.077 351.93 324.308 351.93C324.394 351.918 324.474 351.882 324.539 351.825C324.843 351.61 325.185 351.3 325.116 350.943C325.09 350.817 325.017 350.707 324.98 350.586C324.956 350.528 324.951 350.463 324.965 350.401C324.979 350.339 325.012 350.283 325.059 350.24C325.111 350.209 325.171 350.191 325.232 350.188L326.203 350.056C326.265 350.053 326.326 350.031 326.376 349.993C326.404 349.947 326.422 349.895 326.428 349.841L326.602 348.597C326.639 348.453 326.639 348.301 326.602 348.156C326.502 347.905 326.203 347.81 325.94 347.747C325.125 347.553 324.291 347.449 323.453 347.437V347.437Z" fill="url(#paint12_linear_2_287)"/>
<path d="M328.9 347.091L328.019 346.293C327.977 346.257 327.919 346.22 327.872 346.241C327.856 346.247 327.843 346.257 327.832 346.27C327.821 346.283 327.813 346.298 327.809 346.314C327.597 346.855 327.562 347.448 327.709 348.009C327.862 348.567 327.943 349.142 327.95 349.72C327.908 350.176 327.783 350.621 327.583 351.032C327.525 351.158 327.473 351.311 327.552 351.416C327.601 351.467 327.665 351.501 327.735 351.515C328.015 351.604 328.308 351.647 328.601 351.641C328.737 351.652 328.872 351.621 328.99 351.552C329.079 351.469 329.147 351.367 329.19 351.253C329.233 351.139 329.249 351.017 329.236 350.896L329.357 348.671C329.397 348.39 329.377 348.104 329.298 347.832C329.219 347.56 329.084 347.307 328.9 347.091Z" fill="url(#paint13_linear_2_287)"/>
<path d="M268.844 327.399C268.246 329.226 269.07 331.189 269.894 332.931C271.421 336.227 272.975 339.56 275.263 342.378C277.772 345.464 281.073 347.831 283.571 350.917L284.841 348.639C284.888 348.834 284.975 349.017 285.097 349.177C285.218 349.337 285.37 349.47 285.545 349.568C285.72 349.667 285.913 349.728 286.112 349.749C286.311 349.77 286.513 349.749 286.704 349.689C287.061 349.528 287.341 349.233 287.484 348.868C287.626 348.503 287.619 348.097 287.465 347.737C289.832 347.962 286.416 343.942 286.006 343.265C284.601 341.029 283.001 338.921 281.225 336.967C277.7 333.067 273.507 329.827 268.844 327.399V327.399Z" fill="url(#paint14_linear_2_287)"/>
<path d="M286.583 305.372C285.376 306.648 283.865 307.802 283.434 309.497C283.141 310.673 283.403 311.933 283.078 313.098C282.81 314.069 282.149 314.877 281.666 315.764C279.33 320.057 281.377 325.316 283.434 329.751C280.981 328.678 278.862 326.963 277.302 324.787C275.742 322.611 274.798 320.054 274.57 317.386C272.345 316.488 270.025 318.309 268.319 320.01C266.521 321.794 264.716 323.575 262.903 325.353C261.467 326.679 260.169 328.147 259.03 329.735C257.735 331.676 256.933 333.904 256.694 336.226C256.454 338.547 256.784 340.892 257.655 343.057C258.526 345.222 259.912 347.142 261.693 348.651C263.473 350.159 265.595 351.211 267.873 351.715C267.375 356.36 266.913 361.288 268.923 365.513C270.854 369.564 274.937 372.655 275.531 377.111C276.024 380.848 273.888 384.375 271.857 387.534C271.664 387.851 271.447 388.151 271.206 388.432C264.195 381.393 259.008 372.749 256.096 363.25C253.184 353.751 252.635 343.686 254.497 333.927C256.359 324.168 260.575 315.011 266.78 307.251C272.984 299.492 280.989 293.365 290.1 289.402C292.136 293.973 290.053 301.714 286.583 305.372Z" fill="url(#paint15_linear_2_287)"/>
<path d="M460.027 247.093C460.654 184.411 373.148 132.718 264.577 131.632C156.006 130.547 67.4831 180.48 66.8563 243.161C66.2294 305.842 153.736 357.536 262.307 358.621C370.878 359.707 459.401 309.774 460.027 247.093Z" stroke="url(#paint16_linear_2_287)" stroke-width="2.06258" stroke-miterlimit="10" stroke-dasharray="4.96 4.96"/>
<path d="M141.872 217.741C141.872 218.508 141.872 219.274 141.82 220.03C141.274 234.929 135.286 249.112 124.988 259.894C114.691 270.677 100.799 277.312 85.9409 278.543C85.0172 278.622 84.0778 278.674 83.1331 278.706H83.0911C82.3511 278.742 81.6058 278.753 80.8606 278.753C68.3347 278.765 56.1094 274.917 45.8491 267.731C44.9639 267.112 44.0892 266.468 43.225 265.8C36.4238 260.478 30.8312 253.772 26.8175 246.125C22.8038 238.479 20.4608 230.067 19.9435 221.447C19.8701 220.224 19.8333 218.985 19.8333 217.741C19.7586 209.681 21.2815 201.686 24.3143 194.218C27.347 186.75 31.8294 179.957 37.5025 174.231C43.1756 168.505 49.927 163.96 57.3667 160.858C64.8064 157.756 72.787 156.159 80.8474 156.159C88.9079 156.159 96.8885 157.756 104.328 160.858C111.768 163.96 118.519 168.505 124.192 174.231C129.865 179.957 134.348 186.75 137.381 194.218C140.413 201.686 141.936 209.681 141.862 217.741H141.872Z" fill="url(#paint17_linear_2_287)"/>
<path d="M65.7559 226.506C65.6824 234.903 65.5302 243.616 61.6307 251.026C59.6469 254.794 56.7498 258.096 55.3328 262.105C53.9157 266.115 54.4773 271.379 58.1564 273.52C58.1338 273.786 58.0532 274.044 57.9202 274.276C53.6596 272.557 49.6096 270.356 45.8491 267.716C42.0651 263.591 38.7219 259.119 37.0005 253.85C36.044 250.769 35.5627 247.56 35.5729 244.335C35.5362 239.438 36.3707 234.52 35.7041 229.671C35.0376 224.821 32.4029 219.804 27.7739 218.209C26.1995 220.833 22.9508 221.882 19.954 221.447C19.8805 220.224 19.8438 218.985 19.8438 217.741C19.8193 202.563 25.4708 187.924 35.6884 176.7C42.4429 175.125 49.1345 175.703 47.7595 183.386C47.3029 185.921 44.9149 188.267 45.8176 190.676C46.3424 192.046 47.7857 192.87 48.4103 194.187C49.6699 196.811 47.1717 199.651 44.9149 201.535L35.9456 208.961C34.455 210.189 32.9173 211.496 32.1773 213.275C31.4373 215.054 31.8046 217.474 33.4946 218.392C35.3105 219.395 38.0134 218.476 39.3412 220.072C39.8293 220.654 39.9867 221.452 40.3909 222.087C41.4405 223.62 43.5871 223.719 45.4345 223.661L61.7672 223.137C63.0373 223.095 64.5225 223.137 65.2573 224.186C65.6588 224.89 65.833 225.7 65.7559 226.506V226.506Z" fill="url(#paint18_linear_2_287)"/>
<path d="M141.872 217.741C141.872 218.508 141.872 219.274 141.82 220.03C141.599 226.299 140.404 232.497 138.277 238.399L133.123 239.286C132.877 239.342 132.623 239.355 132.373 239.322C131.412 239.133 131.234 237.821 131.486 236.882C131.738 235.942 132.2 234.914 131.753 234.048C131.464 233.595 131.063 233.224 130.588 232.972L118.438 225.152C118.853 226.195 119.074 227.305 119.089 228.427C117.294 228.243 115.94 226.7 115.08 225.105C114.219 223.509 113.694 221.725 112.555 220.324C109.905 217.064 104.488 216.351 103.029 212.414C102.72 211.596 102.662 210.577 103.234 209.911C103.599 209.535 104.063 209.269 104.572 209.145C107.26 208.294 110.771 208.247 111.957 205.686C112.734 204.001 112.009 202.012 111.957 200.17C111.945 198.871 112.267 197.59 112.892 196.45C113.517 195.311 114.424 194.351 115.526 193.662C116.135 193.381 116.673 192.967 117.1 192.45C117.356 191.982 117.5 191.461 117.52 190.928C117.935 187.317 118.176 183.16 115.631 180.573C115.334 180.222 114.923 179.986 114.471 179.906C113.489 179.817 112.833 181.014 113.012 181.974C113.19 182.935 113.878 183.701 114.439 184.504C115.001 185.307 115.457 186.325 115.095 187.233C113.621 187.097 111.841 187.091 110.996 188.309C110.151 189.527 110.76 191.132 110.849 192.592C110.901 193.765 110.61 194.927 110.01 195.937C109.411 196.947 108.53 197.759 107.475 198.275C106.743 198.608 105.952 198.79 105.148 198.809C104.344 198.828 103.545 198.684 102.799 198.386C102.762 198.186 102.73 197.987 102.688 197.787C102.591 197.145 102.331 196.537 101.933 196.024C101.568 195.641 101.124 195.343 100.631 195.153C98.3322 194.166 95.7186 194.423 93.2309 194.129C90.7432 193.835 87.9826 192.618 87.3843 190.193C87.3163 189.964 87.3163 189.719 87.3843 189.49C87.5102 189.117 87.9091 188.912 88.224 188.687C90.0294 187.422 90.1291 184.362 88.4024 182.987C91.6389 182.07 94.8509 181.056 98.0383 179.943C99.0093 179.607 100.185 178.893 99.954 177.902C99.8437 177.419 99.0617 177.114 98.8728 177.576C98.4152 175.617 97.4588 173.809 96.0965 172.328C95.4782 171.76 94.9476 171.104 94.522 170.381C94.1651 169.62 94.1913 168.591 94.8526 168.071C95.5139 167.552 96.2697 167.704 96.9992 167.61C101.245 167.085 100.505 162.172 103.497 161.049C110.765 163.953 117.406 168.23 123.057 173.645C123.198 174.247 123.227 174.87 123.141 175.482C122.852 177.524 121.372 179.901 122.826 181.36L123.487 179.019L131.979 184.383C138.461 194.299 141.9 205.895 141.872 217.741V217.741Z" fill="url(#paint19_linear_2_287)"/>
<path opacity="0.06" d="M141.82 220.03C141.262 234.926 135.271 249.102 124.976 259.882C114.681 270.663 100.795 277.301 85.941 278.543L83.1331 278.706H83.0911C82.3511 278.742 81.6059 278.753 80.8606 278.753C67.222 278.776 53.9726 274.208 43.246 265.784C77.6539 271.138 97.7181 243.647 111.999 229.98C121.514 220.89 134.309 219.767 141.82 220.03Z" fill="#16205C"/>
<path opacity="0.29" d="M32.8751 196.234C36.4965 197.661 38.4541 203.581 35.4993 207.418C34.2763 208.98 32.8481 210.369 31.2534 211.548C28.1832 213.879 23.9058 208.992 24.3309 204.495C24.756 199.997 27.8158 194.229 32.8751 196.234Z" fill="#F0F9FD"/>
<path opacity="0.29" d="M70.7155 162.319C80.6295 160.12 87.085 172.233 79.7058 179.208C76.4197 182.205 72.7989 184.813 68.9153 186.981C61.0061 191.563 54.1046 194.15 48.3577 195.541C39.5091 197.682 33.2111 187.002 39.4356 180.358C47.7838 171.302 58.6962 165.009 70.7155 162.319V162.319Z" fill="#F0F9FD"/>
<path opacity="0.17" d="M60.2557 181.885C61.5993 184.808 63.9663 187.133 66.5222 189.107C69.2133 191.165 72.1593 192.868 75.2869 194.171C81.695 196.843 89.0742 197.976 94.0443 202.831C97.3245 206.027 99.0774 210.425 101.392 214.377C105.204 220.893 110.6 226.339 117.079 230.211C120.228 226.475 118.092 220.848 115.867 216.508L107.212 199.614C106.273 197.782 105.312 195.861 105.323 193.804C105.333 191.747 106.656 189.537 108.692 189.269C110.645 189.017 112.34 190.513 113.731 191.894C115.069 184.252 112.87 175.188 106.016 171.546C103.203 170.05 99.9486 169.646 96.7787 169.326C88.6963 168.533 51.3441 162.503 60.2557 181.885Z" fill="#16205C"/>
<path d="M497.145 168.35C497.12 183.844 491.182 198.745 480.544 210.011C469.905 221.276 455.368 228.057 439.901 228.968C424.433 229.88 409.2 224.854 397.312 214.916C385.424 204.978 377.778 190.877 375.933 175.493C374.088 160.108 378.184 144.6 387.385 132.133C396.587 119.666 410.199 111.181 425.444 108.409C440.689 105.638 456.417 108.789 469.417 117.22C482.417 125.651 491.71 138.726 495.397 153.775C496.564 158.545 497.151 163.439 497.145 168.35V168.35Z" fill="url(#paint20_linear_2_287)"/>
<path d="M497.145 168.35C497.149 179.388 494.158 190.22 488.49 199.691C482.823 209.163 474.691 216.92 464.963 222.134C462.722 221.909 460.575 220.633 458.612 219.395C453.621 216.246 447.948 211.265 449.622 205.592C449.953 204.484 450.567 203.387 450.373 202.248C450.11 200.674 448.478 199.782 447.113 198.937C440.291 194.738 436.753 185.879 438.758 178.132C439.026 177.083 439.435 176.002 440.333 175.419C441.23 174.837 442.337 174.894 443.382 174.894C447.316 174.806 451.099 173.368 454.099 170.822C455.432 169.677 456.607 168.318 458.14 167.468C462.297 165.164 467.634 167.253 472.153 165.783C479.427 163.406 484.749 145.84 493.755 152.327C494.351 152.757 494.898 153.252 495.387 153.801C496.556 158.562 497.146 163.447 497.145 168.35Z" fill="url(#paint21_linear_2_287)"/>
<path opacity="0.06" d="M497.14 170.643C496.582 185.538 490.59 199.714 480.295 210.494C470 221.273 456.115 227.91 441.261 229.151L438.453 229.319H438.411C437.671 229.351 436.926 229.361 436.181 229.361C422.542 229.384 409.293 224.816 398.566 216.393C432.974 221.746 453.038 194.26 467.319 180.594C476.834 171.504 489.629 170.375 497.14 170.643Z" fill="#16205C"/>
<path opacity="0.29" d="M392.599 145.415C396.221 146.847 398.178 152.762 395.223 156.604C393.999 158.164 392.571 159.553 390.978 160.734C387.907 163.065 383.63 158.178 384.055 153.681C384.48 149.183 387.519 143.415 392.599 145.415Z" fill="#F0F9FD"/>
<path d="M475.286 127.182C473.596 129.486 470.037 129.554 468.069 131.633C466.101 133.711 466.432 136.981 466.873 139.799C464.841 140.135 462.983 141.146 461.598 142.67C462.395 143.177 463.031 143.902 463.431 144.758C463.83 145.614 463.977 146.567 463.854 147.503C463.731 148.44 463.344 149.323 462.737 150.047C462.13 150.771 461.329 151.307 460.428 151.592C456.009 152.993 451.123 148.039 446.945 150.054C445.643 150.684 444.73 151.891 443.885 153.072C441.875 155.88 439.959 158.845 437.346 161.075C434.732 163.306 431.231 164.849 427.831 164.224C428.355 162.267 425.731 161.033 423.716 160.96C421.701 160.887 419.15 160.818 418.389 158.955C417.864 157.659 418.62 156.142 419.738 155.281C420.856 154.421 422.252 154.09 423.574 153.644C428.208 152.067 432.253 149.118 435.173 145.189C435.556 144.764 435.777 144.218 435.797 143.646C435.693 142.071 433.436 142.124 431.893 141.877C428.466 141.321 426.786 136.881 428.025 133.637C429.263 130.394 432.46 128.31 435.651 127.009C438.842 125.707 442.316 124.909 445.328 123.188C445.504 118.978 447.332 115.007 450.414 112.135C451.332 111.28 452.408 110.561 453.358 109.821C461.475 112.202 469.004 116.256 475.459 121.724C476.283 123.597 476.472 125.565 475.286 127.182Z" fill="url(#paint22_linear_2_287)"/>
<path opacity="0.17" d="M460.827 121.493C462.494 122.331 463.91 123.596 464.932 125.158C465.953 126.72 466.543 128.525 466.642 130.389C466.873 136.031 462.632 140.765 458.549 144.669C454.571 148.48 450.252 152.285 444.904 153.707C442.804 154.263 440.574 154.468 438.794 155.67C434.968 158.252 435.152 163.91 436.275 168.386C437.398 172.863 438.983 177.833 436.7 181.853C436.086 182.903 434.811 183.953 433.719 183.355C433.257 183.056 432.892 182.629 432.67 182.126C426.723 171.409 420.641 160.23 419.922 148.012C413.461 148.952 408.265 155.292 408.601 161.81C408.774 165.106 410.175 168.35 409.651 171.614C409.126 174.879 405.211 177.912 402.649 175.813C401.516 174.889 401.143 173.335 400.912 171.892C399.115 160.81 401.692 149.463 408.099 140.243C414.506 131.024 424.243 124.653 435.257 122.474C439.723 121.551 443.901 122.007 448.378 121.724C452.66 121.425 456.686 119.467 460.827 121.493Z" fill="#16205C"/>
<path opacity="0.29" d="M427.274 114.728C440.327 112.865 446.809 121.419 439.43 128.373C436.143 131.37 432.523 133.978 428.639 136.146C420.73 140.728 413.828 143.315 408.081 144.706C399.233 146.847 392.935 136.167 399.159 129.523C405.898 122.348 412.71 116.806 427.274 114.728Z" fill="#F0F9FD"/>
<path d="M319.569 270.545C319.569 270.545 294.046 258.998 288.284 261.035C282.521 263.071 278.464 284.332 278.464 284.332L311.392 290.262L319.569 270.545Z" fill="url(#paint23_linear_2_287)"/>
<path d="M248.533 230.117L251 253.209C251.117 254.295 251.638 255.297 252.459 256.017L271.032 272.25C271.754 272.881 272.689 273.213 273.647 273.177C274.605 273.142 275.513 272.743 276.186 272.061L297.972 252.611C298.318 252.302 298.595 251.924 298.785 251.501C298.975 251.077 299.073 250.619 299.073 250.155C299.073 249.691 298.975 249.232 298.785 248.809C298.595 248.386 298.318 248.007 297.972 247.699L285.15 236.173L281.833 212.304C281.783 211.948 281.647 211.61 281.436 211.319C281.225 211.028 280.947 210.793 280.625 210.633C280.303 210.474 279.947 210.396 279.588 210.405C279.229 210.415 278.877 210.512 278.564 210.688L250.344 226.574C249.728 226.923 249.228 227.444 248.906 228.074C248.585 228.703 248.455 229.414 248.533 230.117V230.117Z" fill="url(#paint24_linear_2_287)"/>
<path d="M251.252 229.104L253.719 252.196C253.836 253.282 254.356 254.284 255.178 255.004L273.751 271.237C274.473 271.867 275.408 272.198 276.366 272.163C277.323 272.128 278.231 271.729 278.905 271.048L299.62 252.154C299.966 251.845 300.242 251.467 300.431 251.044C300.621 250.62 300.718 250.162 300.718 249.698C300.718 249.235 300.621 248.776 300.431 248.353C300.242 247.93 299.966 247.551 299.62 247.242L286.799 235.754L283.471 211.874C283.422 211.517 283.286 211.178 283.076 210.887C282.866 210.595 282.587 210.359 282.264 210.199C281.942 210.04 281.585 209.962 281.226 209.972C280.866 209.982 280.515 210.08 280.201 210.257L253.078 225.561C252.461 225.909 251.959 226.43 251.635 227.059C251.31 227.689 251.177 228.4 251.252 229.104V229.104Z" fill="url(#paint25_linear_2_287)"/>
<path d="M258.106 251.567L283.933 237.632C284.173 237.501 284.368 237.301 284.493 237.058C284.619 236.815 284.668 236.54 284.636 236.268L282.054 214.335C282.032 214.11 281.953 213.894 281.827 213.707C281.7 213.52 281.528 213.367 281.328 213.263C281.127 213.159 280.904 213.106 280.678 213.11C280.452 213.114 280.23 213.175 280.033 213.286L254.238 227.776C254.002 227.909 253.812 228.108 253.689 228.349C253.567 228.59 253.519 228.862 253.55 229.13L256.117 250.528C256.144 250.746 256.224 250.956 256.35 251.137C256.476 251.318 256.643 251.466 256.839 251.568C257.035 251.671 257.252 251.724 257.473 251.723C257.693 251.723 257.911 251.669 258.106 251.567Z" fill="url(#paint26_linear_2_287)"/>
<path d="M331.881 275.536C331.881 275.536 330.779 284.185 328.612 290.231C327.772 292.582 326.769 294.545 325.615 295.479C321.469 298.791 309.87 302.522 295.988 300.654C287.468 299.542 278.879 299.041 270.287 299.153L258.326 321.254L254.548 320.377C254.548 320.377 256.82 294.965 258.893 290.268C260.966 285.57 280.023 280.6 280.023 280.6L302.564 275.536H331.881Z" fill="url(#paint27_linear_2_287)"/>
<path d="M319.097 210.735C319.097 210.735 307.068 214.629 303.116 215.983C293.097 219.447 294.75 247.636 294.75 247.636C294.75 247.636 296.004 260.415 296.004 264.603C296.004 269.474 294.771 283.886 294.771 283.886C294.771 283.886 310.988 285.985 317.449 282.311C322.067 279.662 326.894 277.396 331.882 275.536V216.624C331.882 216.624 326.854 209.554 319.097 210.735Z" fill="#F0F9FD"/>
<path opacity="0.26" d="M305.902 239.952V284.925L294.771 283.886L297.022 252.134L305.902 239.952Z" fill="url(#paint28_linear_2_287)"/>
<path d="M331.168 261.035C331.168 261.035 341.344 242.01 340.762 238.094C340.179 234.179 331.876 216.623 331.876 216.623L331.42 223.147V227.383L331.199 256.642L331.168 261.035Z" fill="#F0F9FD"/>
<path opacity="0.26" d="M331.598 255.975C334.427 250.202 336.579 244.886 336.243 242.603C335.917 240.404 334.206 236.242 331.761 231.056L331.598 255.975Z" fill="url(#paint29_linear_2_287)"/>
<path d="M307.398 214.183L307.252 208.111C307.252 208.111 302.344 208.174 301.762 207.586C301.179 206.998 300.665 201.771 300.712 200.8C300.759 199.829 301.683 197.651 301.809 196.407C301.935 195.163 300.969 194.596 301.032 193.562C301.095 192.529 302.796 187.889 302.796 187.889C302.796 187.889 321.789 188.603 322.046 192.413C322.304 196.223 319.013 205.733 319.013 205.733L318.803 211.107C318.803 211.107 315.344 217.348 307.398 214.183Z" fill="url(#paint30_linear_2_287)"/>
<path d="M303.2 183.69C303.2 183.69 307.703 183.302 309.403 182.672C311.104 182.042 318.656 181.218 321.269 185.144C323.883 189.07 323.547 190.088 323.547 190.088C323.547 190.088 325.122 193.237 324.23 196.339C323.337 199.441 319.013 205.733 319.013 205.733C319.013 205.733 316.284 207.523 315.118 206.311C313.953 205.098 310.222 198.317 308.138 199.43C306.055 200.543 305.913 202.002 305.913 202.002C305.913 202.002 305.672 197.835 305.236 196.753C304.8 195.672 303.394 194.812 304.071 192.555C304.748 190.298 305.719 189.7 304.989 189.458C304.26 189.217 303.068 189.311 302.795 187.884C302.523 186.456 302.328 184.11 303.2 183.69Z" fill="#222A72"/>
<path d="M307.713 200.322C307.713 200.322 308.842 199.598 309.03 200.495C309.219 201.393 309.135 203.088 308.374 203.461C308.187 203.574 307.972 203.633 307.753 203.633C307.533 203.633 307.318 203.574 307.131 203.461C307.065 202.383 307.265 201.305 307.713 200.322V200.322Z" fill="url(#paint31_linear_2_287)"/>
<path opacity="0.44" d="M318.845 209.974L320.545 210.604C320.545 210.604 320.739 214.335 317.443 215.353C314.148 216.372 308.847 216.03 305.897 214.65L307.393 214.183C307.393 214.183 317.15 214.965 318.845 209.974Z" fill="url(#paint32_linear_2_287)"/>
<path d="M254.543 320.367C254.543 320.367 244.445 324.151 244.602 325.547C244.76 326.943 256.065 327.399 256.065 327.399L258.327 321.248L254.543 320.367Z" fill="#222A72"/>
<path opacity="0.25" d="M295.815 269.589C295.815 269.589 286.368 270.198 284.752 279.561L295.306 277.205L295.815 269.589Z" fill="#16205C"/>
<path opacity="0.25" d="M328.612 290.262C327.772 292.614 326.77 294.577 325.615 295.511C321.469 298.822 309.87 302.554 295.988 300.686C287.469 299.563 278.88 299.051 270.287 299.153L258.327 321.254C258.484 320.577 263.496 298.817 266.761 296.975C270.025 295.133 298.455 296.361 304.669 294.697C310.883 293.034 328.612 290.262 328.612 290.262Z" fill="#16205C"/>
<path d="M270.319 251.446C268.944 250.742 267.473 250.245 265.952 249.971C265.767 249.903 265.57 249.872 265.373 249.88C265.176 249.888 264.982 249.935 264.803 250.018C264.472 250.234 264.472 250.879 264.866 250.932L259.969 250.522C259.795 250.483 259.615 250.481 259.44 250.517C259.265 250.554 259.1 250.627 258.956 250.732C258.844 250.867 258.778 251.034 258.765 251.209C258.753 251.384 258.796 251.559 258.888 251.708C259.078 252.005 259.328 252.257 259.623 252.448C259.486 252.343 259.271 252.49 259.256 252.664C259.258 252.838 259.323 253.006 259.439 253.136L260.095 254.091C261.486 256.122 263.087 258.29 265.475 258.904C267.228 259.345 269.191 258.857 270.823 259.639C271.112 259.833 271.456 259.929 271.804 259.911C272.182 259.833 272.403 259.45 272.565 259.098C273.064 257.996 274.077 255.681 273.615 254.464C273.153 253.246 271.337 252.034 270.319 251.446Z" fill="url(#paint33_linear_2_287)"/>
<path d="M309.125 229.351C309.125 229.351 297.72 270.009 290.903 271.048C284.085 272.088 270.723 263.176 270.723 263.176L273.83 253.729C273.83 253.729 285.329 260.484 286.573 257.728C287.817 254.973 297.726 222.097 297.726 222.097C297.726 222.097 306.501 216.755 309.125 229.351Z" fill="#F0F9FD"/>
<path d="M417.24 84.1932L415.666 90.7063C415.645 90.8771 415.603 91.0447 415.54 91.2049C415.325 91.8839 415.026 92.5329 414.648 93.1363L411.876 97.3349L407.153 92.5485L406.072 91.4621C406.072 91.4621 406.145 91.1262 406.287 90.5174C409.121 79.6744 411.268 74.1532 412.711 71.3348C414.154 68.5165 415.65 67.9392 415.939 67.9392H416.002C416.194 67.973 416.376 68.0533 416.53 68.1731C416.685 68.2929 416.808 68.4486 416.889 68.6267C417.229 69.3383 417.444 70.1037 417.524 70.8887C418.243 75.6122 417.24 84.1932 417.24 84.1932Z" fill="url(#paint34_linear_2_287)"/>
<path d="M432.365 133.511C427.301 135.684 406.843 141.279 406.843 141.279C406.843 141.279 405.904 143.578 406.649 147.713C407.394 151.849 404.959 158.771 403.5 165.453C403.054 167.593 402.901 169.784 403.043 171.966C403.248 174.863 403.935 176.689 403.474 177.025C401.459 178.435 399.303 179.629 397.039 180.589C395.585 180.982 395.748 181.318 392.583 183.145C389.419 184.971 384.858 183.942 383.95 181.943C383.042 179.943 393.397 174.364 393.922 172.91L432.365 133.511ZM393.922 172.863C394.447 170.654 394.352 136.052 396.651 133.716C398.225 132.142 412.616 122.726 421.748 116.838L429.232 112.02C429.232 112.02 434.481 113.416 436.055 118.255C437.63 123.094 437.483 131.375 432.381 133.511L393.922 172.863Z" fill="#151F5B"/>
<path d="M447.197 135.49C444.001 140.266 426.519 151.865 426.519 151.865C426.519 151.865 426.215 154.3 428.576 157.974C430.938 161.648 431.426 169.394 432.775 176.49C433.223 178.766 433.983 180.97 435.032 183.04C436.423 185.711 437.782 187.27 437.498 187.763C436.109 189.947 434.5 191.983 432.696 193.841C431.473 194.812 431.725 195.043 429.437 198.129C428.598 199.181 427.515 200.013 426.283 200.553C425.05 201.093 423.705 201.326 422.362 201.23H422.252C422.038 201.206 421.827 201.16 421.622 201.094C421.229 200.993 420.868 200.794 420.573 200.517C418.888 198.942 426.603 189.322 426.55 187.684V187.621C426.152 185.27 411.965 151.686 413.246 148.48C413.97 146.7 421.265 135.821 427.39 126.783C432.056 119.887 436.066 114.088 436.066 114.088C436.066 114.088 441.802 113.306 445.224 117.368C448.646 121.43 452.351 127.744 447.197 135.49Z" fill="#222A72"/>
<path d="M426.483 187.611C426.488 187.601 426.49 187.59 426.49 187.579C426.49 187.568 426.488 187.558 426.483 187.548C427.315 187.271 428.208 187.237 429.059 187.448C429.662 187.842 430.371 188.041 431.091 188.02C432.14 187.952 433.657 186.141 433.988 185.443C434.199 184.584 434.518 183.756 434.938 182.977C436.349 185.653 437.703 187.212 437.436 187.726C436.042 189.905 434.434 191.937 432.634 193.793C431.421 194.791 431.689 195.016 429.38 198.086C427.07 201.157 422.189 202.044 420.458 200.448C418.726 198.853 426.593 189.222 426.483 187.611Z" fill="#151F5B"/>
<path d="M448.793 85.8779C449.06 79.1863 448.845 75.5702 445.806 72.967C445.595 72.7782 445.373 72.6029 445.14 72.4422H445.056C441.689 70.7052 438.206 69.2024 434.633 67.9444C434.395 67.866 434.153 67.8012 433.908 67.7502C433.651 67.6925 433.331 67.598 433.021 67.535C431.709 67.2516 430.345 67.0102 429.075 66.6428C427.528 66.1789 425.928 65.9161 424.315 65.8608C423.344 65.7349 419.733 67.64 417.24 68.485C416.693 68.7348 416.203 69.0918 415.797 69.5347C414.638 70.6511 413.796 72.0545 413.356 73.6021C413.445 74.5993 413.561 75.7644 413.702 77.0397L413.807 78.0212C413.944 79.2912 414.112 80.6925 414.29 82.1253V82.4035C414.631 85.1536 415.015 88.1766 415.45 91.3256C415.671 92.8633 415.875 94.3906 416.048 95.8496C417.161 104.877 418.468 119.016 418.468 119.016C418.783 119.31 422.924 121.913 426.729 124.264C429.363 125.926 432.353 126.94 435.455 127.224C438.556 127.508 441.681 127.053 444.573 125.896H444.694C447.922 124.577 450.847 122.612 453.29 120.123C453.29 120.123 448.446 94.7003 448.793 85.8779ZM424.986 95.519C425.149 96.894 425.291 98.3478 425.443 99.8593C425.264 98.542 425.112 97.0725 424.986 95.519Z" fill="url(#paint35_linear_2_287)"/>
<path opacity="0.34" d="M418.536 118.926L414.337 82.3299V82.0255L413.854 77.9214L413.749 76.9295C413.603 75.6489 413.487 74.489 413.398 73.4918C413.842 71.9495 414.686 70.5518 415.844 69.4401L416.127 71.6024C415.618 73.6413 415.481 75.7552 415.723 77.8427L420.32 120.107C420.32 120.107 418.573 119.278 418.536 118.926Z" fill="white"/>
<path d="M419.051 112.209C419.185 112.272 419.305 112.362 419.405 112.473C419.504 112.584 419.58 112.714 419.629 112.854C419.678 112.995 419.699 113.144 419.689 113.293C419.68 113.441 419.641 113.587 419.575 113.72C419.491 113.897 419.361 114.047 419.198 114.156V114.156L398.446 128.237L375.894 116.775L398.168 101.628L419.051 112.209Z" fill="#169099"/>
<path d="M417.707 111.537C419.024 112.209 418.232 113.054 416.983 113.862L397.564 126.337L376.508 117L398.871 101.854L417.707 111.537Z" fill="#33BDD0"/>
<path d="M401.322 106.603L408.465 110.734L403.148 114.681L396.588 110.335L401.322 106.603Z" fill="#169099"/>
<path d="M391.581 108.257L392.484 108.787L407.415 118.255L397.118 124.526L383.677 113.62L391.581 108.257Z" fill="#169099"/>
<path d="M386.978 120.963L359.54 106.902C359.125 106.698 358.091 106.96 357.965 107.401C357.91 107.593 357.911 107.797 357.968 107.988C358.025 108.18 358.135 108.351 358.286 108.482L375.867 124.385C376.597 125.043 377.515 125.458 378.492 125.571L398.435 128.242L386.978 120.963Z" fill="#169099"/>
<path d="M359.099 107.165C359.12 107.08 359.174 107.006 359.248 106.959C359.322 106.912 359.412 106.896 359.498 106.913L381.378 112.991L397.569 126.353L379.41 124.19C378.291 124.001 377.25 123.497 376.408 122.737L359.193 107.49C359.149 107.45 359.117 107.398 359.101 107.341C359.084 107.284 359.083 107.223 359.099 107.165V107.165Z" fill="#33BDD0"/>
<path d="M361.261 107.805C361.274 107.782 361.292 107.761 361.313 107.745C361.334 107.728 361.359 107.716 361.385 107.709C361.411 107.702 361.438 107.701 361.464 107.705C361.491 107.709 361.516 107.718 361.539 107.732V107.732L380.197 113.027L395.071 125.098L379.137 122.863C378.454 122.747 377.818 122.437 377.305 121.97L361.267 108.062C361.247 108.044 361.231 108.021 361.221 107.997C361.21 107.972 361.205 107.945 361.205 107.918C361.205 107.891 361.21 107.864 361.221 107.84C361.231 107.815 361.247 107.792 361.267 107.774V107.774L361.261 107.805Z" fill="#69D7E0"/>
<path d="M453.348 120.002C447.323 125.88 442.127 126.3 442.127 126.3C441.593 126.182 441.098 125.933 440.684 125.576C438.359 123.797 444.169 115.447 444.741 113.993C449.942 100.809 440.794 101.072 441.014 91.6299C441.151 89.0096 441.019 86.3823 440.621 83.7889C440.362 82.2916 439.914 80.8332 439.288 79.4486C438.981 78.7856 438.63 78.1439 438.238 77.5277C434.244 71.1563 426.429 68.7106 418.368 68.5426C418.001 68.5426 416.878 68.6686 416.867 68.6686C416.76 68.4795 416.608 68.3191 416.425 68.2012C416.243 68.0833 416.034 68.0114 415.817 67.9915C418.232 67.0573 424.362 65.105 429.096 66.6742C430.376 67.0049 431.767 67.241 433.058 67.5612C433.583 67.6819 434.108 67.8026 434.601 67.9443C438.186 69.2096 441.679 70.7212 445.056 72.4683V72.4683C445.313 72.6468 445.581 72.841 445.78 73.0299C448.845 75.6541 449.029 79.2649 448.735 85.9565C448.373 94.7001 453.348 120.002 453.348 120.002Z" fill="url(#paint36_linear_2_287)"/>
<path d="M398.614 105.417C398.518 106.341 398.274 107.243 397.89 108.089C397.265 109.401 394.998 111.826 394.169 111.705C393.339 111.584 395.245 109.112 394.746 108.75C394.247 108.388 391.182 109.941 390.595 110.324C390.007 110.708 389.807 112.356 389.062 112.356C388.317 112.356 387.823 111.358 388.574 108.682C389.324 106.005 389.928 104.709 391.077 103.622C392.227 102.536 397.034 100.951 397.034 100.951C397.034 100.951 400.913 96.6107 404.424 93.0786V93.1783C405.686 95.4569 407.622 97.2899 409.966 98.4266V98.4266L398.614 105.417Z" fill="url(#paint37_linear_2_287)"/>
<path d="M399.921 104.74L397.024 100.652L395.859 101.371C396.383 102.095 398.693 105.533 398.693 105.533L399.921 104.74Z" fill="#3A4D57"/>
<path d="M397.081 103.297C397.353 103.299 397.62 103.22 397.847 103.071C398.075 102.921 398.253 102.707 398.358 102.457C398.464 102.206 398.493 101.929 398.442 101.662C398.39 101.395 398.261 101.149 398.069 100.955C397.878 100.762 397.634 100.629 397.367 100.575C397.1 100.52 396.823 100.546 396.571 100.649C396.32 100.752 396.104 100.927 395.952 101.153C395.799 101.379 395.718 101.645 395.717 101.917V101.917C395.721 102.279 395.867 102.624 396.125 102.879C396.382 103.133 396.73 103.276 397.092 103.276V103.276L397.081 103.297Z" fill="#3A4D57"/>
<path d="M396.966 102.914C397.251 102.902 397.521 102.778 397.717 102.571C397.913 102.363 398.02 102.087 398.015 101.801C398.006 101.526 397.893 101.264 397.698 101.069C397.503 100.874 397.241 100.761 396.966 100.752H396.824C396.552 100.77 396.296 100.889 396.107 101.086C395.918 101.284 395.809 101.544 395.802 101.817C395.795 102.09 395.89 102.356 396.068 102.562C396.246 102.769 396.495 102.902 396.766 102.935H396.971L396.966 102.914Z" fill="#52666F"/>
<path d="M431.599 105.69C431.599 105.69 416.316 111.143 415.361 111.589C414.406 112.035 414.091 113.515 413.041 114.78C411.992 116.045 409.667 116.769 409.068 116.465C408.47 116.16 410.375 114.366 410.317 114.014C410.26 113.662 408.638 114.087 407.551 114.539C406.465 114.99 403.988 116.942 403.437 116.061C402.886 115.179 405.368 110.718 406.838 109.558C408.307 108.398 412.186 107.837 413.592 107.385C414.815 106.992 426.613 100.158 430.177 98.0538L433.247 105.401L431.599 105.69Z" fill="url(#paint38_linear_2_287)"/>
<path d="M433.095 68.128C433.033 68.4773 432.907 68.8119 432.722 69.1147C431.757 70.8992 429.101 73.5705 426.152 73.3658L425.585 73.2871C421.727 72.5209 421.386 70.0909 421.076 66.6113C420.95 65.2835 422.52 64.1656 424.53 63.2996C426.921 62.3356 429.401 61.6096 431.935 61.1321C431.631 62.5753 432.88 65.7558 433.064 67.4668C433.108 67.6842 433.119 67.9073 433.095 68.128V68.128Z" fill="url(#paint39_linear_2_287)"/>
<path d="M426.162 73.3659L425.6 73.2872C421.738 72.5314 421.402 70.091 421.087 66.6218C420.961 65.2835 422.53 64.1656 424.54 63.2997C425.353 63.7739 425.958 64.5363 426.235 65.4357C426.565 66.6487 426.656 67.9143 426.503 69.162C426.388 70.2484 426.377 71.3348 426.325 72.4317C426.316 72.7493 426.261 73.064 426.162 73.3659Z" fill="url(#paint40_linear_2_287)"/>
<path d="M423.963 44.0175C425.051 43.5496 426.236 43.3516 427.417 43.4402C428.214 43.6082 428.613 44.3324 429.343 44.4899C430.314 44.7313 431.442 44.5424 432.292 45.0934C432.92 45.5708 433.416 46.1991 433.736 46.9198C434.611 48.5281 435.051 50.3374 435.011 52.1681C434.869 54.6296 433.137 59.0801 433.137 59.0801C432.203 60.8507 431.166 62.5646 430.03 64.213C429.065 65.3886 426.761 68.2227 422.599 68.3591C418.437 68.4956 416.217 61.3212 416.096 59.8569C415.975 58.3926 416.337 57.6946 416.248 56.9703C416.096 55.9574 415.692 55.0127 415.639 53.984C415.595 52.9776 415.774 51.9739 416.164 51.045C416.222 50.9306 416.27 50.8112 416.306 50.6881C417.882 47.5446 420.633 45.1482 423.963 44.0175V44.0175Z" fill="url(#paint41_linear_2_287)"/>
<path d="M434.501 56.8023C433.914 58.3191 433.137 61.5258 431.945 61.1899C431.945 61.1899 430.896 57.768 432.255 57.3744C433.614 56.9808 433.452 52.2573 432.024 53.223C431.778 53.3914 431.577 53.6164 431.436 53.879C431.394 53.9416 431.359 54.0084 431.331 54.0785C430.985 54.7975 430.922 55.7159 430.602 56.5714C429.71 54.3514 428.125 50.5044 424.829 52.4043C424.829 52.4043 424.551 51.8794 424.64 51.806C424.01 52.2678 423.364 52.7506 422.74 53.2492C422.124 53.847 421.309 54.1965 420.452 54.2307C419.559 54.1572 418.877 53.0865 419.439 52.4462H417.025C416.559 52.3946 416.133 52.1619 415.839 51.7984C415.544 51.435 415.404 50.9701 415.45 50.5044V50.5044C415.061 50.5468 414.668 50.4983 414.301 50.3627C413.701 50.1324 413.217 49.6738 412.956 49.0874C412.694 48.501 412.676 47.8347 412.905 47.2347C413.181 46.4253 413.533 45.6435 413.954 44.8992C415.592 42.2278 418.888 41.0574 421.974 40.4959C423.179 40.2162 424.426 40.1734 425.647 40.3699C426.27 40.4704 426.859 40.7213 427.363 41.1008C427.867 41.4804 428.271 41.9771 428.539 42.548C429.349 42.3363 430.198 42.3296 431.011 42.5284C431.824 42.7273 432.574 43.1254 433.195 43.6868C434.775 45.2254 435.82 47.2307 436.176 49.4075C436.585 51.9582 435.609 53.9263 434.501 56.8023Z" fill="#222A72"/>
<path d="M431.347 55.2331C431.269 55.4063 431.116 55.8419 431.5 55.6162C431.558 55.5827 431.622 55.5596 431.688 55.548C431.492 55.8638 431.384 56.226 431.374 56.5976C431.378 56.6985 431.399 56.7979 431.437 56.8915C431.454 56.9404 431.484 56.9837 431.524 57.0169C431.563 57.0502 431.611 57.0721 431.662 57.0805C431.723 57.078 431.783 57.0633 431.838 57.0371C431.893 57.011 431.942 56.9739 431.982 56.9283C432.126 56.8316 432.241 56.6973 432.314 56.54C432.387 56.3828 432.416 56.2085 432.397 56.0361L432.481 54.9497C432.497 54.8611 432.497 54.7705 432.481 54.682C432.465 54.5841 432.427 54.491 432.371 54.4091C432.336 54.3468 432.28 54.2986 432.213 54.2726C432.138 54.2773 432.064 54.2974 431.996 54.3317C431.928 54.366 431.868 54.4137 431.82 54.4721C431.634 54.7072 431.476 54.9625 431.347 55.2331V55.2331Z" fill="url(#paint42_linear_2_287)"/>
<path d="M417.618 50.9084C417.26 51.1867 416.855 51.3983 416.422 51.533C416.075 51.7009 415.781 51.6379 416.212 52.105C416.642 52.5721 417.209 52.4252 417.618 52.4304H418.815C418.917 52.4457 419.022 52.4387 419.122 52.4097C419.222 52.3807 419.314 52.3305 419.392 52.2625C419.493 52.107 419.541 51.9228 419.529 51.7376C419.727 51.0345 420.027 50.3643 420.421 49.7485C420.457 49.6911 420.476 49.6247 420.476 49.557C420.476 49.4893 420.457 49.4229 420.421 49.3654C420.378 49.2841 420.305 49.2227 420.218 49.1942C420.131 49.1658 420.036 49.1726 419.954 49.2132C419.383 49.2986 418.85 49.5505 418.421 49.9375C418.133 50.2366 417.912 50.583 417.618 50.9084Z" fill="#151F5B"/>
<path d="M416.022 49.4285C415.739 49.7381 415.497 50.4309 415.13 50.6093C414.18 51.0502 412.92 49.7854 412.679 48.9876C412.605 48.8099 412.59 48.6129 412.637 48.426C412.663 48.3332 412.718 48.2509 412.793 48.1907C412.868 48.1305 412.961 48.0953 413.057 48.0902C413.17 48.0909 413.283 48.105 413.393 48.1321C413.74 48.2047 414.102 48.1488 414.411 47.9747C414.885 47.7596 415.335 47.4958 415.754 47.1875C416.022 46.966 416.323 46.7888 416.647 46.6626C416.813 46.6113 416.991 46.6093 417.159 46.6568C417.326 46.7043 417.477 46.7993 417.591 46.9303C417.665 47.1023 417.69 47.2913 417.663 47.4765C417.636 47.6617 417.559 47.8359 417.439 47.9799C417.003 48.497 416.53 48.9812 416.022 49.4285V49.4285Z" fill="#151F5B"/>
<path d="M434.517 56.7236C433.924 58.2456 433.137 61.4471 431.956 61.1164C431.956 61.1164 430.906 57.6945 432.266 57.3009C433.625 56.9073 433.468 52.1891 432.035 53.1495C431.791 53.3226 431.59 53.5487 431.447 53.8108C431.556 53.5938 431.686 53.3881 431.835 53.1967C432.166 52.6881 432.641 52.2897 433.2 52.0526C433.487 51.9755 433.765 51.8682 434.029 51.7325C434.452 51.3976 434.764 50.9418 434.921 50.4256C435.004 50.1749 435.14 49.9456 435.322 49.7541C435.503 49.5626 435.725 49.4138 435.971 49.3183C436.042 49.3024 436.115 49.3024 436.186 49.3183C436.585 51.9582 435.609 53.9263 434.517 56.7236Z" fill="#151F5B"/>
<path d="M446.504 84.1144C444.09 89.1265 436.464 103.491 436.464 103.491C436.464 103.491 432.308 107.349 431.321 106.556C430.334 105.764 426.367 97.0042 426.367 97.0042L428.298 95.0991C428.298 95.0991 428.823 94.527 433.221 86.135C437.619 77.743 440.348 73.1192 442.484 72.4894C444.62 71.8596 448.137 73.2189 448.089 75.3812C448.1 75.3917 448.929 79.1075 446.504 84.1144Z" fill="url(#paint43_linear_2_287)"/>
<path d="M424.844 97.7705C424.844 97.7705 429.93 107.244 430.822 107.322C431.715 107.401 434.255 105.879 434.255 105.879L428.298 95.0834L424.844 97.7705Z" fill="url(#paint44_linear_2_287)"/>
<path d="M412.181 96.7366C411.939 97.2291 411.641 97.6922 411.294 98.1169C411.131 98.3162 410.909 98.4589 410.66 98.5249C410.412 98.5909 410.148 98.5767 409.908 98.4843C407.576 97.342 405.652 95.5096 404.397 93.236V93.1258C404.555 91.6825 406.25 90.5909 406.25 90.5909C406.329 90.7503 406.424 90.9014 406.533 91.0422C406.894 91.5234 407.281 91.9842 407.693 92.4225C409.198 93.844 410.784 95.1775 412.443 96.4165C412.39 96.5476 412.299 96.6594 412.181 96.7366Z" fill="url(#paint45_linear_2_287)"/>
<path opacity="0.34" d="M398.204 135.107C396.84 137.432 395.129 173.094 395.129 173.094L393.927 172.9V172.847C394.452 170.638 394.363 136.031 396.661 133.695C398.236 132.121 409.394 124.773 418.51 118.926L420.289 120.102C420.289 120.102 399.559 132.813 398.204 135.107Z" fill="white"/>
<path opacity="0.34" d="M415.067 148.558C415.067 150.343 429.075 187.443 429.075 187.443C429.075 187.443 423.302 197.173 422.84 198.029C422.378 198.884 421.669 200.816 422.116 201.146L421.591 201.02C421.198 200.923 420.836 200.726 420.541 200.448C418.856 198.874 426.571 189.248 426.508 187.611C426.513 187.601 426.516 187.59 426.516 187.58C426.516 187.569 426.513 187.558 426.508 187.548C426.115 185.197 411.923 151.613 413.214 148.406C413.939 146.627 422.368 134.152 428.498 125.109L430.455 125.943C430.455 125.943 415.015 146.758 415.067 148.558Z" fill="white"/>
<path opacity="0.34" d="M415.828 69.4716L414.254 71.3348C413.237 72.5792 412.495 74.0243 412.076 75.5754L407.625 92.37L406.219 90.4858C409.042 79.6376 411.189 74.1164 412.643 71.298C414.096 68.4797 415.571 67.9076 415.865 67.9076H415.917C416.111 67.9416 416.294 68.0225 416.45 68.1432C416.605 68.264 416.729 68.4209 416.81 68.6004V68.6004L415.828 69.4716Z" fill="white"/>
<path d="M119.021 209.78L121.488 216.692C121.488 216.692 131.895 219.001 135.658 217.39C139.421 215.778 137.626 214.949 137.626 214.949C137.626 214.949 131.375 213.537 129.517 211.8C128.406 210.745 127.391 209.593 126.484 208.357L119.021 209.78Z" fill="url(#paint46_linear_2_287)"/>
<path d="M96.5685 90.5594C96.8519 91.1735 97.4345 91.6091 97.7651 92.1969C98.0078 92.782 98.0871 93.422 97.9947 94.0486C97.9022 94.6753 97.6415 95.2651 97.2403 95.7552C96.537 96.8049 95.5608 97.6971 94.9415 98.7677C94.71 99.2781 94.4212 99.7606 94.0808 100.206C93.9034 100.424 93.6616 100.58 93.39 100.651C93.1184 100.723 92.831 100.707 92.5693 100.605C92.2053 100.352 91.94 99.9811 91.8188 99.555C90.5473 96.3017 88.4378 93.4427 85.7045 91.2679C83.2693 89.3628 76.7824 84.2982 80.981 80.9288C82.6658 79.6167 85.3949 80.8448 87.3787 80.8448C98.4631 80.85 96.0437 89.431 96.5685 90.5594Z" fill="url(#paint47_linear_2_287)"/>
<path d="M88.397 116.234C88.0821 117.73 83.1488 117.567 81.3276 117.41C79.5064 117.252 72.9303 111.4 74.5363 110.681C79.6744 108.393 77.9477 101.633 77.9477 101.633C79.9739 102.264 81.9134 103.145 83.7208 104.257C83.9937 104.415 84.2456 104.583 84.4661 104.719C87.1427 106.378 87.1637 107.06 87.1637 107.06C87.1637 107.06 85.9881 108.404 86.8908 109.495C87.6686 110.561 88.1552 111.811 88.3026 113.122C88.4803 114.15 88.5121 115.197 88.397 116.234V116.234Z" fill="url(#paint48_linear_2_287)"/>
<path d="M88.313 113.012C88.0708 113.156 87.7972 113.239 87.5157 113.255C87.2343 113.27 86.9532 113.217 86.6966 113.101C85.5037 112.627 84.4876 111.795 83.789 110.718C83.5252 110.345 83.3117 109.939 83.1539 109.511C83.0716 109.165 83.012 108.815 82.9755 108.461C82.7971 106.861 82.3037 104.877 84.4135 104.667C87.0902 106.32 87.1059 107.013 87.1059 107.013C87.1059 107.013 85.9303 108.346 86.8435 109.437C87.6262 110.486 88.1317 111.716 88.313 113.012Z" fill="url(#paint49_linear_2_287)"/>
<path d="M140.13 216.718C141.494 218.959 134.115 221.615 131.659 221.284C129.203 220.953 126.626 219.274 124.836 218.88C123.046 218.487 121.85 218.97 121.22 218.041C121.052 217.757 120.569 216.938 119.934 215.8C123.424 216.55 131.858 218.125 134.105 216.729C135.495 215.784 136.068 215.012 136.078 214.272C138.057 215.18 139.647 216.004 140.13 216.718Z" fill="url(#paint50_linear_2_287)"/>
<path d="M110.55 152.615L107.679 154.226L103.843 156.326L103.743 156.378L103.649 156.032L103.208 154.531C103.208 154.531 99.6967 150.301 97.0515 147.215C96.2171 146.249 95.4351 145.388 94.8787 144.8C92.5957 142.407 97.5291 134.86 99.6914 138.628C102.867 144.223 105.947 151.167 106.792 151.749C107.637 152.332 110.55 152.615 110.55 152.615Z" fill="url(#paint51_linear_2_287)"/>
<path d="M113.101 157.79C113.101 157.79 113.411 158.96 112.629 159.291L111.841 159.59C111.807 159.758 111.732 159.914 111.623 160.046C111.514 160.177 111.375 160.28 111.217 160.346C111.085 160.422 110.931 160.451 110.78 160.428C110.629 160.405 110.491 160.332 110.388 160.22C110.388 160.22 110.235 160.908 109.695 160.881C109.41 160.89 109.131 160.803 108.902 160.635C108.902 160.635 108.902 161.821 108.099 161.616C107.417 161.441 106.828 161.008 106.457 160.409C107.069 159.138 108.148 158.153 109.469 157.659C111.17 157.176 111.705 156.719 112.167 156.924C112.516 157.169 112.83 157.461 113.101 157.79Z" fill="url(#paint52_linear_2_287)"/>
<path opacity="0.17" d="M107.679 154.227L103.838 156.399C103.762 156.308 103.696 156.209 103.638 156.105L103.197 154.604C103.197 154.604 97.8966 148.306 95.2042 145.22C95.9668 144.797 96.8047 144.526 97.6709 144.423C98.7206 144.575 106.352 153.597 107.732 154.3C107.679 154.227 107.674 154.237 107.679 154.227Z" fill="url(#paint53_linear_2_287)"/>
<path d="M101.161 140.423C101.087 140.624 101.002 140.821 100.904 141.011C100.266 142.508 99.1007 143.718 97.6289 144.412C96.8289 144.742 96.0042 145.009 95.1622 145.21C94.9744 145.273 94.7777 145.305 94.5797 145.304C94.5797 145.304 93.2938 143.95 92.2232 142.544C91.6491 141.877 91.1705 141.133 90.8009 140.334C90.5332 139.51 91.1998 135.826 91.8191 132.987C91.8821 132.588 91.9975 132.22 92.0762 131.869C92.3754 130.467 92.6011 129.465 92.6011 129.465L95.5506 123.603C95.5506 123.603 95.8393 124.825 96.2906 126.494C96.4848 127.292 96.7157 128.195 96.9729 129.119L97.461 131.018C97.8955 132.629 98.4123 134.216 99.0092 135.773C99.9487 137.988 101.161 140.423 101.161 140.423Z" fill="url(#paint54_linear_2_287)"/>
<path d="M126.689 208.494C126.22 208.815 125.731 209.104 125.224 209.36C123.65 210.173 121.026 211.076 118.926 209.722L108.572 184.457C107.884 182.95 105.354 180.284 103.733 179.969L79.0656 176.616L75.628 141.935L87.1165 142.985C87.1165 142.985 89.9821 150.427 92.5065 157.995C93.3305 160.461 114.985 160.908 118.706 177.718C119.871 183.055 126.689 208.494 126.689 208.494Z" fill="#151F5B"/>
<path d="M125.167 233.024C124.93 233.311 124.634 233.543 124.301 233.707L122.81 234.426C121.892 234.862 120.839 234.918 119.88 234.582C118.921 234.245 118.133 233.544 117.688 232.631V232.631L117.609 232.452C114.03 223.95 105.333 203.692 103.208 201.902C100.526 199.64 89.6881 195.079 83.789 190.261C79.8728 186.917 76.4361 183.05 73.5758 178.768L67.4931 167.31C67.4931 167.31 67.0522 166.093 66.6376 164.844C66.2634 163.944 66.0144 162.998 65.8976 162.031C66.1023 161.805 73.8278 153.854 73.8278 153.854L78.9449 154.972C78.9449 154.972 82.8863 159.627 87.9982 165.605C96.8206 175.933 109.075 190.309 110.309 191.458C112.967 194.229 115.301 197.292 117.268 200.59C117.971 202.107 122.815 223.473 125.618 230.505C125.775 230.927 125.815 231.383 125.736 231.826C125.657 232.269 125.46 232.683 125.167 233.024V233.024Z" fill="#222A72"/>
<path d="M93.9444 161.354C93.7929 161.779 93.5864 162.183 93.3304 162.556C93.0358 163.041 92.7078 163.506 92.3489 163.946C90.8742 165.752 88.5334 167.809 85.8988 168.05C85.7997 168.066 85.6987 168.066 85.5996 168.05C85.3116 168.077 85.0217 168.077 84.7336 168.05C82.8917 167.758 81.195 166.873 79.9 165.531C79.6061 165.248 79.3174 164.964 79.055 164.671C78.3517 163.957 77.6694 163.227 77.0501 162.487C76.2207 161.461 75.2015 160.604 74.0481 159.963C72.1535 159.128 69.3246 160.32 67.4667 161.343L67.3198 161.422C66.711 161.758 66.2701 162.109 65.8765 162.283L65.4986 162.561C65.9616 160.633 66.5866 158.747 67.367 156.924C68.7211 153.675 70.2588 150.899 70.9411 149.456C71.9908 147.209 71.5604 142.035 71.193 138.933C71.1394 138.064 70.7476 137.25 70.1014 136.666L69.8652 136.456C69.7865 136.382 69.4663 136.141 69.2512 135.994C67.9051 135.059 66.761 133.864 65.887 132.478C65.1317 131.265 64.5687 129.942 64.218 128.557C63.726 126.744 63.5084 124.867 63.5725 122.989C63.5915 121.929 63.7684 120.878 64.0973 119.871C64.2015 119.562 64.3444 119.268 64.5224 118.995V118.995V118.921C65.9237 116.89 72.0747 112.419 73.9694 111.085L74.5257 110.692L74.8459 110.896L75.8273 111.574C76.4396 112.025 77.0309 112.506 77.6012 113.017C79.3331 114.502 81.3223 117.284 86.3186 115.741C88.2658 115.127 87.7357 112.24 87.2423 110.603L87.2003 110.477L87.1216 110.246C87.0849 110.12 87.0377 109.989 86.9904 109.863L86.9432 109.716L86.8802 109.563L86.8382 109.464L87.6727 109.579C89.1002 109.805 91.9081 110.498 92.7478 112.088C93.8657 114.187 95.7761 122.264 96.5791 124.81C97.0679 126.225 97.1765 127.743 96.894 129.213C96.621 130.407 96.1491 131.546 95.4979 132.582V132.582C94.6212 133.923 93.8441 135.327 93.1729 136.781C93.178 136.791 93.1806 136.802 93.1806 136.813C93.1806 136.824 93.178 136.834 93.1729 136.844C92.7211 137.966 92.4398 139.15 92.3384 140.355C92.2589 141.092 92.2291 141.834 92.2492 142.575C92.2492 143.866 92.3122 145.262 92.4119 146.732C92.4487 147.257 92.4906 147.782 92.5431 148.306L92.6061 149.057C93.1677 154.741 94.1806 160.409 93.9444 161.354Z" fill="url(#paint55_linear_2_287)"/>
<path opacity="0.34" d="M75.8695 111.542L69.6293 116.974L64.0766 120.123C64.0766 120.123 64.0031 120.123 64.0399 119.845C64.1592 119.542 64.3013 119.249 64.465 118.968V118.968V118.905C65.8768 116.885 72.0278 112.408 73.9119 111.075L74.4367 110.676L74.7516 110.886L75.7383 111.558L75.8695 111.542Z" fill="white"/>
<path opacity="0.34" d="M93.152 136.786C92.6931 137.91 92.4082 139.098 92.307 140.308C92.2545 140.99 92.223 141.735 92.2283 142.528C92.2283 143.819 92.2808 145.215 92.3805 146.679C92.4277 147.204 92.4697 147.729 92.5222 148.254C92.5175 148.507 92.5368 148.76 92.5799 149.01C93.1467 154.783 94.1544 160.44 93.9287 161.375C94.0284 160.698 86.1402 153.544 92.9368 133.002C93.026 132.729 92.2808 132.908 91.8451 133.039C90.4296 133.484 89.0768 134.109 87.8197 134.897C87.8197 134.897 89.919 132.456 92.0918 131.921C92.1502 131.897 92.2123 131.883 92.2755 131.879C94.4326 131.459 95.8968 128.84 96.2957 126.557L96.3587 126.347C96.7103 123.991 93.3199 114.072 92.2335 112.744C91.1471 111.416 87.3264 110.645 87.3264 110.645L87.2949 110.524L87.2109 110.298L87.0902 109.915L87.0272 109.752L86.9747 109.605L86.9275 109.5L87.7567 109.626C89.1895 109.831 92.0026 110.529 92.8423 112.125C93.9707 114.224 95.8706 122.301 96.6841 124.81C97.1658 126.228 97.2778 127.745 97.0095 129.218C96.7258 130.406 96.2451 131.538 95.5872 132.567C94.7059 133.923 93.9253 135.342 93.2517 136.813L93.152 136.786Z" fill="white"/>
<path d="M78.9711 164.686C77.1447 162.802 75.5912 160.708 73.959 159.963C70.894 158.604 65.4148 162.587 65.4148 162.587C66.7163 157.202 69.8863 151.676 70.9202 149.466C71.9541 147.257 71.529 141.982 71.1931 138.886C71.1353 138.02 70.7485 137.208 70.112 136.618L69.8706 136.408C70.2694 134.309 70.6736 132.21 71.0252 130.058C71.2557 127.964 71.8695 125.931 72.8359 124.059C74.72 125.891 76.7878 127.964 77.1132 130.604C77.2812 132.068 76.898 133.569 77.003 135.039C77.2129 138.287 79.7059 141.09 79.8371 144.354C79.9473 147.251 78.1839 149.844 77.4229 152.631C76.263 156.929 78.1681 159.679 78.9134 163.652C78.9896 163.991 79.0091 164.341 78.9711 164.686Z" fill="url(#paint56_linear_2_287)"/>
<path d="M92.8058 90.066C93.2467 91.8976 92.4752 94.3696 92.5434 95.1778C92.8059 96.15 92.9417 97.1519 92.9475 98.1589C92.8478 99.4604 92.344 106.351 90.8954 107.133C89.4469 107.915 81.9208 106.052 80.4828 104.698C79.5182 103.758 78.6754 102.7 77.9741 101.549C77.4537 101.531 76.945 101.39 76.4891 101.138C76.0332 100.887 75.643 100.531 75.35 100.101C74.3018 98.109 73.684 95.9191 73.5366 93.6733C73.3893 91.4274 73.7156 89.1756 74.4945 87.0639C76.7775 81.2068 86.4501 81.7684 89.6621 84.4083C92.874 87.0482 92.8058 90.066 92.8058 90.066Z" fill="url(#paint57_linear_2_287)"/>
<path d="M140.933 241.07C142.313 243.28 134.981 246.04 132.535 245.762C130.09 245.484 127.481 243.846 125.65 243.453C123.818 243.059 122.684 243.6 122.033 242.613C121.855 242.33 121.367 241.521 120.748 240.393C124.259 241.086 132.724 242.492 134.944 241.096C136.319 240.157 136.902 239.343 136.918 238.609C138.87 239.58 140.418 240.372 140.933 241.07Z" fill="url(#paint58_linear_2_287)"/>
<path d="M109.758 154.342C108.429 154.858 107.032 155.175 105.611 155.281H105.554C104.198 155.47 102.826 155.523 101.46 155.439C100.08 155.292 79.2229 158.845 77.6642 158.798C74.2895 158.756 72.2532 155.875 71.3242 154.295L71.6024 150.742L76.6355 151.791C76.6355 151.791 98.6784 151.125 99.5023 150.92C100.326 150.715 100.982 149.199 102.079 148.537C103.176 147.876 107.532 147.036 107.905 147.792C108.278 148.548 105.627 149.214 105.916 149.808C106.204 150.401 108.797 150.044 109.999 149.697C111.201 149.351 112.434 148.364 112.812 149.041C113.19 149.718 111.694 153.387 109.758 154.342Z" fill="url(#paint59_linear_2_287)"/>
<path d="M77.5646 151.607C77.4286 151.806 77.2758 151.992 77.108 152.164C75.5557 153.854 73.4011 154.866 71.1092 154.982C70.8835 154.541 67.2464 147.509 66.795 145.677C66.3437 143.845 57.4951 121.771 67.4143 116.848L67.6505 116.753C67.8677 116.653 68.1041 116.601 68.3433 116.601L68.4168 116.628C71.4398 116.659 73.5286 123.146 73.6651 127.686C73.7333 129.638 73.8698 132.115 73.9905 134.54C74.2056 138.655 74.5415 142.491 74.6413 142.937C74.8249 143.698 77.5646 151.607 77.5646 151.607Z" fill="url(#paint60_linear_2_287)"/>
<path d="M89.9821 85.9041C89.6357 87.4786 87.7411 88.2396 86.1456 88.4705C85.9516 88.5143 85.7554 88.5476 85.5578 88.5702C84.0987 88.8011 82.561 89.095 81.6793 90.2392C81.3609 90.7364 81.1169 91.2774 80.955 91.8451C80.8877 92.0988 80.7908 92.3436 80.6664 92.5747C80.5662 92.795 80.4522 93.0089 80.3252 93.215C79.731 93.901 79.0966 94.5512 78.4253 95.1621C78.0101 95.6188 77.78 96.2138 77.7798 96.831V96.831L77.6801 96.7995C77.4875 96.66 77.2601 96.5764 77.0231 96.5578C76.786 96.5393 76.5484 96.5866 76.3365 96.6946C76.005 96.9618 75.7602 97.3214 75.6332 97.7278C75.5061 98.1342 75.5025 98.5691 75.6227 98.9776C75.7292 99.5092 75.9494 100.011 76.2683 100.45C76.5872 100.888 76.9972 101.253 77.4701 101.518C77.6218 101.575 77.7692 101.644 77.911 101.722C78.1643 102.218 78.3412 102.749 78.4358 103.297C78.6215 104.499 78.4846 105.728 78.0392 106.86C77.5938 107.991 76.8559 108.984 75.9009 109.737C75.4502 110.087 74.9519 110.372 74.4209 110.582V110.582C73.5894 110.935 72.6998 111.133 71.7967 111.164C70.6649 111.223 69.5333 111.044 68.4745 110.639C68.1418 110.517 67.8174 110.374 67.5036 110.209C66.0078 109.395 64.6643 107.679 65.1839 106.115C65.63 104.877 67.0365 104.226 67.5928 103.066C68.5113 101.25 67.1625 99.198 66.412 97.3559C65.1471 94.506 65.1419 90.8952 67.1362 88.565C68.0232 87.5678 69.267 86.8225 69.8811 85.6259C70.2277 84.6409 70.4962 83.6301 70.6841 82.6029C71.047 81.6011 71.6582 80.7077 72.4605 80.0065C73.2627 79.3052 74.2298 78.8189 75.2711 78.5932C77.3821 78.1853 79.5692 78.5288 81.4536 79.5641C82.2226 80.0278 83.0262 80.4313 83.8573 80.7712C86.1036 81.5112 90.7641 82.1883 89.9821 85.9041Z" fill="url(#paint61_linear_2_287)"/>
<path d="M85.5474 88.5597C84.0884 88.7906 82.5506 89.0845 81.6689 90.2339C81.3471 90.7179 81.1028 91.2491 80.9447 91.8084C80.8783 92.0624 80.7813 92.3073 80.656 92.5379L71.377 100.143C71.377 100.143 71.7759 93.7083 73.2297 90.9687C74.6834 88.2291 78.2733 87.3841 80.8397 88.1346C82.3621 88.6034 83.9657 88.7482 85.5474 88.5597V88.5597Z" fill="url(#paint62_linear_2_287)"/>
<path d="M77.6437 96.789C77.4509 96.6503 77.2239 96.5667 76.9872 96.5473C76.7504 96.5279 76.5129 96.5733 76.3001 96.6788C75.9698 96.9482 75.726 97.3087 75.5991 97.7156C75.4722 98.1225 75.4678 98.5577 75.5863 98.9671C75.6938 99.4976 75.9151 99.9986 76.2349 100.435C76.5548 100.872 76.9656 101.234 77.439 101.497C77.7081 102.096 78.0112 102.68 78.3469 103.244V103.244C78.5368 104.448 78.4009 105.681 77.9533 106.814C77.5057 107.947 76.7627 108.94 75.8015 109.689C75.3575 110.04 74.8641 110.323 74.3372 110.529V110.529L71.8075 111.122L71.7026 111.091C70.5695 111.159 69.4346 110.991 68.3699 110.597C68.2336 110.435 68.1334 110.245 68.076 110.041C68.0121 109.643 68.0552 109.236 68.2009 108.86C68.3467 108.485 68.5898 108.155 68.9052 107.905C69.5489 107.398 70.1477 106.836 70.6949 106.225C71.2831 105.345 71.5652 104.296 71.4979 103.239C71.4979 102.226 71.3247 101.166 71.4087 100.09C71.4946 98.8572 71.8811 97.6639 72.5343 96.6146C73.1874 95.5653 74.0875 94.6918 75.156 94.0704C76.1304 93.5755 77.1452 93.1646 78.1895 92.8423C78.7255 92.6475 79.251 92.4251 79.764 92.1758C80.2888 91.9343 80.6194 91.5145 80.9711 91.546L80.9081 91.7454C80.6832 93.4433 80.1889 95.0946 79.4438 96.6368C79.309 96.9098 79.217 97.2018 79.1709 97.5028C79.1567 97.7403 79.1852 97.9785 79.2549 98.2061C79.3913 98.9776 79.5278 99.7805 79.68 100.515L78.0478 97.3663C77.9249 97.1658 77.79 96.973 77.6437 96.789Z" fill="url(#paint63_linear_2_287)"/>
<path d="M118.271 233.507L120.737 240.409C120.737 240.409 131.124 242.729 134.908 241.117C138.692 239.506 136.881 238.63 136.881 238.63C136.881 238.63 130.625 237.218 128.772 235.481C127.645 234.422 126.614 233.264 125.692 232.022L118.271 233.507Z" fill="url(#paint64_linear_2_287)"/>
<path d="M109.758 154.342L105.611 155.281H105.554C104.198 155.47 102.826 155.523 101.46 155.439C100.08 155.292 79.2229 158.845 77.6642 158.798C74.2895 158.756 72.2532 155.874 71.3242 154.295L73.9221 154.358C73.9221 154.358 76.8769 157.302 80.6295 156.772C84.382 156.242 102.578 153.513 103.759 153.397C105.777 153.578 107.781 153.894 109.758 154.342V154.342Z" fill="url(#paint65_linear_2_287)"/>
<path opacity="0.34" d="M126.689 208.494C126.22 208.815 125.731 209.104 125.224 209.36C124.6 206.877 120.942 192.649 119.105 184.971C117.095 176.506 115.615 172.685 110.498 167.652C105.381 162.619 90.8533 161.648 90.8533 161.648L92.475 157.974C93.3043 160.446 114.959 160.876 118.717 177.697C119.871 183.055 126.689 208.494 126.689 208.494Z" fill="white"/>
<path opacity="0.34" d="M77.5645 151.608C77.4285 151.806 77.2758 151.992 77.1079 152.164C77.1079 152.164 74.531 145.425 73.6283 142.869C72.7256 140.313 72.0538 126.536 72.0538 126.536L71.4188 122.102C70.7942 117.63 67.3881 116.801 67.3881 116.801L67.619 116.712C67.8436 116.628 68.0784 116.575 68.317 116.554H68.401C71.4135 116.622 73.5391 123.083 73.6493 127.66C73.7018 129.617 73.8383 132.094 73.9642 134.514C74.1899 138.629 74.489 142.46 74.6255 142.911C74.8249 143.698 77.5645 151.608 77.5645 151.608Z" fill="white"/>
<path d="M139.033 125.135L136.314 145.603C136.255 146.197 136.025 146.76 135.652 147.226C135.28 147.691 134.781 148.039 134.215 148.228L109.873 155.764C109.534 155.87 109.177 155.906 108.824 155.869C108.008 155.727 107.281 155.268 106.8 154.593C106.32 153.918 106.125 153.081 106.257 152.264L108.745 131.575C108.801 130.949 109.047 130.355 109.449 129.872C109.851 129.389 110.391 129.04 110.996 128.872L136.713 122.742C137.075 122.66 137.453 122.689 137.798 122.825C138.144 122.961 138.44 123.197 138.65 123.503C138.978 123.98 139.115 124.562 139.033 125.135V125.135Z" fill="url(#paint66_linear_2_287)"/>
<path d="M139.033 125.135L136.314 145.604C136.254 146.197 136.025 146.76 135.652 147.226C135.28 147.691 134.78 148.039 134.215 148.228L109.873 155.764C109.534 155.87 109.177 155.906 108.823 155.869C108.465 155.506 108.195 155.066 108.033 154.581C107.872 154.097 107.825 153.583 107.894 153.077L110.377 132.383C110.432 131.756 110.677 131.161 111.079 130.677C111.482 130.193 112.022 129.843 112.628 129.675L138.345 123.545C138.445 123.523 138.547 123.509 138.649 123.503C138.978 123.98 139.114 124.562 139.033 125.135V125.135Z" fill="url(#paint67_linear_2_287)"/>
<path d="M95.1358 158.714L106.729 154.442L135.28 147.619L129.108 151.97C128.546 152.368 127.926 152.68 127.271 152.893L102.032 161.018L96.7155 161.175L95.3877 161.212C95.1034 161.169 94.8416 161.032 94.6435 160.823C94.4454 160.615 94.3222 160.347 94.2934 160.061C94.2645 159.774 94.3316 159.487 94.4841 159.243C94.6366 158.999 94.8659 158.813 95.1358 158.714V158.714Z" fill="url(#paint68_linear_2_287)"/>
<path d="M119.577 152.064L95.3877 161.212L102.032 161.018L128.662 152.274L135.28 147.593L119.577 152.064Z" fill="url(#paint69_linear_2_287)"/>
</g>
<defs>
<linearGradient id="paint0_linear_2_287" x1="293.448" y1="20.4474" x2="170.26" y2="190.503" gradientUnits="userSpaceOnUse">
<stop stop-color="#68E1FD"/>
<stop offset="1" stop-color="#69B9EB"/>
</linearGradient>
<linearGradient id="paint1_linear_2_287" x1="-247714" y1="7640.19" x2="-290419" y2="46520.4" gradientUnits="userSpaceOnUse">
<stop stop-color="#68E1FD"/>
<stop offset="1" stop-color="#69B9EB"/>
</linearGradient>
<linearGradient id="paint2_linear_2_287" x1="80469.4" y1="105619" x2="168358" y2="105619" gradientUnits="userSpaceOnUse">
<stop stop-color="#68E1FD"/>
<stop offset="1" stop-color="#69B9EB"/>
</linearGradient>
<linearGradient id="paint3_linear_2_287" x1="322573" y1="202501" x2="49218.4" y2="202501" gradientUnits="userSpaceOnUse">
<stop stop-color="#68E1FD"/>
<stop offset="1" stop-color="#69B9EB"/>
</linearGradient>
<linearGradient id="paint4_linear_2_287" x1="-237089" y1="-81736.6" x2="-324981" y2="-81736.6" gradientUnits="userSpaceOnUse">
<stop stop-color="#68E1FD"/>
<stop offset="1" stop-color="#69B9EB"/>
</linearGradient>
<linearGradient id="paint5_linear_2_287" x1="51922.1" y1="80611.8" x2="80306.1" y2="80611.8" gradientUnits="userSpaceOnUse">
<stop stop-color="#68E1FD"/>
<stop offset="1" stop-color="#69B9EB"/>
</linearGradient>
<linearGradient id="paint6_linear_2_287" x1="28121" y1="28057.2" x2="27932.5" y2="33635.9" gradientUnits="userSpaceOnUse">
<stop stop-color="#68E1FD"/>
<stop offset="1" stop-color="#69B9EB"/>
</linearGradient>
<linearGradient id="paint7_linear_2_287" x1="26597.6" y1="14968.5" x2="29875.6" y2="14968.5" gradientUnits="userSpaceOnUse">
<stop stop-color="#68E1FD"/>
<stop offset="1" stop-color="#69B9EB"/>
</linearGradient>
<linearGradient id="paint8_linear_2_287" x1="5579.7" y1="8741.31" x2="6196.59" y2="8962.35" gradientUnits="userSpaceOnUse">
<stop stop-color="#68E1FD"/>
<stop offset="1" stop-color="#69B9EB"/>
</linearGradient>
<linearGradient id="paint9_linear_2_287" x1="12370.7" y1="14962.1" x2="13180.3" y2="17868.3" gradientUnits="userSpaceOnUse">
<stop stop-color="#68E1FD"/>
<stop offset="1" stop-color="#69B9EB"/>
</linearGradient>
<linearGradient id="paint10_linear_2_287" x1="5204.53" y1="6085.65" x2="5342.4" y2="6519.78" gradientUnits="userSpaceOnUse">
<stop stop-color="#68E1FD"/>
<stop offset="1" stop-color="#69B9EB"/>
</linearGradient>
<linearGradient id="paint11_linear_2_287" x1="13893.3" y1="3705.34" x2="13905.1" y2="3919.17" gradientUnits="userSpaceOnUse">
<stop stop-color="#68E1FD"/>
<stop offset="1" stop-color="#69B9EB"/>
</linearGradient>
<linearGradient id="paint12_linear_2_287" x1="3388.17" y1="3325.17" x2="3479.73" y2="3455.72" gradientUnits="userSpaceOnUse">
<stop stop-color="#68E1FD"/>
<stop offset="1" stop-color="#69B9EB"/>
</linearGradient>
<linearGradient id="paint13_linear_2_287" x1="1486.7" y1="3909.9" x2="1566.01" y2="3955.09" gradientUnits="userSpaceOnUse">
<stop stop-color="#68E1FD"/>
<stop offset="1" stop-color="#69B9EB"/>
</linearGradient>
<linearGradient id="paint14_linear_2_287" x1="10988.7" y1="15525.2" x2="11724.3" y2="15525.2" gradientUnits="userSpaceOnUse">
<stop stop-color="#68E1FD"/>
<stop offset="1" stop-color="#69B9EB"/>
</linearGradient>
<linearGradient id="paint15_linear_2_287" x1="22391.7" y1="66939.7" x2="33053.4" y2="68912.3" gradientUnits="userSpaceOnUse">
<stop stop-color="#68E1FD"/>
<stop offset="1" stop-color="#69B9EB"/>
</linearGradient>
<linearGradient id="paint16_linear_2_287" x1="45299.3" y1="115316" x2="207644" y2="170259" gradientUnits="userSpaceOnUse">
<stop stop-color="#FF833C"/>
<stop offset="1" stop-color="#FF833C"/>
</linearGradient>
<linearGradient id="paint17_linear_2_287" x1="4634.21" y1="51016.8" x2="33010" y2="51016.8" gradientUnits="userSpaceOnUse">
<stop stop-color="#68E1FD"/>
<stop offset="1" stop-color="#69B9EB"/>
</linearGradient>
<linearGradient id="paint18_linear_2_287" x1="1002.75" y1="48906.3" x2="-13857.6" y2="55686.3" gradientUnits="userSpaceOnUse">
<stop stop-color="#68E1FD"/>
<stop offset="1" stop-color="#69B9EB"/>
</linearGradient>
<linearGradient id="paint19_linear_2_287" x1="12154.6" y1="30025" x2="17821.8" y2="30025" gradientUnits="userSpaceOnUse">
<stop stop-color="#68E1FD"/>
<stop offset="1" stop-color="#69B9EB"/>
</linearGradient>
<linearGradient id="paint20_linear_2_287" x1="87319" y1="39127.6" x2="115604" y2="39127.6" gradientUnits="userSpaceOnUse">
<stop stop-color="#68E1FD"/>
<stop offset="1" stop-color="#69B9EB"/>
</linearGradient>
<linearGradient id="paint21_linear_2_287" x1="49654.1" y1="25467" x2="56274.3" y2="25467" gradientUnits="userSpaceOnUse">
<stop stop-color="#68E1FD"/>
<stop offset="1" stop-color="#69B9EB"/>
</linearGradient>
<linearGradient id="paint22_linear_2_287" x1="49663.9" y1="14356.1" x2="56053.4" y2="14356.1" gradientUnits="userSpaceOnUse">
<stop stop-color="#68E1FD"/>
<stop offset="1" stop-color="#69B9EB"/>
</linearGradient>
<linearGradient id="paint23_linear_2_287" x1="23335.3" y1="15118" x2="23454.6" y2="15579.9" gradientUnits="userSpaceOnUse">
<stop stop-color="#68E1FD"/>
<stop offset="1" stop-color="#69B9EB"/>
</linearGradient>
<linearGradient id="paint24_linear_2_287" x1="26667.1" y1="28837.9" x2="25353.5" y2="30156.5" gradientUnits="userSpaceOnUse">
<stop stop-color="#68E1FD"/>
<stop offset="1" stop-color="#69B9EB"/>
</linearGradient>
<linearGradient id="paint25_linear_2_287" x1="26208" y1="28799.3" x2="24721.5" y2="32331.4" gradientUnits="userSpaceOnUse">
<stop stop-color="#68E1FD"/>
<stop offset="1" stop-color="#69B9EB"/>
</linearGradient>
<linearGradient id="paint26_linear_2_287" x1="15559.6" y1="16060.4" x2="16886.1" y2="17742.1" gradientUnits="userSpaceOnUse">
<stop stop-color="#68E1FD"/>
<stop offset="1" stop-color="#69B9EB"/>
</linearGradient>
<linearGradient id="paint27_linear_2_287" x1="49157.3" y1="26269.4" x2="37763.7" y2="26269.4" gradientUnits="userSpaceOnUse">
<stop stop-color="#68E1FD"/>
<stop offset="1" stop-color="#69B9EB"/>
</linearGradient>
<linearGradient id="paint28_linear_2_287" x1="294.771" y1="262.436" x2="305.902" y2="262.436" gradientUnits="userSpaceOnUse">
<stop stop-color="#69E3FF"/>
<stop offset="1" stop-color="#69BBED"/>
</linearGradient>
<linearGradient id="paint29_linear_2_287" x1="-6543.43" y1="11793.4" x2="-6585.17" y2="11793.4" gradientUnits="userSpaceOnUse">
<stop stop-color="#69E3FF"/>
<stop offset="1" stop-color="#69BBED"/>
</linearGradient>
<linearGradient id="paint30_linear_2_287" x1="322.062" y1="201.482" x2="300.723" y2="201.482" gradientUnits="userSpaceOnUse">
<stop stop-color="#EEC6D9"/>
<stop offset="0.42" stop-color="#F1D6D3"/>
<stop offset="1" stop-color="#F4ECCB"/>
</linearGradient>
<linearGradient id="paint31_linear_2_287" x1="3569.7" y1="1574.75" x2="3550.59" y2="1579.15" gradientUnits="userSpaceOnUse">
<stop stop-color="#EEC6D9"/>
<stop offset="0.42" stop-color="#F1D6D3"/>
<stop offset="1" stop-color="#F4ECCB"/>
</linearGradient>
<linearGradient id="paint32_linear_2_287" x1="-22672.5" y1="2632.23" x2="-23081.2" y2="2632.23" gradientUnits="userSpaceOnUse">
<stop stop-color="#69E3FF"/>
<stop offset="1" stop-color="#69BBED"/>
</linearGradient>
<linearGradient id="paint33_linear_2_287" x1="7639.35" y1="5123.68" x2="8066.12" y2="5123.68" gradientUnits="userSpaceOnUse">
<stop stop-color="#EEC6D9"/>
<stop offset="0.42" stop-color="#F1D6D3"/>
<stop offset="1" stop-color="#F4ECCB"/>
</linearGradient>
<linearGradient id="paint34_linear_2_287" x1="406.019" y1="82.6397" x2="417.744" y2="82.6397" gradientUnits="userSpaceOnUse">
<stop stop-color="#183866"/>
<stop offset="1" stop-color="#1A7FC3"/>
</linearGradient>
<linearGradient id="paint35_linear_2_287" x1="44327.6" y1="-62515.2" x2="47794.8" y2="-62024.8" gradientUnits="userSpaceOnUse">
<stop stop-color="#183866"/>
<stop offset="1" stop-color="#1A7FC3"/>
</linearGradient>
<linearGradient id="paint36_linear_2_287" x1="33292.2" y1="143654" x2="29066.2" y2="142211" gradientUnits="userSpaceOnUse">
<stop stop-color="#183866"/>
<stop offset="1" stop-color="#1A7FC3"/>
</linearGradient>
<linearGradient id="paint37_linear_2_287" x1="13341.9" y1="42868.2" x2="13249.1" y2="42262.5" gradientUnits="userSpaceOnUse">
<stop stop-color="#EEC6D9"/>
<stop offset="0.42" stop-color="#F1D6D3"/>
<stop offset="1" stop-color="#F4ECCB"/>
</linearGradient>
<linearGradient id="paint38_linear_2_287" x1="31645.7" y1="28492.1" x2="31961.1" y2="28997.9" gradientUnits="userSpaceOnUse">
<stop stop-color="#EEC6D9"/>
<stop offset="0.42" stop-color="#F1D6D3"/>
<stop offset="1" stop-color="#F4ECCB"/>
</linearGradient>
<linearGradient id="paint39_linear_2_287" x1="10353.1" y1="27056.5" x2="10038" y2="27301.9" gradientUnits="userSpaceOnUse">
<stop stop-color="#EEC6D9"/>
<stop offset="0.42" stop-color="#F1D6D3"/>
<stop offset="1" stop-color="#F4ECCB"/>
</linearGradient>
<linearGradient id="paint40_linear_2_287" x1="2808.08" y1="20600.1" x2="2870.68" y2="20685.7" gradientUnits="userSpaceOnUse">
<stop stop-color="#EEC6D9"/>
<stop offset="0.42" stop-color="#F1D6D3"/>
<stop offset="1" stop-color="#F4ECCB"/>
</linearGradient>
<linearGradient id="paint41_linear_2_287" x1="11575.7" y1="57217.1" x2="12293.3" y2="57224.2" gradientUnits="userSpaceOnUse">
<stop stop-color="#EEC6D9"/>
<stop offset="0.42" stop-color="#F1D6D3"/>
<stop offset="1" stop-color="#F4ECCB"/>
</linearGradient>
<linearGradient id="paint42_linear_2_287" x1="942.017" y1="4950.8" x2="969.409" y2="4939.14" gradientUnits="userSpaceOnUse">
<stop stop-color="#EEC6D9"/>
<stop offset="0.42" stop-color="#F1D6D3"/>
<stop offset="1" stop-color="#F4ECCB"/>
</linearGradient>
<linearGradient id="paint43_linear_2_287" x1="10879.1" y1="74138" x2="11689.3" y2="74228" gradientUnits="userSpaceOnUse">
<stop stop-color="#183866"/>
<stop offset="1" stop-color="#1A7FC3"/>
</linearGradient>
<linearGradient id="paint44_linear_2_287" x1="5514.36" y1="26286.9" x2="5697.3" y2="26307.2" gradientUnits="userSpaceOnUse">
<stop stop-color="#183866"/>
<stop offset="1" stop-color="#1A7FC3"/>
</linearGradient>
<linearGradient id="paint45_linear_2_287" x1="5054.9" y1="16872.4" x2="5182.2" y2="16886.6" gradientUnits="userSpaceOnUse">
<stop stop-color="#183866"/>
<stop offset="1" stop-color="#1A7FC3"/>
</linearGradient>
<linearGradient id="paint46_linear_2_287" x1="-77065" y1="4699" x2="-76443" y2="4572.05" gradientUnits="userSpaceOnUse">
<stop stop-color="#EEC6D9"/>
<stop offset="0.42" stop-color="#F1D6D3"/>
<stop offset="1" stop-color="#F4ECCB"/>
</linearGradient>
<linearGradient id="paint47_linear_2_287" x1="83.4318" y1="95.3853" x2="102.651" y2="96.9229" gradientUnits="userSpaceOnUse">
<stop stop-color="#D09BC0"/>
<stop offset="0.21" stop-color="#CC93BA"/>
<stop offset="0.54" stop-color="#C17EA9"/>
<stop offset="0.95" stop-color="#B05B8D"/>
<stop offset="0.96" stop-color="#AF5A8C"/>
</linearGradient>
<linearGradient id="paint48_linear_2_287" x1="-56285.7" y1="-23978.5" x2="-55893.5" y2="-23947.1" gradientUnits="userSpaceOnUse">
<stop stop-color="#EEC6D9"/>
<stop offset="0.42" stop-color="#F1D6D3"/>
<stop offset="1" stop-color="#F4ECCB"/>
</linearGradient>
<linearGradient id="paint49_linear_2_287" x1="113.709" y1="114.71" x2="83.3792" y2="114.2" gradientUnits="userSpaceOnUse">
<stop stop-color="#EEC6D9"/>
<stop offset="0.42" stop-color="#785757"/>
<stop offset="1" stop-color="#F4ECCB"/>
</linearGradient>
<linearGradient id="paint50_linear_2_287" x1="-73982.8" y1="22178.4" x2="-73348.1" y2="21885.5" gradientUnits="userSpaceOnUse">
<stop stop-color="#D09BC0"/>
<stop offset="0.21" stop-color="#CC93BA"/>
<stop offset="0.54" stop-color="#C17EA9"/>
<stop offset="0.95" stop-color="#B05B8D"/>
<stop offset="0.96" stop-color="#AF5A8C"/>
</linearGradient>
<linearGradient id="paint51_linear_2_287" x1="-64215.3" y1="-27067.3" x2="-63688.1" y2="-27025.1" gradientUnits="userSpaceOnUse">
<stop stop-color="#EEC6D9"/>
<stop offset="0.42" stop-color="#F1D6D3"/>
<stop offset="1" stop-color="#F4ECCB"/>
</linearGradient>
<linearGradient id="paint52_linear_2_287" x1="-25195.7" y1="-7019.42" x2="-25112.9" y2="-7012.79" gradientUnits="userSpaceOnUse">
<stop stop-color="#EEC6D9"/>
<stop offset="0.42" stop-color="#F1D6D3"/>
<stop offset="1" stop-color="#F4ECCB"/>
</linearGradient>
<linearGradient id="paint53_linear_2_287" x1="-52551.8" y1="14361.9" x2="-52237.1" y2="14361.9" gradientUnits="userSpaceOnUse">
<stop stop-color="#EEC6D9"/>
<stop offset="0.42" stop-color="#785757"/>
<stop offset="1" stop-color="#F4ECCB"/>
</linearGradient>
<linearGradient id="paint54_linear_2_287" x1="-39423" y1="-29069.6" x2="-39215.2" y2="-29052.9" gradientUnits="userSpaceOnUse">
<stop stop-color="#183866"/>
<stop offset="1" stop-color="#1A7FC3"/>
</linearGradient>
<linearGradient id="paint55_linear_2_287" x1="-132586" y1="-81175.5" x2="-130326" y2="-80833.1" gradientUnits="userSpaceOnUse">
<stop stop-color="#183866"/>
<stop offset="1" stop-color="#1A7FC3"/>
</linearGradient>
<linearGradient id="paint56_linear_2_287" x1="-54750.5" y1="-54186.3" x2="-57882.5" y2="-50967.5" gradientUnits="userSpaceOnUse">
<stop stop-color="#183866"/>
<stop offset="1" stop-color="#1A7FC3"/>
</linearGradient>
<linearGradient id="paint57_linear_2_287" x1="-77787.9" y1="-37746.7" x2="-77049.2" y2="-37687.6" gradientUnits="userSpaceOnUse">
<stop stop-color="#EEC6D9"/>
<stop offset="0.42" stop-color="#F1D6D3"/>
<stop offset="1" stop-color="#F4ECCB"/>
</linearGradient>
<linearGradient id="paint58_linear_2_287" x1="-74013.6" y1="22826.9" x2="-73379.3" y2="22527.2" gradientUnits="userSpaceOnUse">
<stop stop-color="#D09BC0"/>
<stop offset="0.21" stop-color="#CC93BA"/>
<stop offset="0.54" stop-color="#C17EA9"/>
<stop offset="0.95" stop-color="#B05B8D"/>
<stop offset="0.96" stop-color="#AF5A8C"/>
</linearGradient>
<linearGradient id="paint59_linear_2_287" x1="-173011" y1="-26646.7" x2="-169764" y2="-26386.9" gradientUnits="userSpaceOnUse">
<stop stop-color="#EEC6D9"/>
<stop offset="0.42" stop-color="#F1D6D3"/>
<stop offset="1" stop-color="#F4ECCB"/>
</linearGradient>
<linearGradient id="paint60_linear_2_287" x1="-55516.6" y1="-48263.7" x2="-54997.3" y2="-48185.1" gradientUnits="userSpaceOnUse">
<stop stop-color="#183866"/>
<stop offset="1" stop-color="#1A7FC3"/>
</linearGradient>
<linearGradient id="paint61_linear_2_287" x1="-106611" y1="42262.4" x2="-105474" y2="42262.4" gradientUnits="userSpaceOnUse">
<stop stop-color="#D09BC0"/>
<stop offset="0.21" stop-color="#CC93BA"/>
<stop offset="0.54" stop-color="#C17EA9"/>
<stop offset="0.95" stop-color="#B05B8D"/>
<stop offset="0.96" stop-color="#AF5A8C"/>
</linearGradient>
<linearGradient id="paint62_linear_2_287" x1="-60153.6" y1="15809.4" x2="-60124.3" y2="16125" gradientUnits="userSpaceOnUse">
<stop stop-color="#D09BC0"/>
<stop offset="0.21" stop-color="#CC93BA"/>
<stop offset="0.54" stop-color="#C17EA9"/>
<stop offset="0.95" stop-color="#B05B8D"/>
<stop offset="0.96" stop-color="#AF5A8C"/>
</linearGradient>
<linearGradient id="paint63_linear_2_287" x1="-54947.4" y1="24756.7" x2="-54827" y2="25500.5" gradientUnits="userSpaceOnUse">
<stop stop-color="#D09BC0"/>
<stop offset="0.21" stop-color="#CC93BA"/>
<stop offset="0.54" stop-color="#C17EA9"/>
<stop offset="0.95" stop-color="#B05B8D"/>
<stop offset="0.96" stop-color="#AF5A8C"/>
</linearGradient>
<linearGradient id="paint64_linear_2_287" x1="-77239.2" y1="5067.79" x2="-76616.9" y2="4940.81" gradientUnits="userSpaceOnUse">
<stop stop-color="#EEC6D9"/>
<stop offset="0.42" stop-color="#F1D6D3"/>
<stop offset="1" stop-color="#F4ECCB"/>
</linearGradient>
<linearGradient id="paint65_linear_2_287" x1="-162054" y1="6548.8" x2="-162027" y2="5824.4" gradientUnits="userSpaceOnUse">
<stop stop-color="#EEC6D9"/>
<stop offset="0.42" stop-color="#785757"/>
<stop offset="1" stop-color="#F4ECCB"/>
</linearGradient>
<linearGradient id="paint66_linear_2_287" x1="7340.72" y1="8640.01" x2="6845.28" y2="8337.03" gradientUnits="userSpaceOnUse">
<stop stop-color="#183866"/>
<stop offset="1" stop-color="#1A7FC3"/>
</linearGradient>
<linearGradient id="paint67_linear_2_287" x1="143.851" y1="150.679" x2="117.892" y2="136.456" gradientUnits="userSpaceOnUse">
<stop offset="0.44" stop-color="#183866"/>
<stop offset="1" stop-color="#1A7FC3"/>
</linearGradient>
<linearGradient id="paint68_linear_2_287" x1="10074.9" y1="4324.51" x2="9354.31" y2="3133.88" gradientUnits="userSpaceOnUse">
<stop stop-color="#183866"/>
<stop offset="1" stop-color="#1A7FC3"/>
</linearGradient>
<linearGradient id="paint69_linear_2_287" x1="8723.7" y1="4056.75" x2="8787.64" y2="4444.22" gradientUnits="userSpaceOnUse">
<stop stop-color="#183866"/>
<stop offset="1" stop-color="#1A7FC3"/>
</linearGradient>
<clipPath id="clip0_2_287">
<rect width="528" height="473.276" fill="white"/>
</clipPath>
</defs>
</svg>
