<svg width="17" height="17" viewBox="0 0 17 17" fill="none" xmlns="http://www.w3.org/2000/svg">
<path d="M8.36963 4.07622C5.99254 4.07622 4.07412 5.99464 4.07412 8.37172C4.07412 10.7488 5.99254 12.6672 8.36963 12.6672C10.7467 12.6672 12.6651 10.7488 12.6651 8.37172C12.6651 5.99464 10.7467 4.07622 8.36963 4.07622ZM8.36963 11.1635C6.83238 11.1635 5.57786 9.90897 5.57786 8.37172C5.57786 6.83447 6.83238 5.57996 8.36963 5.57996C9.90688 5.57996 11.1614 6.83447 11.1614 8.37172C11.1614 9.90897 9.90688 11.1635 8.36963 11.1635ZM12.8411 2.8992C12.2861 2.8992 11.8379 3.34739 11.8379 3.90239C11.8379 4.45739 12.2861 4.90558 12.8411 4.90558C13.3961 4.90558 13.8442 4.45948 13.8442 3.90239C13.8444 3.7706 13.8186 3.64008 13.7682 3.51829C13.7179 3.3965 13.644 3.28584 13.5508 3.19266C13.4576 3.09947 13.3469 3.02558 13.2252 2.97522C13.1034 2.92487 12.9728 2.89903 12.8411 2.8992V2.8992ZM16.7428 8.37172C16.7428 7.21564 16.7533 6.07004 16.6884 4.91605C16.6234 3.57567 16.3177 2.38608 15.3375 1.40593C14.3553 0.423681 13.1678 0.120001 11.8274 0.0550759C10.6713 -0.00984881 9.5257 0.000622951 8.37172 0.000622951C7.21564 0.000622951 6.07004 -0.00984881 4.91605 0.0550759C3.57567 0.120001 2.38608 0.425775 1.40593 1.40593C0.423681 2.38818 0.120001 3.57567 0.0550759 4.91605C-0.00984881 6.07213 0.000622951 7.21774 0.000622951 8.37172C0.000622951 9.52571 -0.00984881 10.6734 0.0550759 11.8274C0.120001 13.1678 0.425775 14.3574 1.40593 15.3375C2.38818 16.3198 3.57567 16.6234 4.91605 16.6884C6.07213 16.7533 7.21774 16.7428 8.37172 16.7428C9.5278 16.7428 10.6734 16.7533 11.8274 16.6884C13.1678 16.6234 14.3574 16.3177 15.3375 15.3375C16.3198 14.3553 16.6234 13.1678 16.6884 11.8274C16.7554 10.6734 16.7428 9.5278 16.7428 8.37172V8.37172ZM14.8998 13.3102C14.7469 13.6914 14.5626 13.9762 14.2673 14.2694C13.972 14.5647 13.6893 14.749 13.3081 14.9019C12.2065 15.3396 9.59063 15.2412 8.36963 15.2412C7.14862 15.2412 4.53069 15.3396 3.42907 14.904C3.0479 14.7511 2.76306 14.5668 2.46986 14.2715C2.17455 13.9762 1.99025 13.6935 1.83736 13.3123C1.40174 12.2086 1.50017 9.59272 1.50017 8.37172C1.50017 7.15072 1.40174 4.53279 1.83736 3.43116C1.99025 3.04999 2.17455 2.76516 2.46986 2.47195C2.76516 2.17874 3.0479 1.99235 3.42907 1.83946C4.53069 1.40383 7.14862 1.50227 8.36963 1.50227C9.59063 1.50227 12.2086 1.40383 13.3102 1.83946C13.6914 1.99235 13.9762 2.17665 14.2694 2.47195C14.5647 2.76725 14.749 3.04999 14.9019 3.43116C15.3375 4.53279 15.2391 7.15072 15.2391 8.37172C15.2391 9.59272 15.3375 12.2086 14.8998 13.3102Z" fill="#FF833C"/>
</svg>
