<svg width="21" height="27" viewBox="0 0 21 27" fill="none" xmlns="http://www.w3.org/2000/svg">
<path d="M13.1239 17.8067C13.0885 17.8116 13.0527 17.808 13.0196 17.7966L9.7378 16.8356L9.73788 16.8353C9.69086 16.8217 9.64788 16.7926 9.61743 16.7495L8.75366 15.5294L7.99346 15.5378C7.86963 15.5388 7.76853 15.4392 7.76755 15.3155C7.76658 15.1917 7.86611 15.0906 7.98993 15.0896L8.86113 15.0799C8.86533 15.0798 8.86946 15.0798 8.87366 15.0798L12.6312 15.1705C12.639 15.1702 12.6468 15.1704 12.6548 15.1709C13.0813 15.2007 13.3423 15.0732 13.4636 14.8893C13.5114 14.8168 13.5386 14.7345 13.5463 14.6498C13.5543 14.5632 13.5415 14.4729 13.5096 14.3863C13.4313 14.1746 13.2347 13.9936 12.9387 13.9521C12.9297 13.9513 12.9207 13.95 12.9117 13.9482L7.60053 12.8379C5.62976 12.4261 3.30295 13.7072 3.10698 13.8177C3.06633 13.8448 3.0166 13.8588 2.96418 13.8546L1.1248 13.6977V18.0396L3.67638 17.2531C3.72918 17.2336 3.78925 17.2338 3.84483 17.2582L8.89196 19.4971L13.0902 19.3989L19.1512 18.1638C19.1595 18.1616 19.168 18.1598 19.1768 18.1586C19.5948 18.0976 19.7985 17.982 19.8585 17.8531C19.8794 17.808 19.8796 17.7575 19.8639 17.7063C19.8432 17.6385 19.7969 17.568 19.7327 17.5019C19.536 17.2992 19.2 17.1608 18.9015 17.2365L18.9015 17.2362C18.891 17.2388 18.8801 17.2407 18.869 17.2418L17.2008 17.4058C17.1929 17.407 17.1849 17.4078 17.1771 17.4081L13.1239 17.8067V17.8067ZM16.1625 4.97749L16.1517 5.17249C16.1484 5.23444 16.0954 5.28184 16.0335 5.27847C15.9717 5.27509 15.9243 5.22214 15.9276 5.16027L15.9384 4.96512C15.8828 4.94937 15.8325 4.92492 15.7881 4.89552C15.6893 4.83004 15.6198 4.73697 15.5897 4.66107C15.5814 4.64022 15.5756 4.62079 15.5726 4.60339C15.5619 4.54227 15.6029 4.48399 15.664 4.47334C15.7251 4.46269 15.7834 4.50364 15.7941 4.56477C15.7949 4.56934 15.7962 4.57399 15.798 4.57849C15.8139 4.61847 15.8534 4.66947 15.912 4.70832C15.9695 4.74642 16.0447 4.77004 16.1324 4.75459C16.1568 4.75032 16.1814 4.74349 16.2057 4.73382C16.2678 4.70922 16.3084 4.66879 16.3306 4.62237C16.3497 4.58232 16.356 4.53717 16.3511 4.49299V4.49254C16.3464 4.44979 16.3316 4.40854 16.3082 4.37419L16.3035 4.36827C16.2741 4.32784 16.2319 4.29784 16.18 4.28862C16.1083 4.27249 16.0248 4.25164 15.9533 4.24002C15.8399 4.21984 15.7491 4.15617 15.687 4.07074C15.6377 4.00302 15.6068 3.92179 15.5976 3.83877V3.83832C15.5883 3.75402 15.6009 3.66672 15.6384 3.58812C15.6834 3.49369 15.7635 3.41269 15.8836 3.36499C15.9249 3.34864 15.9639 3.33754 16.0009 3.33102L16.0068 3.33004L16.0145 3.18994C16.0179 3.12807 16.0708 3.08067 16.1327 3.08404C16.1946 3.08742 16.242 3.14037 16.2387 3.20224L16.2309 3.34129C16.2876 3.35697 16.3389 3.38172 16.3839 3.41157C16.4826 3.47712 16.5522 3.57012 16.5823 3.64602C16.5906 3.66687 16.5963 3.68629 16.5994 3.70369C16.6101 3.76482 16.5691 3.82309 16.508 3.83374C16.4469 3.84447 16.3886 3.80352 16.3779 3.74232C16.3771 3.73782 16.3758 3.73309 16.374 3.72867C16.3581 3.68862 16.3185 3.63762 16.26 3.59884C16.2024 3.56074 16.1272 3.53704 16.0395 3.55249C16.0152 3.55684 15.9906 3.56367 15.9663 3.57334C15.9042 3.59794 15.8636 3.63829 15.8414 3.68479C15.8223 3.72477 15.816 3.76992 15.8208 3.81417C15.8259 3.85969 15.8422 3.90349 15.868 3.93889C15.8973 3.97924 15.9397 4.00924 15.992 4.01854L16.2186 4.06714C16.3324 4.08732 16.4234 4.15107 16.4855 4.23642L16.491 4.24497C16.5367 4.31074 16.5654 4.38859 16.5743 4.46839C16.5837 4.55292 16.5711 4.64037 16.5336 4.71904C16.4886 4.81339 16.4085 4.89447 16.2883 4.94209C16.2471 4.95844 16.208 4.96954 16.171 4.97607L16.1625 4.97749V4.97749ZM16.1635 2.64559L16.1697 2.64597C16.5881 2.66914 16.9577 2.85987 17.2168 3.14944C17.4747 3.43759 17.6232 3.82354 17.6018 4.23949L17.6015 4.24572C17.5783 4.66414 17.3876 5.03367 17.098 5.29287C16.8099 5.55079 16.4239 5.69929 16.008 5.67784L16.0017 5.67754C15.5834 5.65437 15.2138 5.46364 14.9546 5.17407C14.6967 4.88584 14.5482 4.49989 14.5696 4.08394L14.5699 4.07772C14.5931 3.65937 14.7838 3.28977 15.0734 3.03064C15.3615 2.77272 15.7476 2.62422 16.1635 2.64559V2.64559ZM16.1636 2.87044L16.1574 2.87007C15.8004 2.85027 15.4695 2.97694 15.2228 3.19759C14.9776 3.41704 14.8157 3.72964 14.7944 4.08387L14.794 4.09009C14.7742 4.44702 14.9009 4.77799 15.1215 5.02459C15.341 5.26977 15.6536 5.43177 16.0079 5.45307L16.0141 5.45344C16.371 5.47317 16.702 5.34657 16.9486 5.12584C17.1937 4.90647 17.3557 4.59387 17.377 4.23957L17.3774 4.23334C17.3972 3.87649 17.2705 3.54544 17.0499 3.29884C16.8304 3.05367 16.5178 2.89174 16.1636 2.87044V2.87044ZM16.2023 2.05699C16.7833 2.08917 17.2965 2.35399 17.6563 2.75614C18.0162 3.15822 18.2226 3.69739 18.1905 4.27834C18.1583 4.85937 17.8935 5.37252 17.4913 5.73237C17.0892 6.09222 16.5501 6.29869 15.9691 6.26652C15.3881 6.23427 14.8749 5.96944 14.5151 5.56737C14.1552 5.16529 13.9488 4.62612 13.9809 4.04517C14.0131 3.46414 14.278 2.95099 14.6801 2.59114C15.0822 2.23129 15.6213 2.02482 16.2023 2.05699V2.05699ZM17.4336 2.95534C17.1251 2.61057 16.6848 2.38347 16.1859 2.35579C15.687 2.32812 15.2241 2.50519 14.8793 2.81382C14.5345 3.12237 14.3074 3.56269 14.2797 4.06159C14.2521 4.56057 14.4292 5.02332 14.7378 5.36817C15.0463 5.71294 15.4866 5.94004 15.9855 5.96772C16.4845 5.99532 16.9473 5.81824 17.2921 5.50969C17.6369 5.20114 17.864 4.76082 17.8917 4.26192C17.9193 3.76294 17.7422 3.30012 17.4336 2.95534ZM11.4297 9.28752L11.4674 9.52317C11.4771 9.58429 11.4354 9.64182 11.3742 9.65149C11.313 9.66117 11.2556 9.61947 11.2459 9.55834L11.2083 9.32322C11.1387 9.32059 11.0734 9.30537 11.0142 9.28242C10.8903 9.23419 10.7923 9.14929 10.7415 9.07384C10.7286 9.05464 10.7181 9.03537 10.7105 9.01654C10.6869 8.95932 10.7143 8.89377 10.7715 8.87022C10.8288 8.84667 10.8944 8.87404 10.9179 8.93134C10.9199 8.93622 10.9233 8.94222 10.9278 8.94904C10.9571 8.99254 11.0168 9.04272 11.0952 9.07324C11.1727 9.10339 11.2674 9.11209 11.3663 9.07159C11.3926 9.06079 11.4195 9.04647 11.4468 9.02809C11.5143 8.98272 11.5523 8.92399 11.5668 8.86272C11.5791 8.80977 11.575 8.75419 11.5578 8.70297C11.5404 8.65107 11.5096 8.60359 11.4693 8.56767C11.4229 8.52649 11.3638 8.50122 11.2983 8.50369C11.2167 8.50369 11.1106 8.49852 11.0319 8.50459C10.9042 8.50939 10.7909 8.46199 10.7037 8.38437C10.6345 8.32279 10.5818 8.24149 10.5519 8.15239C10.5217 8.06269 10.5146 7.96474 10.5367 7.87047C10.5634 7.75714 10.6313 7.65004 10.7507 7.56972C10.7907 7.54287 10.8309 7.52149 10.8708 7.50514C10.8771 7.50259 10.8835 7.50012 10.8898 7.49772L10.8621 7.32454C10.8524 7.26342 10.8941 7.20589 10.9552 7.19622C11.0163 7.18654 11.0739 7.22824 11.0835 7.28937L11.111 7.46089C11.1816 7.46314 11.2481 7.47844 11.3081 7.50177C11.4321 7.55007 11.5301 7.63489 11.5808 7.71034C11.5937 7.72954 11.6042 7.74882 11.6118 7.76764C11.6354 7.82487 11.608 7.89042 11.5508 7.91397C11.4935 7.93752 11.4279 7.91014 11.4045 7.85284C11.4024 7.84797 11.3991 7.84197 11.3945 7.83514C11.3652 7.79164 11.3055 7.74147 11.2272 7.71094C11.1495 7.68072 11.0549 7.67209 10.956 7.71259C10.9297 7.72339 10.9028 7.73772 10.8755 7.75609C10.808 7.80147 10.77 7.86019 10.7556 7.92147C10.7432 7.97434 10.7473 8.02992 10.7646 8.08122C10.782 8.13312 10.8128 8.18059 10.8531 8.21652C10.8994 8.25769 10.9585 8.28297 11.024 8.28049L11.2904 8.27959C11.4182 8.27479 11.5314 8.32219 11.6187 8.39982C11.6879 8.46139 11.7405 8.54269 11.7705 8.63179C11.8006 8.72149 11.8077 8.81944 11.7856 8.91372C11.7589 9.02704 11.691 9.13414 11.5716 9.21447C11.5316 9.24132 11.4914 9.26269 11.4515 9.27904C11.4442 9.28204 11.4369 9.28482 11.4297 9.28752V9.28752ZM10.8897 6.69529C11.3609 6.61977 11.818 6.74239 12.1761 7.00159C12.5341 7.26072 12.7935 7.65679 12.8689 8.12817C12.9444 8.59939 12.8218 9.05652 12.5626 9.41464C12.3034 9.77269 11.9074 10.0319 11.436 10.1074C10.9648 10.1829 10.5077 10.0603 10.1496 9.80112C9.79151 9.54192 9.53223 9.14592 9.45671 8.67454C9.38126 8.20332 9.50388 7.74612 9.76308 7.38807C10.0222 7.03002 10.4183 6.77074 10.8897 6.69529V6.69529ZM12.0443 7.18354C11.7325 6.95787 11.3347 6.85107 10.9248 6.91677C10.5152 6.98232 10.1707 7.20807 9.94503 7.51992C9.71935 7.83162 9.61255 8.22949 9.67818 8.63937C9.74388 9.04902 9.96955 9.39349 10.2814 9.61917C10.5932 9.84484 10.991 9.95164 11.4009 9.88594C11.8105 9.82032 12.155 9.59464 12.3807 9.28279C12.6063 8.97102 12.7131 8.57322 12.6474 8.16334C12.5818 7.75369 12.3561 7.40922 12.0443 7.18354ZM10.8303 6.32682L10.8292 6.32697C10.2573 6.41884 9.77628 6.73414 9.46106 7.16959C9.14568 7.60527 8.99651 8.16117 9.08823 8.73394C9.17996 9.30634 9.49533 9.78777 9.93108 10.1031C10.3668 10.4185 10.9227 10.5676 11.4954 10.4759C12.0679 10.3842 12.5493 10.0688 12.8646 9.63304C13.18 9.19737 13.3292 8.64147 13.2374 8.06877L13.2372 8.06764C13.1453 7.49569 12.8301 7.01472 12.3945 6.69957C11.9589 6.38419 11.403 6.23502 10.8303 6.32682V6.32682ZM10.7988 6.02914C11.4479 5.92939 12.0768 6.09972 12.5703 6.45694C13.0677 6.81694 13.4278 7.36707 13.5327 8.02182L13.5351 8.03727C13.6348 8.68632 13.4645 9.31527 13.1072 9.80884C12.7472 10.3062 12.1971 10.6663 11.5423 10.7712C10.8878 10.876 10.2528 10.7058 9.75536 10.3457C9.25796 9.98569 8.89788 9.43557 8.79296 8.78082C8.68811 8.12629 8.85843 7.49127 9.21851 6.99387C9.57843 6.49647 10.1286 6.13639 10.7834 6.03147L10.7988 6.02914V6.02914ZM16.6654 12.3443L16.4637 12.6056C16.4259 12.6546 16.3554 12.6636 16.3065 12.6258C16.2574 12.588 16.2484 12.5175 16.2863 12.4685L16.4945 12.1986C16.4444 12.1389 16.407 12.0733 16.3801 12.0069C16.3212 11.8607 16.3148 11.7075 16.3386 11.6031C16.3447 11.5762 16.3526 11.5521 16.362 11.5316C16.3874 11.475 16.4539 11.4498 16.5105 11.4753C16.567 11.5008 16.5922 11.5673 16.5667 11.6238C16.563 11.6319 16.5599 11.6415 16.5574 11.6523C16.542 11.7198 16.5474 11.8218 16.5885 11.9233C16.6287 12.0233 16.7049 12.1203 16.8317 12.178C16.8655 12.1936 16.9025 12.2062 16.9426 12.2154C17.048 12.2394 17.1394 12.2226 17.2118 12.1809C17.2734 12.1453 17.3228 12.0912 17.3565 12.0284C17.3905 11.9649 17.4084 11.8929 17.4066 11.8223V11.8217C17.4043 11.7393 17.3747 11.6589 17.3122 11.5973L17.3124 11.5971C17.2374 11.521 17.1634 11.4316 17.0869 11.3592C16.98 11.2539 16.9294 11.1184 16.9257 10.9806C16.9228 10.8736 16.9488 10.7652 16.9987 10.6692L17.0022 10.6623C17.0535 10.5666 17.1297 10.4831 17.226 10.4256L17.2326 10.4215C17.3514 10.3529 17.4979 10.3248 17.663 10.3624C17.7175 10.3748 17.7669 10.3913 17.8116 10.4112L17.8179 10.4138C17.832 10.4202 17.8455 10.4268 17.8586 10.4338L18.0033 10.2464C18.0411 10.1974 18.1116 10.1883 18.1605 10.2262C18.2096 10.2641 18.2186 10.3345 18.1808 10.3835L18.037 10.5698C18.0998 10.6368 18.1452 10.7127 18.1763 10.7898C18.2353 10.936 18.2417 11.0891 18.2179 11.1936C18.2118 11.2204 18.2038 11.2445 18.1945 11.265C18.169 11.3216 18.1025 11.3468 18.046 11.3213C17.9895 11.2958 17.9643 11.2293 17.9898 11.1728C17.9934 11.1646 17.9966 11.155 17.9991 11.1443C18.0144 11.0769 18.009 10.9748 17.968 10.8733C17.9277 10.7733 17.8516 10.6762 17.7248 10.6185L17.7196 10.6161C17.6871 10.6017 17.6519 10.5899 17.6138 10.5813C17.5086 10.5573 17.4174 10.574 17.3451 10.6157L17.3396 10.6187C17.2805 10.6542 17.2329 10.7072 17.1999 10.7687L17.197 10.7738C17.1647 10.8363 17.148 10.9065 17.1498 10.9753C17.1521 11.0574 17.1816 11.1377 17.2442 11.1993L17.4694 11.4375C17.5764 11.5427 17.627 11.6781 17.6307 11.8155V11.8168C17.6335 11.9259 17.6064 12.0366 17.5542 12.1338C17.5015 12.2322 17.4228 12.3177 17.3234 12.3751C17.2047 12.4437 17.0583 12.4719 16.8934 12.4342C16.8365 12.4212 16.7851 12.4038 16.7389 12.3828L16.7385 12.3826C16.7128 12.3709 16.6884 12.3581 16.6654 12.3443V12.3443ZM18.5543 9.74524C19.0132 10.0994 19.2852 10.6063 19.3539 11.1396C19.4226 11.6724 19.2879 12.2316 18.9337 12.6906C18.5796 13.1495 18.0726 13.4215 17.5395 13.4901C17.0066 13.5588 16.4474 13.4242 15.9884 13.07C15.5295 12.7158 15.2574 12.2088 15.1887 11.6757C15.1201 11.1428 15.2547 10.5836 15.609 10.1247C15.9631 9.66574 16.47 9.39372 17.0033 9.32502C17.5362 9.25639 18.0953 9.39102 18.5543 9.74524V9.74524ZM19.1316 11.1676C19.0703 10.6918 18.8273 10.2393 18.4172 9.92277C18.0071 9.60634 17.5075 9.48604 17.0313 9.54739C16.5555 9.60867 16.1029 9.85174 15.7865 10.2618C15.4701 10.6718 15.3498 11.1714 15.4111 11.6475C15.4724 12.1233 15.7154 12.576 16.1256 12.8925C16.5356 13.2089 17.0352 13.3292 17.5113 13.2678C17.9871 13.2066 18.4398 12.9636 18.7562 12.5534C19.0726 12.1434 19.1929 11.6438 19.1316 11.1676V11.1676ZM18.9741 9.20127C19.5832 9.67137 19.9443 10.3442 20.0354 11.0518C20.1265 11.7591 19.9479 12.5011 19.4777 13.1103C19.0076 13.7195 18.3348 14.0805 17.6271 14.1717C16.9199 14.2628 16.1778 14.0841 15.5686 13.614C14.9595 13.1439 14.5985 12.471 14.5073 11.7634C14.4162 11.0562 14.5949 10.314 15.065 9.70489C15.5351 9.09574 16.2079 8.73469 16.9155 8.64357C17.6228 8.55244 18.3648 8.73117 18.9741 9.20127V9.20127ZM19.7389 11.0893C19.6576 10.4581 19.3353 9.85782 18.7913 9.43797C18.2473 9.01819 17.5847 8.85867 16.953 8.94004C16.3218 9.02134 15.7215 9.34369 15.3017 9.88767C14.8819 10.4316 14.7224 11.0943 14.8038 11.7259C14.8851 12.357 15.2074 12.9574 15.7514 13.3773C16.2954 13.797 16.9581 13.9566 17.5896 13.8752C18.2208 13.7939 18.8212 13.4715 19.241 12.9276C19.6608 12.3836 19.8203 11.721 19.7389 11.0893V11.0893ZM13.0683 17.3436L16.5855 15.4946C16.9999 15.2766 17.479 15.3237 17.8042 15.5274C17.9343 15.609 18.0418 15.7153 18.114 15.8403C18.1906 15.9729 18.2287 16.1241 18.215 16.2871C18.1991 16.4759 18.1122 16.6794 17.9308 16.8832L18.807 16.7971C19.2635 16.6881 19.7649 16.8906 20.0544 17.189C20.1665 17.3046 20.2504 17.4374 20.2929 17.5762C20.3403 17.7317 20.3367 17.8916 20.2662 18.043C20.1468 18.2997 19.8335 18.5166 19.241 18.6031L13.1607 19.8423C13.145 19.8454 13.1294 19.8469 13.114 19.8468L8.8501 19.9465C8.81643 19.9472 8.78433 19.9404 8.75538 19.9276L8.75523 19.9281L3.73953 17.7032L0.965655 18.5583C0.84723 18.5946 0.721755 18.5281 0.685305 18.4097C0.678555 18.3878 0.675405 18.3656 0.675405 18.3438H0.674805V13.4528C0.674805 13.3285 0.77553 13.2278 0.899805 13.2278C0.90873 13.2278 0.917505 13.2283 0.92613 13.2294L2.93418 13.4006C3.34015 13.1785 5.66703 11.9754 7.69196 12.3984L13.0002 13.5081C13.479 13.5753 13.8004 13.8771 13.9314 14.2317C13.9857 14.3784 14.0069 14.5356 13.9928 14.6902C13.9785 14.8466 13.9276 14.9994 13.8379 15.1354C13.634 15.4446 13.2369 15.6618 12.6249 15.6191L12.6207 15.6188L9.30896 15.5388L9.9376 16.4269L13.0683 17.3436ZM17.0975 16.9652C17.561 16.7025 17.7497 16.4522 17.7667 16.2502C17.7725 16.1821 17.7569 16.1196 17.7255 16.0653C17.6898 16.0035 17.6347 15.9496 17.5669 15.9071C17.3635 15.7797 17.0604 15.7521 16.7946 15.8919L14.2134 17.2488L17.0975 16.9652Z" fill="black"/>
</svg>
