<svg width="18" height="19" viewBox="0 0 18 19" fill="none" xmlns="http://www.w3.org/2000/svg">
<path d="M10 0.5H8V10.5H10V0.5ZM14.83 2.67L13.41 4.09C14.2199 4.73968 14.8733 5.5633 15.3216 6.4998C15.77 7.43631 16.0018 8.4617 16 9.5C16 13.37 12.87 16.5 9 16.5C7.55522 16.5009 6.14562 16.0543 4.96486 15.2218C3.78409 14.3892 2.89009 13.2114 2.40569 11.8503C1.92129 10.4891 1.87024 9.01137 2.25957 7.62004C2.6489 6.22871 3.4595 4.99206 4.58 4.08L3.17 2.67C2.17622 3.50901 1.37765 4.55492 0.830111 5.73463C0.28257 6.91435 -0.00073333 8.19941 1.42556e-06 9.5C1.46112e-06 11.8869 0.948213 14.1761 2.63604 15.864C4.32387 17.5518 6.61305 18.5 9 18.5C11.3869 18.5 13.6761 17.5518 15.364 15.864C17.0518 14.1761 18 11.8869 18 9.5C18 6.76 16.77 4.32 14.83 2.67Z" fill="black"/>
</svg>
