<svg width="195" height="630" viewBox="0 0 195 630" fill="none" xmlns="http://www.w3.org/2000/svg">
<path d="M92.008 577.422H88.5574L70.0721 577.656C70.0721 577.656 66.1286 595.708 63.9103 603.21C63.9103 603.679 63.4174 604.851 63.171 605.789C62.9245 607.195 62.678 608.367 62.678 609.774C63.1709 616.573 65.6356 622.433 72.2903 625.481C79.438 628.763 84.8603 632.045 92.2545 625.481C99.6486 618.917 100.881 614.931 97.9233 603.444C94.7192 592.191 93.7333 577.656 92.008 577.422Z" fill="#4B44BE"/>
<path d="M169.647 599.928C156.83 596.177 148.204 579.532 148.204 579.532L126.268 578.36C126.268 578.36 125.035 595.239 124.542 603.679C123.803 614.932 125.775 620.089 133.662 619.386C144.014 618.683 185.914 622.199 192.568 618.214C201.195 612.822 181.477 603.444 169.647 599.928Z" fill="#4B44BE"/>
<path d="M38.7698 279.22V304.07L70.3181 577.656H92.7469C92.7469 577.656 100.387 390.108 100.387 383.544C100.387 376.98 102.359 356.584 102.359 356.584C102.359 356.584 130.457 433.713 130.95 440.043C131.443 446.373 126.267 579.297 126.267 579.297L148.696 580.235C148.696 580.235 168.167 490.446 168.167 482.007C168.167 473.567 174.822 429.259 173.836 420.819C172.85 412.38 156.336 280.158 156.336 280.158L122.077 279.22H38.7698Z" fill="url(#paint0_linear_19_197)"/>
<path d="M183.449 250.385L183.202 249.916C183.202 250.385 183.202 250.619 183.449 250.385ZM117.888 226.473L105.318 231.396L104.578 247.806L118.381 252.964C118.381 252.964 133.415 252.495 133.415 252.26C133.415 251.557 139.331 251.792 142.042 253.433L188.871 238.194L190.596 227.645C190.596 227.645 194.047 241.008 178.519 214.048L117.888 226.473ZM173.59 172.318L172.604 166.926L170.139 166.457L173.59 172.318ZM87.3252 29.3127C81.6563 31.6571 78.6987 39.6279 78.6987 39.6279C78.6987 39.6279 75.9875 37.9868 75.9875 42.4411C75.9875 46.8953 78.4522 57.2105 79.9311 59.7893C82.8887 64.2435 85.5999 68.6978 88.0646 73.3865C90.2828 78.0752 89.5434 87.687 87.0787 89.0936C84.614 90.5003 42.2211 126.838 42.2211 126.838L7.22217 229.286V233.271L12.6446 235.147L18.3134 239.601C18.8063 239.601 25.9539 243.352 26.9398 244.055C32.6087 246.634 38.524 248.744 44.4393 249.916C48.3828 250.619 65.8822 250.385 65.8822 250.385L83.6281 249.916L80.6704 228.348L54.2981 228.114L18.3134 226.473L54.791 146.765L169.646 166.223C149.189 131.058 126.268 91.6724 124.296 87.4526C122.571 84.1705 124.296 75.9653 125.282 71.7454C126.268 67.9945 128.239 63.0713 129.965 61.6647C131.936 60.2581 135.141 53.9284 135.141 51.3496C135.141 48.7708 135.88 37.9868 133.662 40.3311C132.922 41.0345 130.211 37.0491 129.225 32.8292C127.746 26.9684 123.31 22.7485 118.381 18.9976C118.381 18.9976 92.994 26.9684 87.3252 29.0783" fill="url(#paint1_linear_19_197)"/>
<path d="M43.2066 105.035C37.5377 108.552 32.6083 113.475 30.6365 119.57C28.6648 125.9 15.3553 174.194 13.6301 180.523C9.19358 195.527 6.72888 199.747 1.553 217.564C-4.85524 239.366 9.68652 242.649 24.7212 245.696C40.2489 248.978 40.2489 250.385 43.9459 250.385C44.4389 250.385 62.9242 253.901 63.4171 244.055C63.9101 237.725 62.6777 227.879 60.213 228.114C54.5442 228.817 36.3053 224.363 35.3195 223.659C34.0871 222.956 39.263 209.359 42.2207 200.919C44.4389 194.589 52.8189 168.802 54.7906 164.113C55.7765 161.534 50.1077 189.197 46.6571 216.392C46.6571 217.33 45.1783 227.879 45.6713 227.879C49.8613 227.879 61.1989 228.114 64.896 228.348C80.9166 230.224 84.1207 237.491 83.1348 243.352C81.4095 253.433 42.2206 248.744 42.4671 250.151C42.4671 250.151 35.8124 278.986 39.5095 280.861C42.7136 282.503 86.5854 299.851 95.9513 303.133C96.9372 303.602 98.1695 303.133 98.416 301.961L104.331 285.785C104.331 285.55 104.578 285.55 104.824 285.55C104.824 285.55 105.071 285.55 105.071 285.785L110.74 303.602C110.74 304.071 111.232 304.539 111.725 304.539H114.19L162.991 294.459C162.991 294.459 162.745 276.173 162.745 252.729C162.745 250.385 162.252 241.711 160.527 243.352C158.801 244.993 118.134 250.15 113.697 248.275C104.331 244.524 106.796 235.147 110 231.396C113.697 226.941 161.759 224.831 162.005 221.549C162.745 207.249 161.512 169.505 160.773 174.194C159.541 181.227 131.443 219.908 131.443 226.707C131.443 233.506 130.95 250.385 130.95 250.385L177.04 247.103C177.04 247.103 192.568 241.945 193.8 233.506C195.279 225.066 193.554 221.315 192.814 208.655C192.321 200.685 180.491 152.391 177.04 138.794C176.547 136.684 176.301 134.574 176.054 132.464C175.561 126.838 173.343 113.709 160.527 107.848C144.753 100.581 132.182 94.9545 128.978 94.9545C126.021 94.9545 117.887 111.834 113.697 116.757C111.725 118.867 112.218 120.039 109.754 123.087C108.521 124.728 106.057 124.962 104.331 124.024C103.838 123.79 103.592 123.321 103.345 123.087C101.867 121.211 100.881 119.101 99.6483 116.991C97.6766 113.475 83.1348 92.8446 83.1348 92.8446C83.1348 92.8446 48.8754 101.284 43.2066 105.035Z" fill="url(#paint2_linear_19_197)"/>
<path d="M118.38 19.232C118.38 19.232 87.3251 30.2505 85.1069 31.8915C82.8886 33.5325 78.6986 39.6279 78.6986 39.6279C78.6986 39.6279 76.4804 38.4557 75.9874 41.5033C75.9874 41.5033 72.7833 35.1736 72.5368 31.8915C72.0439 28.375 72.5368 19.4664 78.4521 13.6056C84.3674 7.74469 96.4445 -0.22608 103.839 0.946095C111.233 1.88383 114.437 2.82157 119.12 7.27583C123.803 11.7301 127.746 13.1367 129.225 13.6056C130.704 14.3089 135.88 18.0598 136.866 24.8585C137.852 31.6571 135.387 45.4887 135.387 45.4887C135.387 45.4887 136.126 40.0967 133.908 41.7378C132.429 42.9099 129.965 37.9868 129.225 34.9392C127.993 32.1259 120.106 20.1698 118.38 19.232Z" fill="url(#paint3_linear_19_197)"/>
<g opacity="0.07">
<g opacity="0.07">
<g opacity="0.07">
<g opacity="0.07">
<g opacity="0.07">
<path opacity="0.07" d="M128.732 94.7201C128.485 94.2513 132.183 96.5956 127.993 93.7824C122.077 89.797 125.035 73.1521 125.035 73.1521C122.817 77.6064 119.12 80.8885 114.437 82.5295C107.043 85.1083 104.824 83.2328 116.162 89.5626C127.5 95.8923 121.584 98.0022 120.845 106.207" fill="black"/>
</g>
</g>
</g>
</g>
</g>
<g opacity="0.07">
<g opacity="0.07">
<g opacity="0.07">
<g opacity="0.07">
<g opacity="0.07">
<path opacity="0.07" d="M151.654 153.563L167.182 209.359C167.182 209.359 167.182 219.205 163.978 220.846C161.02 222.253 151.161 223.19 148.943 224.128C146.725 225.066 123.063 229.755 129.225 221.784C130.704 219.908 162.745 209.359 148.45 198.106C134.155 186.853 136.619 171.38 143.52 160.596C150.422 149.812 148.943 140.669 148.943 140.669L151.654 153.563Z" fill="black"/>
</g>
</g>
</g>
</g>
</g>
<g opacity="0.07">
<g opacity="0.07">
<g opacity="0.07">
<g opacity="0.07">
<g opacity="0.07">
<path opacity="0.07" d="M86.093 300.554C86.093 300.554 72.7836 368.071 79.6848 395.031C90.283 436.058 75.0018 491.384 75.0018 517.875C75.0018 535.224 82.1495 582.814 82.6424 602.272C82.6424 608.133 87.3254 619.386 83.8748 622.199C82.396 623.371 74.016 620.793 69.333 618.683C66.8683 617.51 65.3894 615.166 65.8824 612.587L68.5936 601.1L72.5371 585.862L44.686 338.767C44.686 338.767 35.813 283.675 40.7424 283.675C45.9183 283.206 86.093 300.554 86.093 300.554Z" fill="black"/>
</g>
</g>
</g>
</g>
</g>
<path d="M73.277 209.593L125.775 215.923C126.761 216.157 127.501 217.095 127.501 218.267L126.022 263.279C126.022 264.685 125.036 266.561 123.557 266.092L71.3052 256.48C70.3193 256.246 69.5799 255.308 69.5799 254.37L69.3335 249.447L75.0023 248.041C76.4811 247.572 77.96 246.868 78.9458 246.165C79.1923 245.931 79.4388 245.696 79.6852 245.462L80.9176 243.821C81.4105 243.352 81.4106 242.649 81.4106 241.945C81.1641 241.008 80.9176 239.601 80.6711 238.663C80.6711 238.429 80.4247 238.194 80.4247 237.96L79.1923 235.381C78.6994 234.209 77.7135 233.271 76.2346 232.568L75.4953 232.099L69.8264 229.286L70.3194 211.703C70.3194 210.531 71.3052 209.593 72.7841 209.593C73.277 209.593 73.277 209.593 73.277 209.593Z" fill="white"/>
<defs>
<linearGradient id="paint0_linear_19_197" x1="38.6529" y1="429.568" x2="173.839" y2="429.568" gradientUnits="userSpaceOnUse">
<stop stop-color="#4F68CA"/>
<stop offset="1" stop-color="#5ACEED"/>
</linearGradient>
<linearGradient id="paint1_linear_19_197" x1="7.31213" y1="136.319" x2="190.827" y2="136.319" gradientUnits="userSpaceOnUse">
<stop stop-color="#F87B58"/>
<stop offset="0.41" stop-color="#F89453"/>
<stop offset="0.71" stop-color="#F8C548"/>
<stop offset="1" stop-color="#F89C51"/>
</linearGradient>
<linearGradient id="paint2_linear_19_197" x1="0.0337502" y1="198.629" x2="194.01" y2="198.629" gradientUnits="userSpaceOnUse">
<stop stop-color="#E1A1ED"/>
<stop offset="1" stop-color="#7658F4"/>
</linearGradient>
<linearGradient id="paint3_linear_19_197" x1="72.3641" y1="23.0191" x2="136.937" y2="23.0191" gradientUnits="userSpaceOnUse">
<stop stop-color="#5ACEED"/>
<stop offset="0.55" stop-color="#4F68CA"/>
<stop offset="1" stop-color="#5282D3"/>
</linearGradient>
</defs>
</svg>
