<svg width="26" height="18" viewBox="0 0 26 18" fill="none" xmlns="http://www.w3.org/2000/svg">
<path d="M23.9839 0H1.61615C0.725 0 0 0.725 0 1.61615V15.9578C0 16.8487 0.725 17.5737 1.61615 17.5737H23.9839C24.875 17.5737 25.6 16.8487 25.6 15.9578V1.61615C25.6 0.725 24.875 0 23.9839 0ZM23.5317 1.06667L12.8 9.91094L2.06781 1.06667H23.5317ZM1.06667 15.9506V1.6234L9.75912 8.78695L1.06667 15.9506ZM2.06807 16.507L10.5975 9.47783L12.4609 11.0135C12.5594 11.0948 12.6797 11.1354 12.8 11.1354C12.9203 11.1354 13.0406 11.0948 13.1391 11.0135L15.0025 9.4778L23.5314 16.507H2.06807ZM24.5333 15.9509L15.8408 8.78691L24.5333 1.62301V15.9509Z" fill="white"/>
</svg>
