<svg width="330" height="258" viewBox="0 0 330 258" fill="none" xmlns="http://www.w3.org/2000/svg">
<g clip-path="url(#clip0_1_262)">
<path opacity="0.26" d="M308.659 214.682C308.725 190.889 244.705 171.422 165.667 171.201C86.6277 170.98 22.5002 190.09 22.4338 213.883C22.3673 237.677 86.3871 257.144 165.426 257.365C244.465 257.585 308.592 238.476 308.659 214.682Z" fill="url(#paint0_linear_1_262)"/>
<path d="M213.8 145.412L93.9011 212.959C89.516 215.362 84.2233 215.429 79.7788 213.137L16.6242 171.869C13.2532 169.647 13.815 166.046 17.9011 163.722L137.902 96.175C142.288 93.7717 147.58 93.7047 152.025 95.9962L218.78 132.234C222.177 134.456 217.886 143.011 213.8 145.412Z" fill="#1C76BA"/>
<path d="M140.278 101.665L20.4299 169.391C16.1906 171.792 12.0535 168.855 11.2619 162.905L1.27664 84.07C0.510506 78.324 3.19196 71.8885 7.27798 69.5646L127.126 1.83876C131.365 -0.561776 135.502 2.37505 136.294 8.32532L146.279 87.16C147.046 92.906 144.364 99.3415 140.278 101.665Z" fill="#1C76BA"/>
<path d="M215.997 138.95L96.1236 206.497C91.7385 208.901 86.4458 208.968 82.0013 206.676L18.8466 165.407C15.4501 163.186 16.012 159.585 20.1235 157.286L139.997 89.7138C144.395 87.3589 149.664 87.2922 154.12 89.535L217.274 130.829C220.671 133.026 220.109 136.652 215.997 138.95Z" fill="url(#paint1_linear_1_262)"/>
<path d="M5.05615 80.3415L14.8371 159.559L142.117 88.5391L131.927 8.55518L5.05615 80.3415Z" fill="url(#paint2_linear_1_262)"/>
<path d="M32.0493 159.559L148.067 95.051L184.33 118.239L70.5856 184.918L32.0493 159.559Z" fill="#1C76BA"/>
<path d="M119.695 162.215L138.312 175.954L170.54 157.312L151.515 143.317L119.695 162.215Z" fill="url(#paint3_linear_1_262)"/>
<path d="M242.863 235.304L322.617 187.932C328.516 184.51 327.725 178.559 320.957 174.626L266.996 143.471C260.177 139.538 249.86 139.104 244.012 142.526L164.207 189.898C158.333 193.32 159.048 199.194 165.995 203.203L219.956 234.359C226.646 238.292 236.938 238.726 242.863 235.304Z" fill="#1C76BA"/>
<path d="M325.4 185.582L245.646 233.005C239.747 236.402 229.43 235.968 222.662 232.035L173.4 203.586L168.804 201.032C161.959 197.099 161.142 191.149 167.144 187.702L246.872 140.329C252.797 136.933 263.114 137.367 269.856 141.3L274.606 144.058L323.843 172.456C330.585 176.21 331.325 182.185 325.4 185.582Z" fill="url(#paint4_linear_1_262)"/>
<path d="M255.044 180.143L272.64 177.052L310.972 164.897L298.893 157.95L255.044 173.733V180.143Z" fill="url(#paint5_linear_1_262)"/>
<path d="M274.555 143.905L173.4 203.586L168.804 201.032C161.959 197.099 161.142 191.149 167.144 187.702L246.872 140.329C252.797 136.933 263.114 137.367 269.856 141.3L274.555 143.905Z" fill="#1C76BA"/>
<path d="M294.066 103.606C294.09 103.793 294.09 103.982 294.066 104.168C294.043 104.445 293.965 104.714 293.836 104.96L260.484 175.776L255.121 180.143V173.656L287.936 102.151C288.038 101.91 288.176 101.686 288.345 101.487C289.223 100.415 290.681 100.014 291.984 100.484C293.287 100.955 294.152 102.196 294.142 103.581L294.066 103.606Z" fill="url(#paint6_linear_1_262)"/>
<path d="M294.066 103.606C294.091 103.793 294.091 103.982 294.066 104.168C293.139 104.485 292.132 104.485 291.205 104.168C289.889 103.841 288.819 102.885 288.345 101.614C289.223 100.543 290.681 100.141 291.984 100.612C293.287 101.083 294.152 102.323 294.142 103.709L294.066 103.606Z" fill="url(#paint7_linear_1_262)"/>
<path d="M293.559 98.4036L293.327 98.298C292.749 98.0356 292.068 98.2914 291.805 98.8693L290.876 100.916C290.614 101.493 290.869 102.175 291.447 102.437L291.68 102.543C292.258 102.805 292.939 102.549 293.201 101.971L294.13 99.925C294.393 99.3471 294.137 98.666 293.559 98.4036Z" fill="url(#paint8_linear_1_262)"/>
<path d="M105.496 94.898L53.0926 125.16L47.0146 80.7246L99.4179 50.4625L105.496 94.898Z" fill="url(#paint9_linear_1_262)"/>
<path d="M24.6691 133.128L14.6839 138.772L8.60596 94.3361L18.5912 88.6923L24.6691 133.128Z" fill="url(#paint10_linear_1_262)"/>
<path d="M133.638 44.0271L110.603 56.8981L108.177 34.6804L131.212 21.8094L133.638 44.0271Z" fill="url(#paint11_linear_1_262)"/>
<path d="M136.703 70.1521L113.668 82.9975L111.267 60.7798L134.302 47.9343L136.703 70.1521Z" fill="url(#paint12_linear_1_262)"/>
<path d="M6.25642 90.1224L133.076 17.4934L131.927 8.55518L5.05615 80.3415L6.25642 90.1224Z" fill="url(#paint13_linear_1_262)"/>
</g>
<defs>
<linearGradient id="paint0_linear_1_262" x1="-3.06189" y1="214.818" x2="282.271" y2="213.368" gradientUnits="userSpaceOnUse">
<stop stop-color="#68E1FD"/>
<stop offset="1" stop-color="#69B9EB"/>
</linearGradient>
<linearGradient id="paint1_linear_1_262" x1="111.395" y1="128.757" x2="114.547" y2="154.747" gradientUnits="userSpaceOnUse">
<stop stop-color="#68E1FD"/>
<stop offset="1" stop-color="#69B9EB"/>
</linearGradient>
<linearGradient id="paint2_linear_1_262" x1="100.632" y1="127.407" x2="95.2102" y2="120.289" gradientUnits="userSpaceOnUse">
<stop stop-color="#68E1FD"/>
<stop offset="1" stop-color="#69B9EB"/>
</linearGradient>
<linearGradient id="paint3_linear_1_262" x1="130.804" y1="144.947" x2="150.123" y2="193.233" gradientUnits="userSpaceOnUse">
<stop stop-color="#68E1FD"/>
<stop offset="1" stop-color="#69B9EB"/>
</linearGradient>
<linearGradient id="paint4_linear_1_262" x1="165.024" y1="186.578" x2="330.865" y2="186.578" gradientUnits="userSpaceOnUse">
<stop stop-color="#68E1FD"/>
<stop offset="1" stop-color="#69B9EB"/>
</linearGradient>
<linearGradient id="paint5_linear_1_262" x1="304.128" y1="160.773" x2="298.637" y2="174.508" gradientUnits="userSpaceOnUse">
<stop stop-color="#68E1FD"/>
<stop offset="1" stop-color="#69B9EB"/>
</linearGradient>
<linearGradient id="paint6_linear_1_262" x1="274.107" y1="140.151" x2="279.442" y2="140.781" gradientUnits="userSpaceOnUse">
<stop stop-color="#68E1FD"/>
<stop offset="1" stop-color="#69B9EB"/>
</linearGradient>
<linearGradient id="paint7_linear_1_262" x1="293.555" y1="99.7614" x2="292.45" y2="102.489" gradientUnits="userSpaceOnUse">
<stop stop-color="#68E1FD"/>
<stop offset="1" stop-color="#69B9EB"/>
</linearGradient>
<linearGradient id="paint8_linear_1_262" x1="292.979" y1="103.757" x2="293.441" y2="104.041" gradientUnits="userSpaceOnUse">
<stop stop-color="#68E1FD"/>
<stop offset="1" stop-color="#69B9EB"/>
</linearGradient>
<linearGradient id="paint9_linear_1_262" x1="68.7574" y1="56.7448" x2="154.029" y2="273.338" gradientUnits="userSpaceOnUse">
<stop stop-color="#68E1FD"/>
<stop offset="1" stop-color="#69B9EB"/>
</linearGradient>
<linearGradient id="paint10_linear_1_262" x1="15.5564" y1="87.0323" x2="83.5786" y2="259.851" gradientUnits="userSpaceOnUse">
<stop stop-color="#68E1FD"/>
<stop offset="1" stop-color="#69B9EB"/>
</linearGradient>
<linearGradient id="paint11_linear_1_262" x1="117.835" y1="24.5164" x2="158.039" y2="126.688" gradientUnits="userSpaceOnUse">
<stop stop-color="#68E1FD"/>
<stop offset="1" stop-color="#69B9EB"/>
</linearGradient>
<linearGradient id="paint12_linear_1_262" x1="120.921" y1="50.6413" x2="161.122" y2="152.781" gradientUnits="userSpaceOnUse">
<stop stop-color="#68E1FD"/>
<stop offset="1" stop-color="#69B9EB"/>
</linearGradient>
<linearGradient id="paint13_linear_1_262" x1="62.1328" y1="42.1648" x2="86.9767" y2="105.261" gradientUnits="userSpaceOnUse">
<stop stop-color="#68E1FD"/>
<stop offset="1" stop-color="#69B9EB"/>
</linearGradient>
<clipPath id="clip0_1_262">
<rect width="329.436" height="257.93" fill="white"/>
</clipPath>
</defs>
</svg>
