<svg width="488" height="377" viewBox="0 0 488 377" fill="none" xmlns="http://www.w3.org/2000/svg">
<g clip-path="url(#clip0_1_450)">
<path d="M279.773 193.39C279.773 193.39 363.326 269.746 344.507 295.198C329.309 315.772 288.448 330.193 273.37 334.97C269.751 336.111 265.831 335.817 262.423 334.147L171.765 289.858C170.947 289.454 170.278 288.8 169.857 287.99C169.436 287.18 169.285 286.257 169.425 285.355C169.565 284.453 169.99 283.619 170.637 282.975C171.284 282.331 172.119 281.91 173.022 281.774C191.545 279.003 222.799 272.878 231.954 262.004C245.239 246.234 182.713 185.094 182.713 185.094L279.773 193.39Z" fill="#68E1FD"/>
<path d="M279.773 193.39C279.773 193.39 363.326 269.746 344.507 295.198C329.309 315.772 288.448 330.193 273.37 334.97C269.751 336.111 265.831 335.817 262.423 334.147L171.765 289.858C170.947 289.454 170.278 288.8 169.857 287.99C169.436 287.18 169.285 286.257 169.425 285.355C169.565 284.453 169.99 283.619 170.637 282.975C171.284 282.331 172.119 281.91 173.022 281.774C191.545 279.003 222.799 272.878 231.954 262.004C245.239 246.234 182.713 185.094 182.713 185.094L279.773 193.39Z" fill="url(#paint0_linear_1_450)"/>
<path d="M280.327 187.578C280.327 187.578 363.87 263.935 345.061 289.387C329.854 309.961 289.002 324.382 273.878 329.158C270.259 330.3 266.339 330.006 262.931 328.336L172.273 284.065C171.454 283.662 170.786 283.007 170.365 282.197C169.944 281.387 169.793 280.464 169.933 279.562C170.073 278.66 170.497 277.826 171.144 277.182C171.791 276.538 172.627 276.118 173.53 275.982C192.053 273.21 223.307 267.085 232.462 256.211C245.747 240.441 183.221 179.301 183.221 179.301L280.327 187.578Z" fill="#68E1FD"/>
<path d="M226.097 262.419L319.886 311.383C319.886 311.383 334.409 303.069 336.904 297.276C339.398 291.484 245.193 247.481 245.193 247.481L232.462 256.193L226.097 262.419Z" fill="url(#paint1_linear_1_450)"/>
<path d="M337.439 306.7L142.858 208.31C134.322 203.995 129.065 196.013 129.065 187.384V30.1913C129.065 11.5942 152.05 -0.0370396 170.435 9.26613L365.044 107.693C373.58 112.007 378.837 119.99 378.837 128.618V285.765C378.809 304.39 355.805 315.993 337.439 306.7Z" fill="#68E1FD"/>
<path d="M378.818 128.628V285.774C378.818 296.676 370.92 305.175 360.683 308.473C353.008 310.965 344.66 310.331 337.448 306.709L142.849 208.31C134.322 203.986 129.065 196.004 129.065 187.384V30.2007C129.065 22.3757 133.13 15.7979 139.227 11.502C143.745 8.33916 149.035 6.46089 154.536 6.06719C160.036 5.67348 165.541 6.77908 170.463 9.26623L365.044 107.693C373.553 112.017 378.818 119.98 378.818 128.628Z" fill="url(#paint2_linear_1_450)"/>
<path d="M370.873 132.6V289.747C370.873 297.591 366.79 304.168 360.711 308.473C353.036 310.965 344.687 310.331 337.476 306.709L142.849 208.31C134.322 203.986 129.065 196.004 129.065 187.384V30.2007C129.065 22.3757 133.13 15.7978 139.227 11.5019C143.038 10.2457 147.058 9.75255 151.059 10.0506C155.06 10.3486 158.963 11.4319 162.545 13.2388L357.09 111.666C365.617 115.989 370.873 123.953 370.873 132.6Z" fill="url(#paint3_linear_1_450)"/>
<path d="M174.648 136.887L344.036 222.805C345.113 223.355 346 224.216 346.58 225.278C347.16 226.339 347.407 227.551 347.288 228.754C347.193 229.718 346.867 230.644 346.337 231.454C345.807 232.264 345.089 232.934 344.244 233.407C343.399 233.88 342.453 234.141 341.485 234.169C340.517 234.197 339.557 233.991 338.687 233.568L151.441 142.855C150.243 142.275 149.271 141.313 148.679 140.121C148.087 138.928 147.908 137.573 148.17 136.268L148.798 133.09C148.967 132.245 149.314 131.447 149.818 130.749C150.322 130.051 150.97 129.469 151.718 129.043C152.466 128.617 153.297 128.357 154.155 128.281C155.012 128.204 155.876 128.313 156.688 128.6C156.688 128.6 174.408 136.767 174.648 136.887Z" fill="url(#paint4_linear_1_450)"/>
<path d="M298.527 199.829L164.698 267.528C155.986 271.944 140.78 271.381 130.728 266.309L49.7065 225.336C42.8515 221.862 40.1724 217.206 41.9092 213.187C42.9716 215.756 45.6046 218.269 49.7065 220.357L117.665 254.724L127.513 259.676L130.728 261.32C131.075 261.514 131.436 261.681 131.809 261.819C132.254 262.046 132.71 262.25 133.176 262.429C133.595 262.617 134.023 262.78 134.46 262.918C134.76 263.043 135.069 263.145 135.384 263.223C135.948 263.417 136.53 263.602 137.121 263.768C137.699 263.962 138.288 264.12 138.886 264.239C139.493 264.408 140.11 264.54 140.733 264.637C141.953 264.868 143.2 265.08 144.429 265.228C144.798 265.274 145.177 265.32 145.574 265.339C145.972 265.357 146.498 265.431 147.006 265.459C153.584 265.856 160.07 264.914 164.698 262.567L293.594 197.362L298.527 199.829Z" fill="#68E1FD"/>
<path d="M298.527 199.829L164.698 267.528C155.986 271.944 140.78 271.381 130.728 266.309L49.7065 225.336C42.8515 221.862 40.1724 217.206 41.9092 213.187C42.9716 215.756 45.6046 218.269 49.7065 220.357L117.665 254.724L127.513 259.676L130.728 261.32C131.075 261.514 131.436 261.681 131.809 261.819C132.252 262.031 132.733 262.244 133.176 262.429C133.595 262.617 134.023 262.78 134.46 262.918C134.775 263.038 135.079 263.131 135.384 263.223C135.948 263.417 136.53 263.602 137.121 263.768C137.712 263.935 138.294 264.092 138.886 264.239C139.477 264.387 140.105 264.517 140.733 264.637C141.953 264.868 143.2 265.08 144.429 265.228C144.798 265.274 145.205 265.32 145.574 265.339C145.944 265.357 146.498 265.431 147.006 265.459C153.584 265.856 160.07 264.914 164.698 262.567L293.594 197.362L298.527 199.829Z" fill="url(#paint5_linear_1_450)"/>
<path d="M293.593 197.362L164.698 262.567C157.252 266.355 145.057 266.494 135.384 263.223C134.154 262.861 132.957 262.391 131.809 261.819C131.436 261.681 131.075 261.514 130.728 261.32L127.513 259.676L117.665 254.724L49.7063 220.32C45.6044 218.232 42.9714 215.7 41.909 213.151C40.4123 209.455 42.1215 205.76 47.295 203.127L175.313 138.365L261.878 181.509L279.431 190.276L293.593 197.362Z" fill="#68E1FD"/>
<path d="M84.24 220.477C84.046 222.86 85.5981 225.096 87.6028 226.454C89.6806 227.665 91.9584 228.494 94.3285 228.902C109.646 232.505 125.416 236.118 140.974 233.734C142.179 233.669 143.328 233.2 144.235 232.404C145.159 231.369 145.233 229.798 145.824 228.514C147.062 225.798 150.443 224.819 153.455 224.819C156.467 224.819 159.488 225.512 162.379 224.763C165.271 224.015 167.922 221.068 166.888 218.223C166.222 216.43 164.366 215.451 162.629 214.638C147.906 207.821 131.826 204.444 115.605 204.762C108.842 204.947 105.756 207.072 100.084 210.047C95.5295 212.439 84.7851 213.853 84.24 220.477Z" fill="url(#paint6_linear_1_450)"/>
<path d="M261.877 181.555L279.449 190.313L135.375 263.232L135.024 263.417L131.809 261.819L127.504 259.676L117.544 254.77L117.665 254.724L261.877 181.555Z" fill="url(#paint7_linear_1_450)"/>
<path d="M345.532 156.888L345.107 157.101C344.051 156.288 342.918 155.579 341.726 154.985L345.532 156.888Z" fill="url(#paint8_linear_1_450)"/>
<path d="M345.532 156.888L345.107 157.101C344.051 156.288 342.918 155.579 341.726 154.985L345.532 156.888Z" fill="#68E1FD"/>
<path d="M370.873 274.882V289.747C370.873 297.59 366.79 304.168 360.711 308.473C353.036 310.965 344.687 310.331 337.476 306.709L142.849 208.31C134.322 203.986 129.065 196.004 129.065 187.384V152.472L129.933 151.807L370.873 274.882Z" fill="url(#paint9_linear_1_450)"/>
<path d="M289.99 163.965L201.763 118.798C193.014 114.317 185.549 102.169 185.133 91.5906L184.912 86.5094C184.459 75.959 191.185 71.0441 199.934 75.5248L288.161 120.692C296.91 125.163 304.375 137.321 304.79 147.899L305.012 152.98C305.465 163.521 298.739 168.446 289.99 163.965Z" fill="#68E1FD"/>
<path d="M215.149 112.774C215.256 111.916 215.302 111.052 215.288 110.188V100.45C215.294 99.5461 215.248 98.6423 215.149 97.7434C215.962 98.2515 216.591 98.6673 217.708 99.2862L221.524 101.503C224.979 103.499 226.873 106.317 226.873 109.449C226.873 112.58 224.887 113.403 221.506 111.444L218.734 109.846V112.146C218.733 113.072 218.78 113.997 218.873 114.918L215.149 112.774ZM221.348 108.294C222.568 108.996 223.289 108.71 223.289 107.472C223.271 106.84 223.081 106.226 222.739 105.695C222.397 105.164 221.916 104.737 221.348 104.46L218.752 102.991V106.825L221.348 108.294Z" fill="white"/>
<path d="M244.14 129.598C244.041 128.864 243.902 128.136 243.724 127.417L243.253 125.57L238.283 122.687L237.821 123.944C237.605 124.49 237.456 125.061 237.377 125.643L233.303 123.315C233.636 122.774 233.914 122.202 234.135 121.606L237.904 112.959C238.166 112.435 238.358 111.879 238.477 111.305L243.031 113.948C243.187 114.721 243.384 115.486 243.623 116.239L247.401 129.265C247.734 130.411 248.011 131.316 248.242 131.953L244.14 129.598ZM240.74 115.74L239.123 120.202L242.403 122.105L240.74 115.74Z" fill="white"/>
<path d="M263.208 137.995C263.2 138.921 263.246 139.847 263.347 140.767L259.54 138.559C259.639 137.7 259.685 136.836 259.679 135.972V132.646L255.679 123.519C255.365 122.77 254.977 121.957 254.284 120.525L258.69 123.084C258.899 123.894 259.174 124.685 259.513 125.449L261.444 130.226L263.374 127.713C263.739 127.293 264.012 126.802 264.178 126.272L268.594 128.858C268.086 129.32 267.421 129.967 267.199 130.226L263.208 134.716V137.995Z" fill="white"/>
<path d="M106.597 181.518L106.07 181.269L109.452 174.229C109.774 173.467 110.203 172.754 110.727 172.113C111.257 171.516 111.936 171.07 112.694 170.82C112.87 170.759 113.054 170.724 113.239 170.718C113.539 170.742 113.822 170.866 114.043 171.069C114.718 171.759 115.116 172.673 115.161 173.638C115.474 175.93 115.383 178.259 114.893 180.52L114.32 180.4C114.801 178.207 114.892 175.946 114.588 173.721C114.56 172.897 114.231 172.111 113.664 171.513C113.546 171.392 113.389 171.317 113.221 171.3V171.3C113.11 171.302 113.001 171.324 112.898 171.365C112.234 171.584 111.641 171.976 111.179 172.501C110.694 173.101 110.296 173.767 109.997 174.478L106.597 181.518Z" fill="#68E1FD"/>
<path d="M116.602 179.31C116.682 182.328 116.799 185.349 116.953 188.373C117.008 192.512 117.586 196.628 118.672 200.623C118.777 200.846 118.837 201.087 118.849 201.333C118.86 201.579 118.821 201.824 118.736 202.055C118.517 202.358 118.211 202.586 117.859 202.711C114.477 204.272 111.022 205.843 107.327 206.277C104.095 206.508 100.846 206.293 97.6726 205.64C97.5477 205.628 97.4274 205.587 97.3215 205.52C97.1183 205.353 97.1552 205.03 97.2106 204.771C97.9405 201.205 97.4693 197.491 98.0051 193.888C98.541 190.285 100.13 186.867 101.701 183.532C102.384 182.082 103.16 182.082 104.722 181.758L110.375 180.594C110.893 180.483 116.602 179.467 116.602 179.31Z" fill="#68E1FD"/>
<path d="M116.602 179.31C116.682 182.328 116.799 185.349 116.953 188.373C117.008 192.512 117.586 196.628 118.672 200.623C118.777 200.846 118.837 201.087 118.849 201.333C118.86 201.579 118.821 201.824 118.736 202.055C118.517 202.358 118.211 202.586 117.859 202.711C114.477 204.272 111.022 205.843 107.327 206.277C104.095 206.508 100.846 206.293 97.6726 205.64C97.5477 205.628 97.4274 205.587 97.3215 205.52C97.1183 205.353 97.1552 205.03 97.2106 204.771C97.9405 201.205 97.4693 197.491 98.0051 193.888C98.541 190.285 100.13 186.867 101.701 183.532C102.384 182.082 103.16 182.082 104.722 181.758L110.375 180.594C110.893 180.483 116.602 179.467 116.602 179.31Z" fill="url(#paint10_linear_1_450)"/>
<path d="M120.409 136.111C118.681 136.407 117.582 138.079 116.713 139.594C115.296 141.849 114.111 144.242 113.175 146.735C112.394 149.301 111.911 151.949 111.734 154.625C111.41 158.071 111.207 161.517 111.124 164.981C111.124 166.071 111.198 167.383 112.159 167.919C112.533 168.091 112.951 168.145 113.357 168.074C113.763 168.003 114.138 167.811 114.431 167.522C115.01 166.928 115.435 166.202 115.669 165.406C116.593 162.893 116.954 160.214 117.961 157.748C118.598 156.168 119.476 154.699 120.187 153.128C122.59 147.589 122.756 141.335 120.649 135.677L120.409 136.111Z" fill="#68E1FD"/>
<path d="M120.409 136.111C118.681 136.407 117.582 138.079 116.713 139.594C115.296 141.849 114.111 144.242 113.175 146.735C112.394 149.301 111.911 151.949 111.734 154.625C111.41 158.071 111.207 161.517 111.124 164.981C111.124 166.071 111.198 167.383 112.159 167.919C112.533 168.091 112.951 168.145 113.357 168.074C113.763 168.003 114.138 167.811 114.431 167.522C115.01 166.928 115.435 166.202 115.669 165.406C116.593 162.893 116.954 160.214 117.961 157.748C118.598 156.168 119.476 154.699 120.187 153.128C122.59 147.589 122.756 141.335 120.649 135.677L120.409 136.111Z" fill="url(#paint11_linear_1_450)"/>
<path d="M110.727 170.81C110.639 171.808 110.845 172.81 111.318 173.693C111.557 174.132 111.923 174.49 112.368 174.719C112.812 174.948 113.316 175.038 113.812 174.977C114.325 174.846 114.777 174.542 115.092 174.116C115.407 173.69 115.565 173.169 115.54 172.64C115.48 172.217 115.48 171.788 115.54 171.365C115.595 171.143 115.716 170.94 115.771 170.718C115.956 169.97 115.42 169.231 115.328 168.464C115.235 167.697 115.494 167.06 115.189 166.45C114.806 165.973 114.266 165.647 113.666 165.531C113.065 165.414 112.443 165.514 111.909 165.812C110.875 166.625 110.764 169.628 110.727 170.81Z" fill="#F3A984"/>
<path d="M109.96 182.442L109.405 182.275L111.613 174.783C111.809 173.979 112.12 173.207 112.537 172.492C112.965 171.819 113.561 171.268 114.265 170.894C114.429 170.803 114.607 170.741 114.791 170.709C115.088 170.681 115.385 170.756 115.632 170.921C116.417 171.492 116.96 172.336 117.156 173.286C117.832 175.499 118.117 177.813 117.997 180.123H117.415C117.534 177.881 117.259 175.636 116.602 173.49C116.438 172.685 115.988 171.966 115.336 171.466C115.202 171.363 115.034 171.314 114.865 171.328C114.748 171.346 114.635 171.387 114.533 171.448C113.92 171.772 113.401 172.25 113.027 172.834C112.649 173.51 112.363 174.234 112.177 174.986L109.96 182.442Z" fill="#68E1FD"/>
<path d="M119.475 178.663C120.048 181.638 120.658 184.604 121.323 187.56C122.049 191.639 123.29 195.61 125.018 199.376C125.159 199.579 125.257 199.807 125.308 200.048C125.359 200.289 125.361 200.538 125.314 200.78C125.149 201.118 124.88 201.393 124.547 201.566C121.461 203.644 118.311 205.76 114.727 206.776C111.575 207.523 108.336 207.834 105.1 207.7C104.974 207.715 104.847 207.696 104.73 207.644C104.5 207.506 104.49 207.192 104.5 206.924C104.657 203.284 103.576 199.699 103.576 196.059C103.576 192.419 104.5 188.779 105.543 185.241C105.987 183.698 106.754 183.578 108.241 183.005L113.627 180.954C114.034 180.742 119.512 178.83 119.475 178.663Z" fill="#68E1FD"/>
<path d="M119.475 178.663C120.048 181.638 120.658 184.604 121.323 187.56C122.049 191.639 123.29 195.61 125.018 199.376C125.159 199.579 125.257 199.807 125.308 200.048C125.359 200.289 125.361 200.538 125.314 200.78C125.149 201.118 124.88 201.393 124.547 201.566C121.461 203.644 118.311 205.76 114.727 206.776C111.575 207.523 108.336 207.834 105.1 207.7C104.974 207.715 104.847 207.696 104.73 207.644C104.5 207.506 104.49 207.192 104.5 206.924C104.657 203.284 103.576 199.699 103.576 196.059C103.576 192.419 104.5 188.779 105.543 185.241C105.987 183.698 106.754 183.578 108.241 183.005L113.627 180.954C114.034 180.742 119.512 178.83 119.475 178.663Z" fill="url(#paint12_linear_1_450)"/>
<path d="M122.607 218.62C122.638 218.948 122.778 219.257 123.004 219.497C123.331 219.72 123.732 219.807 124.122 219.738C126.385 219.566 128.56 218.784 130.414 217.474C131.125 216.966 131.855 216.079 131.43 215.322C131.278 215.124 131.087 214.959 130.87 214.836C130.652 214.714 130.412 214.637 130.164 214.61C129.306 214.419 128.429 214.329 127.55 214.342C127.327 214.368 127.101 214.336 126.894 214.25C126.506 214.037 126.45 213.511 126.45 213.067C126.45 208.661 126.533 204.245 126.811 199.847C126.917 198.863 126.898 197.87 126.755 196.891C126.598 195.9 126.057 195.01 125.249 194.415C124.251 193.768 122.108 193.851 121.508 195.089C121.258 195.616 121.508 196.346 121.554 196.937C121.637 197.953 121.655 198.979 121.683 199.995C121.766 203.977 121.609 207.959 121.813 211.931C121.913 214.177 122.178 216.413 122.607 218.62V218.62Z" fill="#F3A984"/>
<path d="M127.199 214.777C127.147 214.865 127.114 214.963 127.101 215.065C127.088 215.166 127.096 215.27 127.125 215.368C127.222 215.938 127.124 216.524 126.848 217.031C126.284 217.955 125.064 218.093 124.021 218.038C123.485 218.038 122.847 217.992 122.542 218.435C122.405 218.693 122.354 218.987 122.395 219.276C122.395 219.645 122.441 220.015 122.496 220.384C122.503 220.512 122.541 220.635 122.607 220.745C122.699 220.858 122.826 220.939 122.967 220.976C124.001 221.205 125.082 221.058 126.016 220.56L131.217 218.472C133.065 217.742 133.73 216.07 131.642 215.017C130.82 214.62 127.799 213.982 127.199 214.777Z" fill="#68E1FD"/>
<path d="M127.199 214.777C127.147 214.865 127.114 214.963 127.101 215.065C127.088 215.166 127.096 215.27 127.125 215.368C127.222 215.938 127.124 216.524 126.848 217.031C126.284 217.955 125.064 218.093 124.021 218.038C123.485 218.038 122.847 217.992 122.542 218.435C122.405 218.693 122.354 218.987 122.395 219.276C122.395 219.645 122.441 220.015 122.496 220.384C122.503 220.512 122.541 220.635 122.607 220.745C122.699 220.858 122.826 220.939 122.967 220.976C124.001 221.205 125.082 221.058 126.016 220.56L131.217 218.472C133.065 217.742 133.73 216.07 131.642 215.017C130.82 214.62 127.799 213.982 127.199 214.777Z" fill="url(#paint13_linear_1_450)"/>
<path d="M132.733 222.426C132.757 222.77 132.897 223.095 133.13 223.35C133.457 223.571 133.859 223.654 134.248 223.581C136.521 223.389 138.7 222.581 140.548 221.243C141.26 220.744 141.99 219.858 141.555 219.1C141.405 218.901 141.217 218.735 141.001 218.611C140.785 218.488 140.546 218.409 140.299 218.379C139.44 218.192 138.563 218.105 137.684 218.121C137.461 218.144 137.235 218.109 137.028 218.019C136.64 217.816 136.585 217.28 136.576 216.837C136.576 212.433 136.699 208.029 136.945 203.626C137.053 202.638 137.032 201.641 136.881 200.66C136.806 200.17 136.636 199.7 136.379 199.277C136.122 198.854 135.784 198.485 135.384 198.193C134.386 197.537 132.243 197.63 131.642 198.868C131.393 199.385 131.642 200.115 131.689 200.715C131.763 201.732 131.79 202.748 131.818 203.764C131.901 207.746 131.744 211.728 131.947 215.71C132.037 217.965 132.3 220.21 132.733 222.426V222.426Z" fill="#F3A984"/>
<path d="M137.574 218.361C137.522 218.45 137.489 218.548 137.476 218.649C137.463 218.751 137.471 218.854 137.5 218.953C137.597 219.522 137.499 220.108 137.223 220.616C136.659 221.539 135.439 221.678 134.396 221.623C133.86 221.623 133.222 221.576 132.917 222.02C132.78 222.277 132.729 222.572 132.77 222.86C132.77 223.23 132.77 223.6 132.871 223.969C132.878 224.096 132.916 224.22 132.982 224.329C133.074 224.443 133.201 224.524 133.342 224.56C134.376 224.79 135.457 224.643 136.391 224.145L141.592 222.121C143.44 221.392 144.105 219.719 142.017 218.666C141.195 218.25 138.174 217.613 137.574 218.361Z" fill="#68E1FD"/>
<path d="M137.574 218.361C137.522 218.45 137.489 218.548 137.476 218.649C137.463 218.751 137.471 218.854 137.5 218.953C137.597 219.522 137.499 220.108 137.223 220.616C136.659 221.539 135.439 221.678 134.396 221.623C133.86 221.623 133.222 221.576 132.917 222.02C132.78 222.277 132.729 222.572 132.77 222.86C132.77 223.23 132.77 223.6 132.871 223.969C132.878 224.096 132.916 224.22 132.982 224.329C133.074 224.443 133.201 224.524 133.342 224.56C134.376 224.79 135.457 224.643 136.391 224.145L141.592 222.121C143.44 221.392 144.105 219.719 142.017 218.666C141.195 218.25 138.174 217.613 137.574 218.361Z" fill="url(#paint14_linear_1_450)"/>
<path d="M120.131 168.741C119.475 171.717 119.15 174.757 119.161 177.804L118.755 190.174C118.69 192.262 118.644 194.443 119.568 196.309C120.584 198.11 122.189 199.506 124.113 200.263C128.381 202.166 133.241 202.009 137.906 201.824C138.83 201.871 139.748 201.66 140.558 201.214C141.639 200.475 141.953 199.043 142.036 197.75C142.276 193.704 140.992 189.75 140.188 185.74C139.504 182.334 139.172 178.867 139.2 175.393C139.311 174.438 139.131 173.472 138.682 172.621C138.276 172.116 137.761 171.709 137.176 171.43C134.25 169.79 131.152 168.48 127.938 167.522C126.248 166.908 124.438 166.699 122.653 166.912C121.646 167.143 120.409 167.706 120.131 168.741Z" fill="#606161"/>
<path d="M120.131 168.741C119.475 171.717 119.15 174.757 119.161 177.804L118.755 190.174C118.69 192.262 118.644 194.443 119.568 196.309C120.584 198.11 122.189 199.506 124.113 200.263C128.381 202.166 133.241 202.009 137.906 201.824C138.83 201.871 139.748 201.66 140.558 201.214C141.639 200.475 141.953 199.043 142.036 197.75C142.276 193.704 140.992 189.75 140.188 185.74C139.504 182.334 139.172 178.867 139.2 175.393C139.311 174.438 139.131 173.472 138.682 172.621C138.276 172.116 137.761 171.709 137.176 171.43C134.25 169.79 131.152 168.48 127.938 167.522C126.248 166.908 124.438 166.699 122.653 166.912C121.646 167.143 120.409 167.706 120.131 168.741Z" fill="url(#paint15_linear_1_450)"/>
<path d="M132.41 137.173C130.109 135.963 127.726 134.725 125.13 134.568C122.534 134.411 119.66 135.63 118.746 138.069C118.419 139.111 118.284 140.204 118.349 141.294L118.228 162.644C118.119 164.395 118.316 166.152 118.81 167.836C119.79 170.607 122.275 172.529 124.889 173.841C128.151 175.467 131.966 176.335 135.477 175.356C136.52 175.126 137.463 174.573 138.174 173.776C139.098 172.603 139.098 171.005 139.098 169.508L138.941 147.336C138.963 146.3 138.892 145.264 138.729 144.241C138.045 140.776 135.357 138.698 132.41 137.173Z" fill="#68E1FD"/>
<path d="M132.41 137.173C130.109 135.963 127.726 134.725 125.13 134.568C122.534 134.411 119.66 135.63 118.746 138.069C118.419 139.111 118.284 140.204 118.349 141.294L118.228 162.644C118.119 164.395 118.316 166.152 118.81 167.836C119.79 170.607 122.275 172.529 124.889 173.841C128.151 175.467 131.966 176.335 135.477 175.356C136.52 175.126 137.463 174.573 138.174 173.776C139.098 172.603 139.098 171.005 139.098 169.508L138.941 147.336C138.963 146.3 138.892 145.264 138.729 144.241C138.045 140.776 135.357 138.698 132.41 137.173Z" fill="url(#paint16_linear_1_450)"/>
<path d="M135.366 130.411C135.327 131.011 135.167 131.597 134.896 132.134C134.624 132.67 134.247 133.146 133.786 133.533C133.427 133.785 133.114 134.097 132.862 134.457C132.41 135.27 132.807 136.305 132.631 137.229C132.584 137.52 132.423 137.78 132.184 137.953C131.945 138.126 131.648 138.198 131.356 138.152C130.789 138.121 130.238 137.949 129.753 137.65C129.269 137.352 128.868 136.937 128.585 136.443C128.023 135.435 127.689 134.315 127.606 133.164C127.399 131.506 127.359 129.832 127.486 128.166C127.517 127.135 127.763 126.122 128.206 125.191C128.588 124.461 129.187 123.867 129.919 123.49C130.652 123.113 131.483 122.971 132.299 123.084C132.953 123.22 133.551 123.547 134.019 124.024C134.486 124.502 134.801 125.107 134.923 125.764C135.033 126.42 134.923 127.103 134.969 127.759C135.157 128.634 135.29 129.519 135.366 130.411Z" fill="#F3A984"/>
<path d="M120.529 135.325C120.125 137.097 119.869 138.898 119.762 140.711C119.692 143.642 120.424 146.536 121.877 149.082C122.737 150.578 124.048 152.047 125.776 152.195C126.633 152.197 127.471 151.946 128.184 151.472C128.898 150.999 129.455 150.324 129.786 149.534C130.411 147.934 130.645 146.208 130.469 144.499C130.292 142.799 130.323 141.083 130.562 139.39C130.922 137.663 131.809 136.101 132.289 134.402C132.793 132.131 132.924 129.794 132.677 127.482C132.691 126.947 132.584 126.417 132.363 125.93C132.07 125.462 131.65 125.088 131.153 124.849C129.988 124.218 128.69 123.875 127.366 123.848C126.042 123.821 124.73 124.11 123.54 124.692C121.6 125.671 121.397 126.909 121.628 128.766C121.877 130.771 120.935 133.256 120.529 135.325Z" fill="#606161"/>
<path d="M120.529 135.325C120.125 137.097 119.869 138.898 119.762 140.711C119.692 143.642 120.424 146.536 121.877 149.082C122.737 150.578 124.048 152.047 125.776 152.195C126.633 152.197 127.471 151.946 128.184 151.472C128.898 150.999 129.455 150.324 129.786 149.534C130.411 147.934 130.645 146.208 130.469 144.499C130.292 142.799 130.323 141.083 130.562 139.39C130.922 137.663 131.809 136.101 132.289 134.402C132.793 132.131 132.924 129.794 132.677 127.482C132.691 126.947 132.584 126.417 132.363 125.93C132.07 125.462 131.65 125.088 131.153 124.849C129.988 124.218 128.69 123.875 127.366 123.848C126.042 123.821 124.73 124.11 123.54 124.692C121.6 125.671 121.397 126.909 121.628 128.766C121.877 130.771 120.935 133.256 120.529 135.325Z" fill="url(#paint17_linear_1_450)"/>
<path d="M129.192 132.932C136.201 130.306 140.653 124.892 139.135 120.84C137.617 116.789 130.704 115.633 123.695 118.259C116.685 120.886 112.234 126.299 113.752 130.351C115.27 134.403 122.183 135.558 129.192 132.932Z" fill="#68E1FD"/>
<path d="M129.084 132.838C136.093 130.212 140.544 124.798 139.026 120.746C137.508 116.695 130.596 115.539 123.586 118.165C116.577 120.792 112.126 126.205 113.644 130.257C115.162 134.309 122.075 135.464 129.084 132.838Z" fill="url(#paint18_linear_1_450)"/>
<path d="M144.438 155.65C145.74 161.943 146.582 168.322 146.96 174.737C147.025 175.799 146.96 177.074 146.083 177.656C145.731 177.846 145.332 177.93 144.934 177.899C144.536 177.868 144.155 177.723 143.838 177.481C143.205 176.98 142.685 176.35 142.313 175.633C138.784 169.85 136.438 163.429 134.433 156.953C133.408 154.091 132.841 151.085 132.751 148.047C132.798 145.802 133.361 143.049 134.895 141.312C136.853 139.086 138.359 141.035 139.671 142.901C142.295 146.68 143.524 151.243 144.438 155.65Z" fill="#68E1FD"/>
<path d="M144.438 155.65C145.74 161.943 146.582 168.322 146.96 174.737C147.025 175.799 146.96 177.074 146.083 177.656C145.731 177.846 145.332 177.93 144.934 177.899C144.536 177.868 144.155 177.723 143.838 177.481C143.205 176.98 142.685 176.35 142.313 175.633C138.784 169.85 136.438 163.429 134.433 156.953C133.408 154.091 132.841 151.085 132.751 148.047C132.798 145.802 133.361 143.049 134.895 141.312C136.853 139.086 138.359 141.035 139.671 142.901C142.295 146.68 143.524 151.243 144.438 155.65Z" fill="url(#paint19_linear_1_450)"/>
<path d="M126.755 116.045C125.622 115.745 124.424 115.794 123.318 116.184C122.213 116.575 121.25 117.289 120.556 118.234C119.217 120.211 119.365 122.854 120.058 125.145C120.142 125.503 120.336 125.826 120.612 126.069C120.892 126.235 121.21 126.324 121.536 126.327C123.383 126.521 125.305 126.688 126.986 125.93C128.668 125.172 131.439 122.475 131.43 120.609C131.375 118.585 128.483 116.507 126.755 116.045Z" fill="#68E1FD"/>
<path d="M131.393 120.636C131.393 122.484 128.539 125.256 126.94 125.967C125.188 126.569 123.309 126.703 121.49 126.355C121.166 126.357 120.847 126.274 120.566 126.115C120.296 125.848 120.104 125.513 120.011 125.145C119.83 124.517 119.692 123.878 119.596 123.232C119.663 123.244 119.732 123.244 119.799 123.232C121.647 123.408 123.577 123.583 125.259 122.817C126.792 122.142 129.499 119.574 129.675 117.717C130.147 118.059 130.544 118.494 130.84 118.997C131.135 119.499 131.324 120.057 131.393 120.636V120.636Z" fill="url(#paint20_linear_1_450)"/>
<path d="M129.712 117.772C129.536 119.62 126.829 122.198 125.296 122.872C123.614 123.639 121.665 123.463 119.836 123.288C119.769 123.299 119.7 123.299 119.633 123.288C119.32 121.568 119.649 119.793 120.556 118.299C121.249 117.354 122.209 116.639 123.312 116.245C124.416 115.851 125.612 115.798 126.746 116.091C127.846 116.428 128.858 117.002 129.712 117.772Z" fill="url(#paint21_linear_1_450)"/>
<path d="M141.343 186.035C141.008 183.265 141.503 180.458 142.766 177.97C142.95 177.575 143.207 177.217 143.523 176.917C143.964 176.589 144.498 176.411 145.048 176.411C145.597 176.411 146.132 176.589 146.572 176.917C147.393 177.56 147.977 178.457 148.235 179.467C148.68 180.886 148.778 182.391 148.521 183.855L147.949 183.754C148.189 182.381 148.097 180.972 147.681 179.642C147.462 178.752 146.956 177.96 146.239 177.388C145.9 177.141 145.491 177.008 145.071 177.008C144.651 177.008 144.242 177.141 143.902 177.388C143.64 177.655 143.43 177.968 143.283 178.312C142.071 180.694 141.595 183.382 141.916 186.035H141.343Z" fill="#68E1FD"/>
<path d="M150.711 182.063L155.94 207.931C155.995 208.199 155.995 208.476 155.94 208.744C155.811 209.28 155.275 209.594 154.785 209.843C149.478 212.36 144.009 214.52 138.415 216.31C138.304 216.351 138.183 216.351 138.073 216.31C137.981 216.246 137.915 216.151 137.888 216.042C137.686 215.328 137.599 214.586 137.629 213.844C137.537 208.19 137.229 202.548 136.705 196.919C136.576 195.496 136.428 194.082 136.262 192.669C136.142 191.597 135.532 189.786 135.791 188.761C136.188 187.19 140.678 186.257 142.128 185.666C142.877 185.371 150.711 182.442 150.711 182.063Z" fill="#68E1FD"/>
<path d="M150.711 182.063L155.94 207.931C155.995 208.199 155.995 208.476 155.94 208.744C155.811 209.28 155.275 209.594 154.785 209.843C149.478 212.36 144.009 214.52 138.415 216.31C138.304 216.351 138.183 216.351 138.073 216.31C137.981 216.246 137.915 216.151 137.888 216.042C137.686 215.328 137.599 214.586 137.629 213.844C137.537 208.19 137.229 202.548 136.705 196.919C136.576 195.496 136.428 194.082 136.262 192.669C136.142 191.597 135.532 189.786 135.791 188.761C136.188 187.19 140.678 186.257 142.128 185.666C142.877 185.371 150.711 182.442 150.711 182.063Z" fill="url(#paint22_linear_1_450)"/>
<path d="M153.879 180.927L159.108 206.748C159.168 207.019 159.168 207.3 159.108 207.571C158.979 208.106 158.443 208.421 157.954 208.67C152.646 211.187 147.177 213.347 141.583 215.137C141.529 215.16 141.471 215.171 141.412 215.171C141.353 215.171 141.295 215.16 141.241 215.137C141.194 215.107 141.153 215.068 141.121 215.022C141.089 214.976 141.067 214.924 141.056 214.869C140.855 214.154 140.767 213.412 140.798 212.67C140.705 207.026 140.391 201.372 139.874 195.745C139.745 194.332 139.597 192.909 139.43 191.496C139.31 190.433 138.701 188.622 138.959 187.597C139.357 186.026 143.846 185.084 145.297 184.493C146.091 184.225 153.944 181.259 153.879 180.927Z" fill="#68E1FD"/>
<path d="M145.214 187.006C143.699 184.663 142.914 181.924 142.959 179.135C142.951 178.697 143.023 178.262 143.172 177.85C143.421 177.353 143.829 176.953 144.33 176.712C144.832 176.471 145.399 176.404 145.943 176.52C146.964 176.737 147.883 177.286 148.558 178.081C149.576 179.163 150.324 180.47 150.738 181.897L150.184 182.054C149.791 180.717 149.089 179.492 148.133 178.479C147.545 177.777 146.744 177.286 145.851 177.084C145.438 177.005 145.011 177.059 144.631 177.238C144.251 177.417 143.937 177.713 143.735 178.081C143.617 178.423 143.56 178.783 143.569 179.144C143.52 181.819 144.273 184.448 145.731 186.692L145.214 187.006Z" fill="#68E1FD"/>
<path d="M154.739 181.86L159.95 207.682C160.009 207.952 160.009 208.233 159.95 208.504C159.829 209.04 159.284 209.354 158.795 209.603C153.487 212.12 148.019 214.28 142.424 216.07C142.372 216.095 142.315 216.108 142.258 216.108C142.2 216.108 142.143 216.095 142.092 216.07C142.044 216.041 142.003 216.002 141.971 215.955C141.939 215.909 141.917 215.857 141.907 215.802C141.704 215.088 141.617 214.345 141.648 213.603C141.556 207.959 141.242 202.305 140.724 196.679C140.586 195.265 140.438 193.842 140.281 192.429C140.151 191.366 139.551 189.556 139.81 188.53C140.207 186.96 144.688 186.017 146.147 185.426C146.96 185.158 154.813 182.193 154.739 181.86Z" fill="url(#paint23_linear_1_450)"/>
<path d="M157.963 180.714L163.183 206.582C163.259 206.846 163.274 207.124 163.229 207.395C163.109 207.931 162.573 208.245 162.074 208.494C156.767 211.011 151.298 213.171 145.704 214.961C145.597 215.002 145.478 215.002 145.371 214.961C145.279 214.897 145.213 214.802 145.186 214.693C144.985 213.979 144.897 213.237 144.928 212.495C144.835 206.841 144.527 201.199 144.004 195.57C143.874 194.147 143.717 192.734 143.56 191.32C143.44 190.248 142.831 188.438 143.089 187.412C143.486 185.842 147.967 184.909 149.427 184.317C150.175 184.022 158.028 181.047 157.963 180.714Z" fill="#68E1FD"/>
<path d="M157.963 180.714L163.183 206.582C163.259 206.846 163.274 207.124 163.229 207.395C163.109 207.931 162.573 208.245 162.074 208.494C156.767 211.011 151.298 213.171 145.704 214.961C145.597 215.002 145.478 215.002 145.371 214.961C145.279 214.897 145.213 214.802 145.186 214.693C144.985 213.979 144.897 213.237 144.928 212.495C144.835 206.841 144.527 201.199 144.004 195.57C143.874 194.147 143.717 192.734 143.56 191.32C143.44 190.248 142.831 188.438 143.089 187.412C143.486 185.842 147.967 184.909 149.427 184.317C150.175 184.022 158.028 181.047 157.963 180.714Z" fill="url(#paint24_linear_1_450)"/>
<path d="M144.068 174.22C143.475 174.245 142.906 174.466 142.451 174.848C142.319 175.03 142.224 175.236 142.174 175.455C142.123 175.674 142.117 175.901 142.156 176.123C142.211 176.566 142.35 176.991 142.396 177.435C142.488 178.303 142.23 179.282 142.627 180.021C142.854 180.377 143.168 180.669 143.54 180.868C143.913 181.067 144.33 181.167 144.752 181.158C145.452 181.218 146.152 181.048 146.746 180.672C147.34 180.297 147.795 179.737 148.041 179.079C148.141 178.64 148.163 178.186 148.105 177.739C147.985 176.677 147.588 174.534 146.821 173.73C146.054 172.926 144.946 174.035 144.068 174.22Z" fill="#F3A984"/>
<path d="M81.7181 120.821V116.433C79.3656 116.43 77.0611 115.767 75.0664 114.52L76.1104 111.61C77.9781 112.814 80.1522 113.455 82.3741 113.458C85.4597 113.458 87.5476 111.684 87.5476 109.199C87.5476 106.714 85.8477 105.337 82.6327 104.035C78.1983 102.289 75.4637 100.293 75.4637 96.5145C75.4637 92.9022 78.0227 90.1676 82.023 89.5117V85.1234H84.7206V89.3362C86.7014 89.3549 88.6444 89.8797 90.3654 90.8605L89.2845 93.7522C87.6291 92.7649 85.7334 92.2534 83.806 92.274C80.4617 92.274 79.1868 94.2695 79.1868 95.9694C79.1868 98.2328 80.7943 99.3599 84.5821 100.93C89.0535 102.778 91.3169 105.014 91.3169 108.876C91.3169 112.312 88.9241 115.527 84.4435 116.266V120.784L81.7181 120.821Z" fill="white"/>
<path d="M46.3158 157.71V153.322C43.9633 153.319 41.6587 152.657 39.6641 151.41L40.7727 148.5C42.6404 149.703 44.8146 150.344 47.0364 150.347C50.122 150.347 52.2007 148.573 52.2007 146.088C52.2007 143.603 50.5101 142.227 47.2951 140.924C42.8606 139.178 40.126 137.182 40.126 133.404C40.126 129.792 42.6851 127.057 46.6853 126.401V122.013H49.383V126.226C51.3637 126.244 53.3068 126.769 55.0277 127.75L53.9468 130.623C52.2914 129.636 50.3957 129.124 48.4684 129.145C45.124 129.145 43.8491 131.14 43.8491 132.84C43.8491 135.104 45.4566 136.231 49.2444 137.801C53.7158 139.649 55.9793 141.885 55.9793 145.747C55.9793 149.183 53.5865 152.398 49.1058 153.137V157.655L46.3158 157.71Z" fill="white"/>
<path d="M404.067 157.71V153.322C401.715 153.319 399.41 152.657 397.416 151.41L398.459 148.5C400.327 149.704 402.501 150.345 404.723 150.347C407.809 150.347 409.887 148.573 409.887 146.088C409.887 143.603 408.197 142.227 404.982 140.924C400.547 139.178 397.813 137.182 397.813 133.404C397.813 129.792 400.372 127.057 404.372 126.401V122.013H407.07V126.226C409.05 126.244 410.994 126.769 412.714 127.75L411.634 130.623C409.978 129.636 408.082 129.124 406.155 129.145C402.802 129.145 401.536 131.14 401.536 132.84C401.536 135.104 403.143 136.231 406.931 137.801C411.403 139.649 413.666 141.885 413.666 145.747C413.666 149.183 411.273 152.398 406.793 153.137V157.655L404.067 157.71Z" fill="white"/>
<path d="M356.027 97.8912V93.5029C353.675 93.5012 351.37 92.8386 349.375 91.5905L350.419 88.6804C352.284 89.8834 354.455 90.5248 356.674 90.5281C359.76 90.5281 361.847 88.745 361.847 86.2691C361.847 83.7932 360.157 82.4074 356.933 81.0956C352.507 79.3587 349.763 77.4002 349.763 73.5847C349.763 69.9724 352.332 67.2378 356.332 66.5819V62.1936H359.02V66.4064C361.004 66.4268 362.95 66.9514 364.674 67.9307L363.584 70.8039C361.929 69.8153 360.033 69.3037 358.106 69.3257C354.762 69.3257 353.487 71.3212 353.487 73.0211C353.487 75.2846 355.094 76.4117 358.873 77.973C363.353 79.8207 365.608 82.0656 365.608 85.9273C365.608 89.364 363.224 92.579 358.743 93.3181V97.8357L356.027 97.8912Z" fill="white"/>
</g>
<defs>
<linearGradient id="paint0_linear_1_450" x1="169.317" y1="260.378" x2="347.269" y2="260.378" gradientUnits="userSpaceOnUse">
<stop stop-color="#010101" stop-opacity="0"/>
<stop offset="0.95" stop-color="#010101"/>
</linearGradient>
<linearGradient id="paint1_linear_1_450" x1="31686.8" y1="24722.2" x2="36980.5" y2="15199.7" gradientUnits="userSpaceOnUse">
<stop stop-color="#010101" stop-opacity="0"/>
<stop offset="0.95" stop-color="#010101"/>
</linearGradient>
<linearGradient id="paint2_linear_1_450" x1="82347.9" y1="45287.2" x2="838.513" y2="154851" gradientUnits="userSpaceOnUse">
<stop stop-color="#010101" stop-opacity="0"/>
<stop offset="0.95" stop-color="#010101"/>
</linearGradient>
<linearGradient id="paint3_linear_1_450" x1="243.872" y1="180.049" x2="352.341" y2="-177.102" gradientUnits="userSpaceOnUse">
<stop stop-color="white" stop-opacity="0"/>
<stop offset="0.66" stop-color="white"/>
</linearGradient>
<linearGradient id="paint4_linear_1_450" x1="59634.4" y1="22399" x2="57028.9" y2="31544.2" gradientUnits="userSpaceOnUse">
<stop stop-color="#010101" stop-opacity="0"/>
<stop offset="0.95" stop-color="#010101"/>
</linearGradient>
<linearGradient id="paint5_linear_1_450" x1="51097.5" y1="17399.8" x2="51139.5" y2="34615.2" gradientUnits="userSpaceOnUse">
<stop stop-color="#010101" stop-opacity="0"/>
<stop offset="0.95" stop-color="#010101"/>
</linearGradient>
<linearGradient id="paint6_linear_1_450" x1="15397.8" y1="7124.64" x2="13284.4" y2="15491" gradientUnits="userSpaceOnUse">
<stop stop-color="#010101" stop-opacity="0"/>
<stop offset="0.95" stop-color="#010101"/>
</linearGradient>
<linearGradient id="paint7_linear_1_450" x1="31077" y1="17652.6" x2="41119.7" y2="40896.3" gradientUnits="userSpaceOnUse">
<stop stop-color="#010101" stop-opacity="0"/>
<stop offset="0.95" stop-color="#010101"/>
</linearGradient>
<linearGradient id="paint8_linear_1_450" x1="1807.82" y1="597.975" x2="1827.09" y2="638.56" gradientUnits="userSpaceOnUse">
<stop stop-color="#010101" stop-opacity="0"/>
<stop offset="0.95" stop-color="#010101"/>
</linearGradient>
<linearGradient id="paint9_linear_1_450" x1="70055.2" y1="35757.8" x2="66261.6" y2="124306" gradientUnits="userSpaceOnUse">
<stop stop-color="#010101" stop-opacity="0"/>
<stop offset="0.95" stop-color="#010101"/>
</linearGradient>
<linearGradient id="paint10_linear_1_450" x1="2640.85" y1="6670.54" x2="3351.09" y2="7135.09" gradientUnits="userSpaceOnUse">
<stop stop-color="#010101" stop-opacity="0"/>
<stop offset="0.95" stop-color="#010101"/>
</linearGradient>
<linearGradient id="paint11_linear_1_450" x1="1723.4" y1="6839.48" x2="1481.08" y2="6842.84" gradientUnits="userSpaceOnUse">
<stop stop-color="#010101" stop-opacity="0"/>
<stop offset="0.95" stop-color="#010101"/>
</linearGradient>
<linearGradient id="paint12_linear_1_450" x1="2963.31" y1="7012.59" x2="3533.19" y2="8490.25" gradientUnits="userSpaceOnUse">
<stop stop-color="#010101" stop-opacity="0"/>
<stop offset="0.95" stop-color="#010101"/>
</linearGradient>
<linearGradient id="paint13_linear_1_450" x1="1728.7" y1="2030.22" x2="1734.12" y2="2100.49" gradientUnits="userSpaceOnUse">
<stop stop-color="#010101" stop-opacity="0"/>
<stop offset="0.95" stop-color="#010101"/>
</linearGradient>
<linearGradient id="paint14_linear_1_450" x1="1861.8" y1="2033.52" x2="1864.78" y2="2133.81" gradientUnits="userSpaceOnUse">
<stop stop-color="#010101" stop-opacity="0"/>
<stop offset="0.95" stop-color="#010101"/>
</linearGradient>
<linearGradient id="paint15_linear_1_450" x1="3465.31" y1="8664.19" x2="4054.9" y2="8664.19" gradientUnits="userSpaceOnUse">
<stop stop-color="#010101" stop-opacity="0"/>
<stop offset="0.95" stop-color="#010101"/>
</linearGradient>
<linearGradient id="paint16_linear_1_450" x1="3523.68" y1="7630.94" x2="1584.4" y2="10878.6" gradientUnits="userSpaceOnUse">
<stop stop-color="#010101" stop-opacity="0"/>
<stop offset="0.95" stop-color="#010101"/>
</linearGradient>
<linearGradient id="paint17_linear_1_450" x1="2002.11" y1="5858.54" x2="2314.48" y2="5632.67" gradientUnits="userSpaceOnUse">
<stop stop-color="#010101" stop-opacity="0"/>
<stop offset="0.95" stop-color="#010101"/>
</linearGradient>
<linearGradient id="paint18_linear_1_450" x1="7209.09" y1="1639.84" x2="7339.01" y2="1253.38" gradientUnits="userSpaceOnUse">
<stop stop-color="white" stop-opacity="0"/>
<stop offset="0.66" stop-color="white"/>
</linearGradient>
<linearGradient id="paint19_linear_1_450" x1="2614.26" y1="8114.85" x2="2182.75" y2="8175.62" gradientUnits="userSpaceOnUse">
<stop stop-color="#010101" stop-opacity="0"/>
<stop offset="0.95" stop-color="#010101"/>
</linearGradient>
<linearGradient id="paint20_linear_1_450" x1="1837.56" y1="1701.23" x2="1940.01" y2="1603.14" gradientUnits="userSpaceOnUse">
<stop stop-color="white" stop-opacity="0"/>
<stop offset="0.66" stop-color="white"/>
</linearGradient>
<linearGradient id="paint21_linear_1_450" x1="1642.32" y1="1410.52" x2="1707.35" y2="1347.38" gradientUnits="userSpaceOnUse">
<stop stop-color="white" stop-opacity="0"/>
<stop offset="0.66" stop-color="white"/>
</linearGradient>
<linearGradient id="paint22_linear_1_450" x1="3857.18" y1="8845.12" x2="2620.2" y2="9170.47" gradientUnits="userSpaceOnUse">
<stop stop-color="#010101" stop-opacity="0"/>
<stop offset="0.95" stop-color="#010101"/>
</linearGradient>
<linearGradient id="paint23_linear_1_450" x1="3949.53" y1="8829.72" x2="2713.07" y2="9155" gradientUnits="userSpaceOnUse">
<stop stop-color="#010101" stop-opacity="0"/>
<stop offset="0.95" stop-color="#010101"/>
</linearGradient>
<linearGradient id="paint24_linear_1_450" x1="3434.2" y1="8251.68" x2="5049.77" y2="9491.36" gradientUnits="userSpaceOnUse">
<stop stop-color="#010101" stop-opacity="0"/>
<stop offset="0.95" stop-color="#010101"/>
</linearGradient>
<clipPath id="clip0_1_450">
<rect width="487.109" height="376.09" fill="white" transform="translate(0.150879)"/>
</clipPath>
</defs>
</svg>
