<svg width="340" height="268" viewBox="0 0 340 268" fill="none" xmlns="http://www.w3.org/2000/svg">
<path opacity="0.26" d="M103.473 200.6C128.542 200.6 148.864 196.714 148.864 191.921C148.864 187.127 128.542 183.241 103.473 183.241C78.4042 183.241 58.082 187.127 58.082 191.921C58.082 196.714 78.4042 200.6 103.473 200.6Z" fill="url(#paint0_linear_1_406)"/>
<path opacity="0.26" d="M235.378 200.6C266.53 200.6 291.783 195.626 291.783 189.489C291.783 183.353 266.53 178.379 235.378 178.379C204.227 178.379 178.974 183.353 178.974 189.489C178.974 195.626 204.227 200.6 235.378 200.6Z" fill="url(#paint1_linear_1_406)"/>
<path d="M88.6848 157.841C86.0023 157.74 83.3276 157.486 80.6739 157.081C80.0022 156.946 79.3154 156.901 78.6317 156.947C77.7843 157.102 76.9648 157.383 76.2005 157.78C71.5573 159.798 66.4097 160.353 61.443 159.373C60.4948 159.184 59.4676 158.874 58.9631 158.054C58.7274 157.61 58.5886 157.121 58.5559 156.619C58.3605 155.036 58.3259 153.438 58.4526 151.848C58.4716 150.954 58.6787 150.074 59.0604 149.265C59.5658 148.439 60.2979 147.777 61.1695 147.356C64.3483 145.654 68.1835 146.141 71.7878 146.25C76.0425 146.402 80.4491 146.037 84.5517 147.204C87.4692 148.025 90.338 149.836 91.9001 152.498C93.7721 155.622 92.3681 157.987 88.6848 157.841Z" fill="#FDB386"/>
<path d="M88.6848 157.841C86.0023 157.74 83.3276 157.486 80.6739 157.081C80.0022 156.946 79.3154 156.901 78.6317 156.947C77.7843 157.102 76.9648 157.383 76.2005 157.78C71.5573 159.798 66.4097 160.353 61.443 159.373C60.4948 159.184 59.4676 158.874 58.9631 158.054C58.7274 157.61 58.5886 157.121 58.5559 156.619C58.3605 155.036 58.3259 153.438 58.4526 151.848C58.4716 150.954 58.6787 150.074 59.0604 149.265C59.5658 148.439 60.2979 147.777 61.1695 147.356C64.3483 145.654 68.1835 146.141 71.7878 146.25C76.0425 146.402 80.4491 146.037 84.5517 147.204C87.4692 148.025 90.338 149.836 91.9001 152.498C93.7721 155.622 92.3681 157.987 88.6848 157.841Z" fill="url(#paint2_linear_1_406)"/>
<path d="M184.146 170.641L205.541 185.794L276.156 186.329L256.36 172.246L184.146 170.641Z" fill="#68E1FD"/>
<path d="M192.169 171.225L208.635 182.888L262.96 183.302L247.729 172.465L192.169 171.225Z" fill="white"/>
<path d="M174.61 122.078C174.61 122.078 191.994 113.52 197.877 99.8809L216.604 105.764C216.604 105.764 196.546 132.508 188.784 133.31L174.61 122.078Z" fill="#68E1FD"/>
<path d="M192.528 137.826C193.598 137.157 209.377 131.942 215.935 119.507L231.847 127.931C231.847 127.931 216.202 149.064 202.156 149.733L192.528 137.826Z" fill="#68E1FD"/>
<path d="M248.871 159.227L260.639 172.605L217.314 177.595L211.783 167.785L248.871 159.227Z" fill="#68E1FD"/>
<path d="M217.63 166.563L245.711 161.141C245.711 161.141 247.018 162.357 249.716 162.357L254.682 168.113C254.682 168.113 253.205 170.094 254.044 171.31L222.943 175.704C222.943 175.704 220.554 174.246 218.481 174.3L214.834 168.994C214.834 168.994 218.135 168.636 217.63 166.563Z" fill="url(#paint3_linear_1_406)"/>
<path d="M149.234 142.3L148.085 137.808C147.362 135.219 145.375 137.474 142.956 138.641L74.8814 171.462C74.0064 171.886 73.3003 172.594 72.8778 173.47C72.4552 174.346 72.341 175.339 72.5535 176.288L73.4288 180.172C73.6473 181.151 74.2023 182.022 74.9969 182.633L86.3446 191.398C87.1064 191.985 88.0425 192.3 89.004 192.293C89.9655 192.287 90.8972 191.959 91.6508 191.362L147.757 146.822C148.421 146.297 148.915 145.588 149.177 144.783C149.44 143.979 149.46 143.115 149.234 142.3V142.3Z" fill="#68E1FD"/>
<path d="M149.234 142.3L148.085 137.808C147.362 135.219 145.375 137.474 142.956 138.641L74.8814 171.462C74.0064 171.886 73.3003 172.594 72.8778 173.47C72.4552 174.346 72.341 175.339 72.5535 176.288L73.4288 180.172C73.6473 181.151 74.2023 182.022 74.9969 182.633L86.3446 191.398C87.1064 191.985 88.0425 192.3 89.004 192.293C89.9655 192.287 90.8972 191.959 91.6508 191.362L147.757 146.822C148.421 146.297 148.915 145.588 149.177 144.783C149.44 143.979 149.46 143.115 149.234 142.3V142.3Z" fill="url(#paint4_linear_1_406)"/>
<path d="M74.0488 171.121L124.357 129.864C124.647 129.627 124.993 129.466 125.361 129.397C125.729 129.328 126.109 129.353 126.466 129.469L146.615 135.996C147.001 136.122 147.345 136.35 147.612 136.656C147.878 136.962 148.056 137.335 148.127 137.735C148.197 138.135 148.158 138.546 148.013 138.925C147.867 139.304 147.621 139.636 147.301 139.886L90.259 184.402C89.8757 184.701 89.4056 184.866 88.9198 184.874C88.434 184.882 87.9589 184.731 87.5664 184.444L74.1339 174.659C73.8598 174.456 73.6356 174.193 73.4785 173.89C73.3214 173.587 73.2354 173.252 73.2272 172.911C73.219 172.57 73.2887 172.231 73.4311 171.921C73.5735 171.611 73.7848 171.338 74.0488 171.121V171.121Z" fill="#68E1FD"/>
<path d="M74.0488 171.121L124.357 129.864C124.647 129.627 124.993 129.466 125.361 129.397C125.729 129.328 126.109 129.353 126.466 129.469L146.615 135.996C147.001 136.122 147.345 136.35 147.612 136.656C147.878 136.962 148.056 137.335 148.127 137.735C148.197 138.135 148.158 138.546 148.013 138.925C147.867 139.304 147.621 139.636 147.301 139.886L90.259 184.402C89.8757 184.701 89.4056 184.866 88.9198 184.874C88.434 184.882 87.9589 184.731 87.5664 184.444L74.1339 174.659C73.8598 174.456 73.6356 174.193 73.4785 173.89C73.3214 173.587 73.2354 173.252 73.2272 172.911C73.219 172.57 73.2887 172.231 73.4311 171.921C73.5735 171.611 73.7848 171.338 74.0488 171.121V171.121Z" fill="url(#paint5_linear_1_406)"/>
<path d="M144.074 140.409L142.688 141.491L93.2495 180.007L78.4312 170.222L77.5195 169.614L121.731 133.188L144.074 140.409Z" fill="white"/>
<path opacity="0.13" d="M142.688 141.491L93.2494 180.008L78.4312 170.222L121.597 134.671L142.688 141.491Z" fill="#68E1FD"/>
<path d="M106.67 168.83L90.6177 160.503L95.5409 156.176L111.593 164.496L106.67 168.83Z" fill="#68E1FD"/>
<path d="M106.67 168.83L90.6177 160.503L95.5409 156.176L111.593 164.496L106.67 168.83Z" fill="url(#paint6_linear_1_406)"/>
<path d="M140.269 127.858L138.519 127.11C139.062 125.921 139.67 124.762 140.342 123.64L141.989 124.594C141.353 125.648 140.779 126.738 140.269 127.858V127.858Z" fill="#68E1FD"/>
<path d="M145.667 119.13L144.171 117.957C145.587 116.144 147.141 114.446 148.821 112.875L150.116 114.267C148.507 115.769 147.02 117.395 145.667 119.13V119.13ZM155.306 110.262L154.297 108.651C156.26 107.404 158.358 106.385 160.552 105.612L161.16 107.436C159.109 108.157 157.146 109.105 155.306 110.262V110.262ZM174.039 106.171C171.879 105.887 169.693 105.844 167.523 106.044L167.341 104.153C169.652 103.942 171.98 103.984 174.282 104.281L174.039 106.171Z" fill="#68E1FD"/>
<path d="M183.958 108.925C182.797 108.439 181.624 108.001 180.469 107.63L181.077 105.807C182.293 106.196 183.508 106.652 184.724 107.162L183.958 108.925Z" fill="#68E1FD"/>
<path d="M184.681 176.701L184.146 170.641L205.541 185.794L276.156 186.329L274.77 190.121L203.493 190.523L184.681 176.701Z" fill="#68E1FD"/>
<path d="M184.681 176.701L184.146 170.641L205.541 185.794L276.156 186.329L274.77 190.121L203.493 190.523L184.681 176.701Z" fill="url(#paint7_linear_1_406)"/>
<path d="M310.357 131.918C310.278 134.313 310.145 136.702 309.993 139.096C309.92 140.464 309.822 141.813 309.707 143.181C309.634 144.19 309.446 145.369 308.57 145.843C308.449 145.909 308.321 145.96 308.187 145.995C307.762 146.071 307.329 146.09 306.899 146.05L300.948 145.655C299.01 145.463 297.058 145.463 295.12 145.655C291.278 146.147 287.747 148.122 283.912 148.56C282.216 148.7 280.512 148.687 278.818 148.523L263.216 147.496C261.88 147.481 260.557 147.23 259.308 146.755C258.68 146.52 258.126 146.125 257.699 145.609C257.272 145.093 256.989 144.473 256.877 143.813C256.779 142.877 257.138 141.947 257.065 140.999C257.074 140.961 257.074 140.921 257.065 140.883C256.798 138.355 253.473 136.306 254.482 133.966C254.707 133.419 255.181 132.945 255.199 132.356C255.169 131.876 254.991 131.417 254.688 131.043C253.813 129.639 252.981 128.004 253.339 126.369C253.607 125.208 254.439 124.163 254.403 122.989C254.348 121.64 253.187 120.558 253.035 119.227C252.883 117.896 253.929 116.474 255.217 115.86C256.548 115.34 257.972 115.102 259.399 115.161L266.887 114.93C268.103 114.894 269.489 114.821 270.4 113.964C271.5 112.936 271.482 111.168 271.008 109.764C270.534 108.36 269.64 107.101 269.185 105.679C268.841 104.525 268.783 103.305 269.014 102.124C269.246 100.942 269.761 99.8346 270.516 98.8961C270.765 98.5576 271.098 98.2895 271.482 98.1181C272.831 97.6258 273.956 99.2182 274.521 100.549C276.663 105.435 279.676 109.89 283.413 113.696C288.14 118.285 294.067 121.445 300.511 122.813C302.389 123.227 305.124 122.965 307.294 123.269C307.926 123.337 308.542 123.509 309.117 123.78C311.609 125.001 310.43 129.73 310.357 131.918Z" fill="#FDB386"/>
<path d="M339.805 138.051C339.805 138.549 339.744 139.042 339.708 139.534C339.653 140.482 339.574 141.436 339.483 142.366C339.166 143.287 338.654 144.129 337.982 144.834C336.268 146.505 333.727 146.657 331.424 146.657C324.053 146.755 316.682 146.552 309.312 146.05C308.929 146.05 308.552 145.989 308.187 145.952C307.18 145.88 306.208 145.554 305.361 145.004C303.592 143.728 303.118 141.26 302.796 139.036C302.146 134.744 301.501 130.295 302.529 126.077C302.614 125.635 302.761 125.208 302.966 124.807C303.142 124.404 303.416 124.05 303.762 123.78C304.412 123.402 305.158 123.224 305.908 123.269C306.382 123.269 306.862 123.269 307.336 123.269C312.728 123.208 318.125 123.743 323.522 123.628C326.552 123.599 329.571 123.255 332.53 122.6C333.97 122.278 337.599 120.224 339.592 120.072C340.05 126.054 340.121 132.06 339.805 138.051V138.051Z" fill="#FDB386"/>
<path d="M339.708 139.534C339.654 140.482 339.575 141.436 339.483 142.366C339.166 143.287 338.654 144.129 337.982 144.834C336.268 146.505 333.728 146.657 331.424 146.657C324.053 146.755 316.683 146.552 309.312 146.05C308.929 146.05 308.552 145.989 308.188 145.952C307.763 146.029 307.329 146.047 306.899 146.007L300.949 145.612C299.01 145.42 297.058 145.42 295.12 145.612C291.278 146.104 287.747 148.08 283.912 148.517C282.216 148.657 280.512 148.645 278.818 148.481L263.216 147.454C261.88 147.438 260.557 147.187 259.308 146.712C258.681 146.478 258.126 146.082 257.699 145.566C257.272 145.05 256.989 144.431 256.877 143.77C256.779 142.834 257.138 141.904 257.065 140.956C257.074 140.918 257.074 140.879 257.065 140.841C260.293 143.655 265.021 143.673 269.337 143.539C276.825 143.314 284.368 143.083 291.625 141.242C291.169 140.138 291.026 138.929 291.214 137.749C291.402 136.569 291.912 135.464 292.689 134.556C293.369 133.778 294.245 133.188 294.986 132.471C296.56 130.909 297.454 128.824 298.9 127.11C299.908 125.848 301.365 125.024 302.967 124.813C303.572 124.768 304.179 124.879 304.729 125.135C307.015 126.235 307.239 129.353 307.106 131.882C306.972 134.41 307.051 137.467 309.251 138.738C309.486 138.872 309.734 138.981 309.993 139.06C310.823 139.283 311.68 139.392 312.539 139.382C319.438 139.558 326.337 139.534 333.247 139.345C335.403 139.237 337.563 139.3 339.708 139.534V139.534Z" fill="url(#paint8_linear_1_406)"/>
<path d="M66.6214 136.932C70.7337 136.355 74.9182 136.561 78.9538 137.54C81.965 138.394 84.8137 139.741 87.384 141.527C94.393 146.22 100.051 152.665 103.795 160.224C104.348 161.354 104.749 162.959 103.71 163.67C102.816 164.278 101.631 163.67 100.744 163.062C96.8718 160.412 83.9134 147.259 74.6383 151.544C74.3831 153.538 76.9602 157.482 77.2701 159.446C77.5437 161.226 76.1153 162.91 74.4317 163.548C72.7481 164.186 70.8882 164.022 69.1012 163.834C63.9714 163.299 58.8597 163.87 53.6995 163.749C41.6528 163.475 34.1585 154.802 34.8575 150.28C35.4957 146.542 44.9592 139.613 66.6214 136.932Z" fill="#FDB386"/>
<path d="M204.472 160.479L237.64 149.599L248.337 162.971L210.629 172.069L204.472 160.479Z" fill="#68E1FD"/>
<path d="M44.6919 157.452C44.2237 159.744 43.2795 161.912 41.9203 163.816C40.362 163.498 38.7498 163.562 37.222 164.004C34.9245 164.612 32.6635 165.827 30.5361 166.952C25.3926 169.723 20.1031 172.215 14.6907 174.416C13.6878 174.835 12.6424 175.236 11.5787 175.577C10.2294 170.258 8.00482 165.39 5.8775 160.509C4.46799 157.396 3.21834 154.213 2.13343 150.973C1.65934 149.49 1.22172 147.988 0.881348 146.432C9.57904 142.858 23.6862 145.502 31.071 143.959C33.1526 143.486 35.2062 142.898 37.222 142.196C39.3664 141.427 41.5645 140.818 43.7984 140.373C44.8621 145.958 45.8528 152.055 44.6919 157.452Z" fill="#68E1FD"/>
<path d="M44.6917 157.452C44.2235 159.744 43.2792 161.912 41.9201 163.816C37.9876 162.94 34.0916 165.031 30.5542 166.952C25.4106 169.723 20.1211 172.215 14.7087 174.416C13.7058 174.835 12.6604 175.236 11.5967 175.577C10.2474 170.258 8.02283 165.39 5.89551 160.509C9.26255 161.688 12.8318 162.18 16.3923 161.956C21.5222 161.725 26.5366 160.473 31.5874 159.525C35.9332 158.667 40.3216 158.06 44.6917 157.452Z" fill="url(#paint9_linear_1_406)"/>
<path d="M200.642 102.433L209.802 105.509C209.802 105.509 208.586 108.384 210.07 109.721C210.07 109.721 199.573 125.165 190.747 128.909C190.747 128.909 189.477 127.505 185.466 127.906L179.175 123.16C179.175 123.16 181.521 122.023 180.998 120.218C180.998 120.218 193.634 113.799 197.111 105.241C197.099 105.241 200.642 105.776 200.642 102.433Z" fill="url(#paint10_linear_1_406)"/>
<path d="M218.354 123.342L226.085 127.068C226.085 127.068 224.705 129.499 225.86 130.818C225.86 130.818 214.883 143.314 206.672 145.648C206.672 145.648 205.699 144.269 202.113 144.183L197.081 139.321C197.081 139.321 199.275 138.573 199.001 136.89C199.001 136.89 210.872 132.635 214.889 125.433C214.914 125.433 217.983 126.296 218.354 123.342Z" fill="url(#paint11_linear_1_406)"/>
<path d="M210.404 160.205L233.676 152.851C234.173 153.21 234.737 153.466 235.334 153.604C235.931 153.742 236.549 153.758 237.153 153.653L241.833 158.868C241.833 158.868 240.763 161.008 241.566 162.077L215.667 168.721C215.667 168.721 213.528 167.505 211.783 167.785L208.264 162.88C208.264 162.88 211.005 162.193 210.404 160.205Z" fill="url(#paint12_linear_1_406)"/>
<path d="M44.6921 157.452C44.2239 159.744 43.2796 161.912 41.9205 163.816C40.3622 163.498 38.75 163.562 37.2222 164.004V142.196C39.3666 141.427 41.5647 140.818 43.7986 140.373C44.8623 145.958 45.853 152.055 44.6921 157.452Z" fill="url(#paint13_linear_1_406)"/>
<path d="M305.456 122.007L300.497 121.65C299.252 121.56 298.169 122.497 298.08 123.743L296.606 144.209C296.516 145.455 297.453 146.537 298.698 146.627L303.657 146.984C304.903 147.074 305.985 146.137 306.075 144.891L307.549 124.425C307.639 123.179 306.702 122.097 305.456 122.007Z" fill="#68E1FD"/>
<path d="M305.456 122.007L300.497 121.65C299.252 121.56 298.169 122.497 298.08 123.743L296.606 144.209C296.516 145.455 297.453 146.537 298.698 146.627L303.657 146.984C304.903 147.074 305.985 146.137 306.075 144.891L307.549 124.425C307.639 123.179 306.702 122.097 305.456 122.007Z" fill="url(#paint14_linear_1_406)"/>
<path d="M301.678 142.287C305.998 142.287 309.5 138.785 309.5 134.465C309.5 130.145 305.998 126.642 301.678 126.642C297.358 126.642 293.855 130.145 293.855 134.465C293.855 138.785 297.358 142.287 301.678 142.287Z" fill="#68E1FD"/>
<path d="M301.678 142.287C305.998 142.287 309.5 138.785 309.5 134.465C309.5 130.145 305.998 126.642 301.678 126.642C297.358 126.642 293.855 130.145 293.855 134.465C293.855 138.785 297.358 142.287 301.678 142.287Z" fill="url(#paint15_linear_1_406)"/>
<path d="M301.624 141.218C305.326 141.218 308.328 138.216 308.328 134.513C308.328 130.811 305.326 127.809 301.624 127.809C297.921 127.809 294.919 130.811 294.919 134.513C294.919 138.216 297.921 141.218 301.624 141.218Z" fill="#68E1FD"/>
<path d="M301.624 141.218C305.326 141.218 308.328 138.216 308.328 134.513C308.328 130.811 305.326 127.809 301.624 127.809C297.921 127.809 294.919 130.811 294.919 134.513C294.919 138.216 297.921 141.218 301.624 141.218Z" fill="url(#paint16_linear_1_406)"/>
<path d="M287.723 95.4983V93.2555C286.523 93.2549 285.348 92.9179 284.331 92.283L284.86 90.8C285.82 91.4187 286.939 91.7479 288.081 91.7482C289.655 91.7482 290.719 90.8425 290.719 89.5783C290.719 88.3141 289.85 87.6029 288.215 86.9404C285.948 86.053 284.568 85.0319 284.568 83.1052C284.568 81.1784 285.875 79.8656 287.911 79.5313V77.2946H289.291V79.4462C290.301 79.4523 291.293 79.7181 292.172 80.2181L291.619 81.6829C290.774 81.1797 289.806 80.9189 288.823 80.9292C287.115 80.9292 286.471 81.9503 286.471 82.8377C286.471 83.9926 287.291 84.5639 289.224 85.3662C291.503 86.2961 292.658 87.451 292.658 89.4203C292.658 91.1768 291.442 92.8118 289.157 93.1887V95.4983H287.723Z" fill="#68E1FD"/>
<path d="M244.848 107.035V105.819C244.203 105.818 243.571 105.637 243.024 105.296L243.31 104.5C243.82 104.832 244.416 105.009 245.024 105.011C245.869 105.011 246.44 104.524 246.44 103.85C246.44 103.175 245.972 102.786 245.091 102.434C243.875 101.953 243.134 101.406 243.134 100.373C243.141 99.8882 243.329 99.4235 243.661 99.0695C243.992 98.7156 244.443 98.4978 244.927 98.4585V97.2429H245.662V98.3977C246.206 98.4037 246.74 98.548 247.212 98.8171L246.914 99.6012C246.462 99.328 245.942 99.187 245.413 99.194C244.501 99.194 244.155 99.741 244.155 100.221C244.155 100.829 244.593 101.145 245.626 101.577C246.841 102.075 247.449 102.695 247.449 103.753C247.439 104.261 247.242 104.748 246.896 105.12C246.549 105.493 246.078 105.724 245.571 105.77V106.986L244.848 107.035Z" fill="#68E1FD"/>
<path d="M285.717 166.976V165.761C285.072 165.759 284.441 165.578 283.894 165.238L284.179 164.442C284.69 164.773 285.285 164.95 285.893 164.952C286.738 164.952 287.309 164.466 287.309 163.785C287.309 163.105 286.841 162.728 285.966 162.369C284.751 161.895 284.003 161.348 284.003 160.315C284.009 159.829 284.196 159.363 284.528 159.007C284.859 158.652 285.312 158.433 285.796 158.394V157.178H286.538V158.333C287.079 158.338 287.61 158.481 288.081 158.747L287.784 159.531C287.331 159.264 286.814 159.125 286.288 159.13C285.371 159.13 285.024 159.677 285.024 160.151C285.024 160.758 285.462 161.081 286.501 161.506C287.717 162.004 288.324 162.624 288.324 163.682C288.316 164.192 288.12 164.68 287.773 165.054C287.426 165.427 286.954 165.66 286.446 165.706V166.922L285.717 166.976Z" fill="#68E1FD"/>
<defs>
<linearGradient id="paint0_linear_1_406" x1="103.047" y1="153.921" x2="104.628" y2="295.722" gradientUnits="userSpaceOnUse">
<stop stop-color="#010101" stop-opacity="0"/>
<stop offset="0.95" stop-color="#010101"/>
</linearGradient>
<linearGradient id="paint1_linear_1_406" x1="43764.8" y1="5327.95" x2="43779.4" y2="11964.3" gradientUnits="userSpaceOnUse">
<stop stop-color="#010101" stop-opacity="0"/>
<stop offset="0.95" stop-color="#010101"/>
</linearGradient>
<linearGradient id="paint2_linear_1_406" x1="4772.14" y1="4164.52" x2="4590.55" y2="3316.58" gradientUnits="userSpaceOnUse">
<stop stop-color="#010101" stop-opacity="0"/>
<stop offset="0.95" stop-color="#010101"/>
</linearGradient>
<linearGradient id="paint3_linear_1_406" x1="17436.3" y1="6070.74" x2="17364.4" y2="7654.6" gradientUnits="userSpaceOnUse">
<stop stop-color="#010101" stop-opacity="0"/>
<stop offset="0.95" stop-color="#010101"/>
</linearGradient>
<linearGradient id="paint4_linear_1_406" x1="15314.4" y1="18179.1" x2="14160.9" y2="12683.1" gradientUnits="userSpaceOnUse">
<stop stop-color="#010101" stop-opacity="0"/>
<stop offset="0.95" stop-color="#010101"/>
</linearGradient>
<linearGradient id="paint5_linear_1_406" x1="14808.3" y1="15797.9" x2="6467.32" y2="10270.6" gradientUnits="userSpaceOnUse">
<stop stop-color="#010101" stop-opacity="0"/>
<stop offset="0.95" stop-color="#010101"/>
</linearGradient>
<linearGradient id="paint6_linear_1_406" x1="3684.53" y1="3442.55" x2="3554.56" y2="3772.65" gradientUnits="userSpaceOnUse">
<stop stop-color="#010101" stop-opacity="0"/>
<stop offset="0.95" stop-color="#010101"/>
</linearGradient>
<linearGradient id="paint7_linear_1_406" x1="35134" y1="5883.53" x2="35085.1" y2="7077.66" gradientUnits="userSpaceOnUse">
<stop stop-color="#010101" stop-opacity="0"/>
<stop offset="0.95" stop-color="#010101"/>
</linearGradient>
<linearGradient id="paint8_linear_1_406" x1="41116.9" y1="4950.26" x2="41137" y2="10441.6" gradientUnits="userSpaceOnUse">
<stop stop-color="#010101" stop-opacity="0"/>
<stop offset="0.95" stop-color="#010101"/>
</linearGradient>
<linearGradient id="paint9_linear_1_406" x1="1718.75" y1="5170.39" x2="1836.53" y2="6779.74" gradientUnits="userSpaceOnUse">
<stop stop-color="#010101" stop-opacity="0"/>
<stop offset="0.95" stop-color="#010101"/>
</linearGradient>
<linearGradient id="paint10_linear_1_406" x1="9580.44" y1="4941.72" x2="11372.9" y2="7565.93" gradientUnits="userSpaceOnUse">
<stop stop-color="#010101" stop-opacity="0"/>
<stop offset="0.95" stop-color="#010101"/>
</linearGradient>
<linearGradient id="paint11_linear_1_406" x1="9913.28" y1="4802.79" x2="10917.2" y2="7018.81" gradientUnits="userSpaceOnUse">
<stop stop-color="#010101" stop-opacity="0"/>
<stop offset="0.95" stop-color="#010101"/>
</linearGradient>
<linearGradient id="paint12_linear_1_406" x1="12582.2" y1="4234.72" x2="12720.8" y2="5840.07" gradientUnits="userSpaceOnUse">
<stop stop-color="#010101" stop-opacity="0"/>
<stop offset="0.95" stop-color="#010101"/>
</linearGradient>
<linearGradient id="paint13_linear_1_406" x1="634.429" y1="5857.06" x2="-206.429" y2="7358.41" gradientUnits="userSpaceOnUse">
<stop stop-color="#010101" stop-opacity="0"/>
<stop offset="0.95" stop-color="#010101"/>
</linearGradient>
<linearGradient id="paint14_linear_1_406" x1="4857.54" y1="5910.4" x2="5256.53" y2="5971.63" gradientUnits="userSpaceOnUse">
<stop stop-color="#010101" stop-opacity="0"/>
<stop offset="0.95" stop-color="#010101"/>
</linearGradient>
<linearGradient id="paint15_linear_1_406" x1="8059.04" y1="2956.02" x2="8059.04" y2="3968.09" gradientUnits="userSpaceOnUse">
<stop stop-color="#010101" stop-opacity="0"/>
<stop offset="0.95" stop-color="#010101"/>
</linearGradient>
<linearGradient id="paint16_linear_1_406" x1="294.926" y1="134.513" x2="308.328" y2="134.513" gradientUnits="userSpaceOnUse">
<stop stop-color="white" stop-opacity="0"/>
<stop offset="0.13" stop-color="white" stop-opacity="0.23"/>
<stop offset="0.23" stop-color="white" stop-opacity="0.41"/>
<stop offset="0.35" stop-color="white" stop-opacity="0.59"/>
<stop offset="0.48" stop-color="white" stop-opacity="0.74"/>
<stop offset="0.6" stop-color="white" stop-opacity="0.85"/>
<stop offset="0.72" stop-color="white" stop-opacity="0.93"/>
<stop offset="0.84" stop-color="white" stop-opacity="0.98"/>
<stop offset="0.95" stop-color="white"/>
</linearGradient>
</defs>
</svg>
