<svg width="50" height="63" viewBox="0 0 50 63" fill="none" xmlns="http://www.w3.org/2000/svg">
<path d="M32.9954 18.5724C32.9954 18.456 32.9347 18.3477 32.8349 18.287C24.6402 13.2979 16.3301 13.2986 8.13411 18.287C8.0343 18.3477 7.97363 18.456 7.97363 18.5724V33.8629C7.97363 43.0958 20.2572 47.2065 20.3811 47.2469C20.415 47.2577 20.4496 47.2632 20.4848 47.2632C20.5201 47.2632 20.5546 47.2577 20.5886 47.2469C20.7125 47.2065 32.9954 43.0958 32.9954 33.8629V18.5724ZM32.3274 33.8629C32.3274 42.1704 21.659 46.1624 20.4848 46.576C19.3106 46.1624 8.64163 42.1704 8.64163 33.8629V18.7606C16.501 14.041 24.468 14.041 32.3274 18.7606V33.8629Z" fill="#202124"/>
<path d="M12.1995 30.23C12.1995 34.7984 15.9165 38.5151 20.4848 38.5151C25.0531 38.5151 28.7695 34.7984 28.7695 30.23C28.7695 25.6617 25.0531 21.945 20.4848 21.945C15.9165 21.945 12.1995 25.6617 12.1995 30.23ZM20.4848 22.613C24.6846 22.613 28.1015 26.0299 28.1015 30.23C28.1015 34.4301 24.6846 37.8471 20.4848 37.8471C16.2844 37.8471 12.8675 34.4301 12.8675 30.23C12.8675 26.0299 16.2844 22.613 20.4848 22.613Z" fill="#202124"/>
<path d="M18.3171 33.6822C18.3798 33.7448 18.4646 33.7801 18.5533 33.7801C18.642 33.7801 18.7268 33.7448 18.7894 33.6822L25.2215 27.2502C25.352 27.1197 25.352 26.9083 25.2215 26.7779C25.091 26.6474 24.8797 26.6474 24.7492 26.7779L18.5533 32.9738L16.2205 30.6407C16.0901 30.5102 15.8787 30.5102 15.7482 30.6407C15.6178 30.7711 15.6178 30.9825 15.7482 31.113L18.3171 33.6822Z" fill="#202124"/>
</svg>
