<svg width="53" height="63" viewBox="0 0 53 63" fill="none" xmlns="http://www.w3.org/2000/svg">
<ellipse cx="23.5" cy="31.5" rx="23.5" ry="22.5" fill="#FFF6F2"/>
<path d="M35.9954 18.5724C35.9954 18.456 35.9347 18.3477 35.8349 18.287C27.6402 13.298 19.3301 13.2986 11.1341 18.287C11.0343 18.3477 10.9736 18.456 10.9736 18.5724V33.8629C10.9736 43.0958 23.2572 47.2065 23.3811 47.2469C23.415 47.2577 23.4496 47.2633 23.4848 47.2633C23.5201 47.2633 23.5546 47.2577 23.5886 47.2469C23.7125 47.2065 35.9954 43.0958 35.9954 33.8629V18.5724ZM35.3274 33.8629C35.3274 42.1705 24.659 46.1624 23.4848 46.576C22.3106 46.1624 11.6416 42.1705 11.6416 33.8629V18.7606C19.501 14.041 27.468 14.041 35.3274 18.7606V33.8629Z" fill="#202124"/>
<path d="M15.1997 30.23C15.1997 34.7984 18.9167 38.5151 23.4851 38.5151C28.0534 38.5151 31.7698 34.7984 31.7698 30.23C31.7698 25.6617 28.0534 21.945 23.4851 21.945C18.9167 21.945 15.1997 25.6617 15.1997 30.23ZM23.4851 22.613C27.6848 22.613 31.1018 26.0299 31.1018 30.23C31.1018 34.4301 27.6848 37.8471 23.4851 37.8471C19.2846 37.8471 15.8677 34.4301 15.8677 30.23C15.8677 26.0299 19.2846 22.613 23.4851 22.613Z" fill="#202124"/>
<path d="M21.3171 33.6822C21.3798 33.7448 21.4646 33.78 21.5533 33.78C21.642 33.78 21.7268 33.7448 21.7894 33.6822L28.2215 27.2501C28.352 27.1197 28.352 26.9083 28.2215 26.7778C28.091 26.6474 27.8797 26.6474 27.7492 26.7778L21.5533 32.9738L19.2205 30.6407C19.0901 30.5102 18.8787 30.5102 18.7482 30.6407C18.6178 30.7711 18.6178 30.9825 18.7482 31.113L21.3171 33.6822Z" fill="#202124"/>
</svg>
