<svg width="16" height="15" viewBox="0 0 16 15" fill="none" xmlns="http://www.w3.org/2000/svg">
<path d="M6.5 0.5V2.5L5.5 3L4 1.5L2 3.5L3.5 5L3 6H1V9H3L3.5 10L2 11.5L4 13.5L5.5 12L6.5 12.5V14.5H9.5V12.5L10.5 12L12 13.5L14 11.5L12.5 10L13 9H15V6H13L12.5 5L14 3.5L12 1.5L10.5 3L9.5 2.5V0.5H6.5Z" stroke="black" stroke-linecap="round" stroke-linejoin="round"/>
<path d="M8 9.5C9.10457 9.5 10 8.60457 10 7.5C10 6.39543 9.10457 5.5 8 5.5C6.89543 5.5 6 6.39543 6 7.5C6 8.60457 6.89543 9.5 8 9.5Z" stroke="black" stroke-linecap="round" stroke-linejoin="round"/>
</svg>
