<svg width="33" height="41" viewBox="0 0 33 41" fill="none" xmlns="http://www.w3.org/2000/svg">
<path d="M16.5119 4.37036C13.5316 4.37036 11.1072 6.79515 11.1072 9.77544V13.276C11.1072 16.2566 13.532 18.6814 16.5119 18.6814C19.4922 18.6814 21.917 16.2566 21.917 13.276V9.77544C21.9167 6.79515 19.4922 4.37036 16.5119 4.37036ZM21.1017 13.276C21.1017 15.8071 19.0427 17.8664 16.5116 17.8664C13.9805 17.8664 11.9219 15.8074 11.9219 13.276V9.77544C11.9219 7.24438 13.9809 5.18536 16.5116 5.18536C19.0423 5.18536 21.1017 7.24438 21.1017 9.77544V13.276Z" fill="#C30900"/>
<path d="M16.7073 19.5401C10.8843 19.5401 6.14722 24.2772 6.14722 30.1006V30.5081H27.2678V30.1006C27.2678 24.2776 22.5303 19.5401 16.7073 19.5401ZM20.2206 21.0133C19.2961 22.1517 17.9129 22.82 16.428 22.82C15.033 22.82 13.7059 22.2143 12.7833 21.1835C13.9849 20.6524 15.3117 20.3551 16.7073 20.3551C17.9458 20.3551 19.1302 20.5899 20.2206 21.0133ZM22.3057 29.6931V27.4698H21.4907V29.6931H11.6371V27.4698H10.8221V29.6931H6.97069C7.11544 26.1869 9.12294 23.1555 12.0256 21.5581C13.1047 22.8647 14.7246 23.635 16.428 23.635C18.2359 23.635 19.9171 22.7877 20.9929 21.352C24.1082 22.8842 26.293 26.0298 26.4443 29.6931H22.3057Z" fill="#C30900"/>
<path d="M9.79323 14.0786C10.0182 14.0786 10.2007 13.8961 10.2007 13.6711V9.77545C10.2007 6.29572 13.0317 3.46474 16.5114 3.46474C19.9912 3.46474 22.8221 6.29572 22.8221 9.77545V13.6708C22.8221 13.8958 23.0047 14.0783 23.2296 14.0783C25.4344 14.0783 26.176 12.0552 26.176 11.1323C26.176 9.58506 24.9764 8.31562 23.4588 8.19793C22.739 5.02563 19.8983 2.64941 16.5114 2.64941C13.1246 2.64941 10.2839 5.02563 9.56373 8.19793C8.04652 8.31562 6.84717 9.58506 6.84717 11.1323C6.84717 12.0552 7.58914 14.0786 9.79323 14.0786ZM25.361 11.1323C25.361 11.5195 25.0393 12.9833 23.6371 13.2255V9.77545C23.6371 9.52541 23.6238 9.27895 23.5987 9.03543C24.5985 9.21114 25.361 10.0835 25.361 11.1323ZM9.4242 9.03575C9.3991 9.27895 9.38573 9.52573 9.38573 9.77577V13.2258C7.98426 12.9833 7.66217 11.5199 7.66217 11.1326C7.66217 10.0835 8.42468 9.21114 9.4242 9.03575Z" fill="#C30900"/>
<path d="M16.1146 9.69852H12.9116V10.5135H15.2996V14.5885H17.0179V13.7735H16.1146V9.69852Z" fill="#C30900"/>
<path d="M19.945 9.69852H17.252V10.5135H19.945V9.69852Z" fill="#C30900"/>
</svg>
