<svg width="47" height="46" viewBox="0 0 47 46" fill="none" xmlns="http://www.w3.org/2000/svg">
<ellipse cx="23.5" cy="22.5" rx="23.5" ry="22.5" fill="#FFF6F2"/>
<path d="M23.5117 9.37036C20.5314 9.37036 18.1069 11.7951 18.1069 14.7754V18.276C18.1069 21.2566 20.5317 23.6814 23.5117 23.6814C26.492 23.6814 28.9168 21.2566 28.9168 18.276V14.7754C28.9164 11.7951 26.492 9.37036 23.5117 9.37036ZM28.1014 18.276C28.1014 20.8071 26.0424 22.8664 23.5114 22.8664C20.9803 22.8664 18.9216 20.8074 18.9216 18.276V14.7754C18.9216 12.2444 20.9806 10.1854 23.5114 10.1854C26.0421 10.1854 28.1014 12.2444 28.1014 14.7754V18.276Z" fill="#C30900"/>
<path d="M23.7071 24.5401C17.8841 24.5401 13.147 29.2772 13.147 35.1005V35.508H34.2675V35.1005C34.2675 29.2775 29.5301 24.5401 23.7071 24.5401ZM27.2204 26.0133C26.2959 27.1517 24.9126 27.82 23.4277 27.82C22.0328 27.82 20.7056 27.2143 19.783 26.1835C20.9847 25.6524 22.3115 25.3551 23.7071 25.3551C24.9456 25.3551 26.1299 25.5898 27.2204 26.0133ZM29.3055 34.693V32.4697H28.4905V34.693H18.6368V32.4697H17.8218V34.693H13.9704C14.1152 31.1869 16.1227 28.1554 19.0254 26.558C20.1045 27.8646 21.7244 28.635 23.4277 28.635C25.2357 28.635 26.9169 27.7877 27.9927 26.352C31.1079 27.8842 33.2928 31.0298 33.4441 34.693H29.3055Z" fill="#C30900"/>
<path d="M16.7932 19.0786C17.0182 19.0786 17.2007 18.8961 17.2007 18.6711V14.7754C17.2007 11.2957 20.0317 8.46474 23.5114 8.46474C26.9912 8.46474 29.8221 11.2957 29.8221 14.7754V18.6708C29.8221 18.8958 30.0047 19.0783 30.2296 19.0783C32.4344 19.0783 33.176 17.0552 33.176 16.1323C33.176 14.5851 31.9764 13.3156 30.4588 13.1979C29.739 10.0256 26.8983 7.64941 23.5114 7.64941C20.1246 7.64941 17.2839 10.0256 16.5637 13.1979C15.0465 13.3156 13.8472 14.5851 13.8472 16.1323C13.8472 17.0552 14.5891 19.0786 16.7932 19.0786ZM32.361 16.1323C32.361 16.5195 32.0393 17.9833 30.6371 18.2255V14.7754C30.6371 14.5254 30.6238 14.279 30.5987 14.0354C31.5985 14.2111 32.361 15.0835 32.361 16.1323ZM16.4242 14.0358C16.3991 14.279 16.3857 14.5257 16.3857 14.7758V18.2258C14.9843 17.9833 14.6622 16.5199 14.6622 16.1326C14.6622 15.0835 15.4247 14.2111 16.4242 14.0358Z" fill="#C30900"/>
<path d="M23.1141 14.6985H19.9111V15.5135H22.2991V19.5885H24.0174V18.7735H23.1141V14.6985Z" fill="#C30900"/>
<path d="M26.9446 14.6985H24.2515V15.5135H26.9446V14.6985Z" fill="#C30900"/>
</svg>
