<svg width="18" height="15" viewBox="0 0 18 15" fill="none" xmlns="http://www.w3.org/2000/svg">
<path d="M17.427 1.68177C16.7862 1.95822 16.0888 2.15718 15.3704 2.23468C16.1162 1.79159 16.6747 1.09158 16.9412 0.26599C16.2413 0.682324 15.4746 0.974264 14.6751 1.12886C14.3409 0.771621 13.9368 0.487027 13.4878 0.292814C13.0388 0.0986001 12.5547 -0.00107185 12.0655 8.69238e-06C10.0864 8.69238e-06 8.49466 1.60428 8.49466 3.57296C8.49466 3.84942 8.52817 4.12587 8.58263 4.39185C5.61913 4.23687 2.97606 2.82109 1.21891 0.653444C0.898737 1.20031 0.730955 1.82298 0.733021 2.45668C0.733021 3.69653 1.36342 4.78978 2.32472 5.43274C1.75821 5.41043 1.20497 5.25472 0.709983 4.97827V5.02225C0.709983 6.75846 1.93727 8.19728 3.57295 8.52818C3.26584 8.60796 2.9499 8.64877 2.63259 8.64966C2.40012 8.64966 2.18021 8.62662 1.95821 8.5952C2.41059 10.011 3.72793 11.0393 5.2966 11.0728C4.06931 12.0341 2.53206 12.5996 0.86287 12.5996C0.563379 12.5996 0.286925 12.5891 0 12.5556C1.58332 13.5714 3.46195 14.1578 5.48509 14.1578C12.053 14.1578 15.6469 8.71667 15.6469 3.99393C15.6469 3.83894 15.6469 3.68396 15.6364 3.52898C16.3317 3.02005 16.9412 2.38966 17.427 1.68177Z" fill="#FF833C"/>
</svg>
