<svg width="24" height="30" viewBox="0 0 24 30" fill="none" xmlns="http://www.w3.org/2000/svg">
<path d="M5.99961 7C5.14961 7 4.49961 7.65 4.49961 8.5V14.2998L3.84922 13.6504C3.64922 13.4504 3.35 13.4504 3.15 13.6504C2.95 13.8504 2.95 14.1496 3.15 14.3496L4.65 15.8496C4.75 15.9496 4.84961 16 4.99961 16C5.14961 16 5.24922 15.9496 5.34922 15.8496L6.84922 14.3496C7.04922 14.1496 7.04922 13.8504 6.84922 13.6504C6.64922 13.4504 6.35 13.4504 6.15 13.6504L5.49961 14.2998V8.5C5.49961 8.2 5.69961 8 5.99961 8H18.9996C19.2996 8 19.4996 7.8 19.4996 7.5C19.4996 7.2 19.2996 7 18.9996 7H5.99961V7ZM18.9996 10C18.8746 10 18.75 10.0504 18.65 10.1504L17.15 11.6504C16.95 11.8504 16.95 12.1496 17.15 12.3496C17.35 12.5496 17.6492 12.5496 17.8492 12.3496L18.4996 11.7002V17.5C18.4996 17.8 18.2996 18 17.9996 18H4.99961C4.69961 18 4.49961 18.2 4.49961 18.5C4.49961 18.8 4.69961 19 4.99961 19H17.9996C18.8496 19 19.4996 18.35 19.4996 17.5V11.7002L20.15 12.3496C20.25 12.4496 20.3996 12.5 20.4996 12.5C20.5996 12.5 20.7492 12.4496 20.8492 12.3496C21.0492 12.1496 21.0492 11.8504 20.8492 11.6504L19.3492 10.1504C19.2492 10.0504 19.1246 10 18.9996 10Z" fill="#010101"/>
</svg>
