<svg width="18" height="15" viewBox="0 0 18 15" fill="none" xmlns="http://www.w3.org/2000/svg">
<path d="M17.9998 2.0221C17.3589 2.29855 16.6615 2.49752 15.9432 2.57501C16.689 2.13192 17.2475 1.43191 17.5139 0.606323C16.8141 1.02266 16.0474 1.3146 15.2478 1.46919C14.9137 1.11195 14.5095 0.827359 14.0606 0.633146C13.6116 0.438932 13.1274 0.33926 12.6383 0.340341C10.6591 0.340341 9.06742 1.94461 9.06742 3.91329C9.06742 4.18975 9.10093 4.4662 9.15538 4.73218C6.19188 4.5772 3.54882 3.16142 1.79166 0.993776C1.47149 1.54064 1.30371 2.16331 1.30577 2.79701C1.30577 4.03686 1.93617 5.13011 2.89748 5.77307C2.33097 5.75076 1.77772 5.59505 1.28274 5.3186V5.36258C1.28274 7.09879 2.51002 8.53761 4.14571 8.86852C3.83859 8.94829 3.52265 8.9891 3.20535 8.98999C2.97287 8.98999 2.75297 8.96695 2.53097 8.93553C2.98335 10.3513 4.30069 11.3796 5.86935 11.4131C4.64207 12.3744 3.10482 12.9399 1.43562 12.9399C1.13613 12.9399 0.859679 12.9295 0.572754 12.8959C2.15608 13.9117 4.03471 14.4981 6.05784 14.4981C12.6257 14.4981 16.2196 9.05701 16.2196 4.33426C16.2196 4.17928 16.2196 4.02429 16.2091 3.86931C16.9045 3.36039 17.5139 2.72999 17.9998 2.0221Z" fill="white"/>
</svg>
